<?xml version="1.0" encoding="utf-8" standalone="no"?>
<!DOCTYPE svg PUBLIC "-//W3C//DTD SVG 1.1//EN"
  "http://www.w3.org/Graphics/SVG/1.1/DTD/svg11.dtd">
<!-- Created with matplotlib (https://matplotlib.org/) -->
<svg height="727.146236pt" version="1.1" viewBox="0 0 896.753437 727.146236" width="896.753437pt" xmlns="http://www.w3.org/2000/svg" xmlns:xlink="http://www.w3.org/1999/xlink">
 <defs>
  <style type="text/css">
*{stroke-linecap:butt;stroke-linejoin:round;}
  </style>
 </defs>
 <g id="figure_1">
  <g id="patch_1">
   <path d="M 0 727.146236 
L 896.753437 727.146236 
L 896.753437 0 
L 0 0 
z
" style="fill:#ffffff;"/>
  </g>
  <g id="axes_1">
   <g id="patch_2">
    <path d="M 52.553438 315.547826 
L 433.007983 315.547826 
L 433.007983 79.2 
L 52.553438 79.2 
z
" style="fill:#eaeaf2;"/>
   </g>
   <g id="matplotlib.axis_1">
    <g id="xtick_1">
     <g id="line2d_1">
      <path clip-path="url(#p4df4b73782)" d="M 98.042568 315.547826 
L 98.042568 79.2 
" style="fill:none;stroke:#ffffff;stroke-linecap:round;stroke-width:0.8;"/>
     </g>
     <g id="line2d_2"/>
     <g id="text_1">
      <!-- AT_LOWW -->
      <defs>
       <path d="M -0.140625 0 
L 27.34375 71.578125 
L 37.546875 71.578125 
L 66.84375 0 
L 56.0625 0 
L 47.703125 21.6875 
L 17.78125 21.6875 
L 9.90625 0 
z
M 20.515625 29.390625 
L 44.78125 29.390625 
L 37.3125 49.21875 
Q 33.890625 58.25 32.234375 64.0625 
Q 30.859375 57.171875 28.375 50.390625 
z
" id="ArialMT-65"/>
       <path d="M 25.921875 0 
L 25.921875 63.140625 
L 2.34375 63.140625 
L 2.34375 71.578125 
L 59.078125 71.578125 
L 59.078125 63.140625 
L 35.40625 63.140625 
L 35.40625 0 
z
" id="ArialMT-84"/>
       <path d="M -1.515625 -19.875 
L -1.515625 -13.53125 
L 56.734375 -13.53125 
L 56.734375 -19.875 
z
" id="ArialMT-95"/>
       <path d="M 7.328125 0 
L 7.328125 71.578125 
L 16.796875 71.578125 
L 16.796875 8.453125 
L 52.046875 8.453125 
L 52.046875 0 
z
" id="ArialMT-76"/>
       <path d="M 4.828125 34.859375 
Q 4.828125 52.6875 14.390625 62.765625 
Q 23.96875 72.859375 39.109375 72.859375 
Q 49.03125 72.859375 56.984375 68.109375 
Q 64.9375 63.375 69.109375 54.90625 
Q 73.296875 46.4375 73.296875 35.6875 
Q 73.296875 24.8125 68.890625 16.21875 
Q 64.5 7.625 56.4375 3.203125 
Q 48.390625 -1.21875 39.0625 -1.21875 
Q 28.953125 -1.21875 20.984375 3.65625 
Q 13.03125 8.546875 8.921875 16.984375 
Q 4.828125 25.4375 4.828125 34.859375 
z
M 14.59375 34.71875 
Q 14.59375 21.78125 21.546875 14.328125 
Q 28.515625 6.890625 39.015625 6.890625 
Q 49.703125 6.890625 56.609375 14.40625 
Q 63.53125 21.921875 63.53125 35.75 
Q 63.53125 44.484375 60.578125 51 
Q 57.625 57.515625 51.921875 61.109375 
Q 46.234375 64.703125 39.15625 64.703125 
Q 29.109375 64.703125 21.84375 57.78125 
Q 14.59375 50.875 14.59375 34.71875 
z
" id="ArialMT-79"/>
       <path d="M 20.21875 0 
L 1.21875 71.578125 
L 10.9375 71.578125 
L 21.828125 24.65625 
Q 23.578125 17.28125 24.859375 10.015625 
Q 27.59375 21.484375 28.078125 23.25 
L 41.703125 71.578125 
L 53.125 71.578125 
L 63.375 35.359375 
Q 67.234375 21.875 68.953125 10.015625 
Q 70.3125 16.796875 72.515625 25.59375 
L 83.734375 71.578125 
L 93.265625 71.578125 
L 73.640625 0 
L 64.5 0 
L 49.421875 54.546875 
Q 47.515625 61.375 47.171875 62.9375 
Q 46.046875 58.015625 45.0625 54.546875 
L 29.890625 0 
z
" id="ArialMT-87"/>
      </defs>
      <g style="fill:#262626;" transform="translate(63.169443 329.248139)scale(0.14 -0.14)">
       <use xlink:href="#ArialMT-65"/>
       <use x="59.324219" xlink:href="#ArialMT-84"/>
       <use x="120.408203" xlink:href="#ArialMT-95"/>
       <use x="176.023438" xlink:href="#ArialMT-76"/>
       <use x="231.638672" xlink:href="#ArialMT-79"/>
       <use x="309.421875" xlink:href="#ArialMT-87"/>
       <use x="403.806641" xlink:href="#ArialMT-87"/>
      </g>
     </g>
    </g>
    <g id="xtick_2">
     <g id="line2d_3">
      <path clip-path="url(#p4df4b73782)" d="M 173.231213 315.547826 
L 173.231213 79.2 
" style="fill:none;stroke:#ffffff;stroke-linecap:round;stroke-width:0.8;"/>
     </g>
     <g id="line2d_4"/>
     <g id="text_2">
      <!-- DE_EDDF -->
      <defs>
       <path d="M 7.71875 0 
L 7.71875 71.578125 
L 32.375 71.578125 
Q 40.71875 71.578125 45.125 70.5625 
Q 51.265625 69.140625 55.609375 65.4375 
Q 61.28125 60.640625 64.078125 53.1875 
Q 66.890625 45.75 66.890625 36.1875 
Q 66.890625 28.03125 64.984375 21.734375 
Q 63.09375 15.4375 60.109375 11.296875 
Q 57.125 7.171875 53.578125 4.796875 
Q 50.046875 2.4375 45.046875 1.21875 
Q 40.046875 0 33.546875 0 
z
M 17.1875 8.453125 
L 32.46875 8.453125 
Q 39.546875 8.453125 43.578125 9.765625 
Q 47.609375 11.078125 50 13.484375 
Q 53.375 16.84375 55.25 22.53125 
Q 57.125 28.21875 57.125 36.328125 
Q 57.125 47.5625 53.4375 53.59375 
Q 49.75 59.625 44.484375 61.671875 
Q 40.671875 63.140625 32.234375 63.140625 
L 17.1875 63.140625 
z
" id="ArialMT-68"/>
       <path d="M 7.90625 0 
L 7.90625 71.578125 
L 59.671875 71.578125 
L 59.671875 63.140625 
L 17.390625 63.140625 
L 17.390625 41.21875 
L 56.984375 41.21875 
L 56.984375 32.8125 
L 17.390625 32.8125 
L 17.390625 8.453125 
L 61.328125 8.453125 
L 61.328125 0 
z
" id="ArialMT-69"/>
       <path d="M 8.203125 0 
L 8.203125 71.578125 
L 56.5 71.578125 
L 56.5 63.140625 
L 17.671875 63.140625 
L 17.671875 40.96875 
L 51.265625 40.96875 
L 51.265625 32.515625 
L 17.671875 32.515625 
L 17.671875 0 
z
" id="ArialMT-70"/>
      </defs>
      <g style="fill:#262626;" transform="translate(140.558713 329.068764)scale(0.14 -0.14)">
       <use xlink:href="#ArialMT-68"/>
       <use x="72.216797" xlink:href="#ArialMT-69"/>
       <use x="138.916016" xlink:href="#ArialMT-95"/>
       <use x="194.53125" xlink:href="#ArialMT-69"/>
       <use x="261.230469" xlink:href="#ArialMT-68"/>
       <use x="333.447266" xlink:href="#ArialMT-68"/>
       <use x="405.664062" xlink:href="#ArialMT-70"/>
      </g>
     </g>
    </g>
    <g id="xtick_3">
     <g id="line2d_5">
      <path clip-path="url(#p4df4b73782)" d="M 248.419859 315.547826 
L 248.419859 79.2 
" style="fill:none;stroke:#ffffff;stroke-linecap:round;stroke-width:0.8;"/>
     </g>
     <g id="line2d_6"/>
     <g id="text_3">
      <!-- NO_ENGM -->
      <defs>
       <path d="M 7.625 0 
L 7.625 71.578125 
L 17.328125 71.578125 
L 54.9375 15.375 
L 54.9375 71.578125 
L 64.015625 71.578125 
L 64.015625 0 
L 54.296875 0 
L 16.703125 56.25 
L 16.703125 0 
z
" id="ArialMT-78"/>
       <path d="M 41.21875 28.078125 
L 41.21875 36.46875 
L 71.53125 36.53125 
L 71.53125 9.96875 
Q 64.546875 4.390625 57.125 1.578125 
Q 49.703125 -1.21875 41.890625 -1.21875 
Q 31.34375 -1.21875 22.71875 3.296875 
Q 14.109375 7.8125 9.71875 16.359375 
Q 5.328125 24.90625 5.328125 35.453125 
Q 5.328125 45.90625 9.6875 54.953125 
Q 14.0625 64.015625 22.265625 68.40625 
Q 30.46875 72.796875 41.15625 72.796875 
Q 48.921875 72.796875 55.1875 70.28125 
Q 61.46875 67.78125 65.03125 63.28125 
Q 68.609375 58.796875 70.453125 51.5625 
L 61.921875 49.21875 
Q 60.296875 54.6875 57.90625 57.8125 
Q 55.515625 60.9375 51.0625 62.8125 
Q 46.625 64.703125 41.21875 64.703125 
Q 34.71875 64.703125 29.984375 62.71875 
Q 25.25 60.75 22.34375 57.515625 
Q 19.4375 54.296875 17.828125 50.4375 
Q 15.09375 43.796875 15.09375 36.03125 
Q 15.09375 26.46875 18.390625 20.015625 
Q 21.6875 13.578125 27.984375 10.453125 
Q 34.28125 7.328125 41.359375 7.328125 
Q 47.515625 7.328125 53.375 9.6875 
Q 59.234375 12.0625 62.25 14.75 
L 62.25 28.078125 
z
" id="ArialMT-71"/>
       <path d="M 7.421875 0 
L 7.421875 71.578125 
L 21.6875 71.578125 
L 38.625 20.90625 
Q 40.96875 13.8125 42.046875 10.296875 
Q 43.265625 14.203125 45.84375 21.78125 
L 62.984375 71.578125 
L 75.734375 71.578125 
L 75.734375 0 
L 66.609375 0 
L 66.609375 59.90625 
L 45.796875 0 
L 37.25 0 
L 16.546875 60.9375 
L 16.546875 0 
z
" id="ArialMT-77"/>
      </defs>
      <g style="fill:#262626;" transform="translate(213.027202 329.248139)scale(0.14 -0.14)">
       <use xlink:href="#ArialMT-78"/>
       <use x="72.216797" xlink:href="#ArialMT-79"/>
       <use x="150" xlink:href="#ArialMT-95"/>
       <use x="205.615234" xlink:href="#ArialMT-69"/>
       <use x="272.314453" xlink:href="#ArialMT-78"/>
       <use x="344.53125" xlink:href="#ArialMT-71"/>
       <use x="422.314453" xlink:href="#ArialMT-77"/>
      </g>
     </g>
    </g>
    <g id="xtick_4">
     <g id="line2d_7">
      <path clip-path="url(#p4df4b73782)" d="M 323.608504 315.547826 
L 323.608504 79.2 
" style="fill:none;stroke:#ffffff;stroke-linecap:round;stroke-width:0.8;"/>
     </g>
     <g id="line2d_8"/>
     <g id="text_4">
      <!-- PL_EPWA -->
      <defs>
       <path d="M 7.71875 0 
L 7.71875 71.578125 
L 34.71875 71.578125 
Q 41.84375 71.578125 45.609375 70.90625 
Q 50.875 70.015625 54.4375 67.546875 
Q 58.015625 65.09375 60.1875 60.640625 
Q 62.359375 56.203125 62.359375 50.875 
Q 62.359375 41.75 56.546875 35.421875 
Q 50.734375 29.109375 35.546875 29.109375 
L 17.1875 29.109375 
L 17.1875 0 
z
M 17.1875 37.546875 
L 35.6875 37.546875 
Q 44.875 37.546875 48.734375 40.96875 
Q 52.59375 44.390625 52.59375 50.59375 
Q 52.59375 55.078125 50.3125 58.265625 
Q 48.046875 61.46875 44.34375 62.5 
Q 41.9375 63.140625 35.5 63.140625 
L 17.1875 63.140625 
z
" id="ArialMT-80"/>
      </defs>
      <g style="fill:#262626;" transform="translate(290.801473 329.068764)scale(0.14 -0.14)">
       <use xlink:href="#ArialMT-80"/>
       <use x="66.699219" xlink:href="#ArialMT-76"/>
       <use x="122.314453" xlink:href="#ArialMT-95"/>
       <use x="177.929688" xlink:href="#ArialMT-69"/>
       <use x="244.628906" xlink:href="#ArialMT-80"/>
       <use x="311.328125" xlink:href="#ArialMT-87"/>
       <use x="401.962891" xlink:href="#ArialMT-65"/>
      </g>
     </g>
    </g>
    <g id="xtick_5">
     <g id="line2d_9">
      <path clip-path="url(#p4df4b73782)" d="M 398.797149 315.547826 
L 398.797149 79.2 
" style="fill:none;stroke:#ffffff;stroke-linecap:round;stroke-width:0.8;"/>
     </g>
     <g id="line2d_10"/>
     <g id="text_5">
      <!-- PT_LPPT -->
      <g style="fill:#262626;" transform="translate(368.453243 329.068764)scale(0.14 -0.14)">
       <use xlink:href="#ArialMT-80"/>
       <use x="66.699219" xlink:href="#ArialMT-84"/>
       <use x="127.783203" xlink:href="#ArialMT-95"/>
       <use x="183.398438" xlink:href="#ArialMT-76"/>
       <use x="239.013672" xlink:href="#ArialMT-80"/>
       <use x="305.712891" xlink:href="#ArialMT-80"/>
       <use x="372.412109" xlink:href="#ArialMT-84"/>
      </g>
     </g>
    </g>
    <g id="text_6">
     <!-- Lotnisko -->
     <defs>
      <path d="M 3.328125 25.921875 
Q 3.328125 40.328125 11.328125 47.265625 
Q 18.015625 53.03125 27.640625 53.03125 
Q 38.328125 53.03125 45.109375 46.015625 
Q 51.90625 39.015625 51.90625 26.65625 
Q 51.90625 16.65625 48.90625 10.90625 
Q 45.90625 5.171875 40.15625 2 
Q 34.421875 -1.171875 27.640625 -1.171875 
Q 16.75 -1.171875 10.03125 5.8125 
Q 3.328125 12.796875 3.328125 25.921875 
z
M 12.359375 25.921875 
Q 12.359375 15.96875 16.703125 11.015625 
Q 21.046875 6.0625 27.640625 6.0625 
Q 34.1875 6.0625 38.53125 11.03125 
Q 42.875 16.015625 42.875 26.21875 
Q 42.875 35.84375 38.5 40.796875 
Q 34.125 45.75 27.640625 45.75 
Q 21.046875 45.75 16.703125 40.8125 
Q 12.359375 35.890625 12.359375 25.921875 
z
" id="ArialMT-111"/>
      <path d="M 25.78125 7.859375 
L 27.046875 0.09375 
Q 23.34375 -0.6875 20.40625 -0.6875 
Q 15.625 -0.6875 12.984375 0.828125 
Q 10.359375 2.34375 9.28125 4.8125 
Q 8.203125 7.28125 8.203125 15.1875 
L 8.203125 45.015625 
L 1.765625 45.015625 
L 1.765625 51.859375 
L 8.203125 51.859375 
L 8.203125 64.703125 
L 16.9375 69.96875 
L 16.9375 51.859375 
L 25.78125 51.859375 
L 25.78125 45.015625 
L 16.9375 45.015625 
L 16.9375 14.703125 
Q 16.9375 10.9375 17.40625 9.859375 
Q 17.875 8.796875 18.921875 8.15625 
Q 19.96875 7.515625 21.921875 7.515625 
Q 23.390625 7.515625 25.78125 7.859375 
z
" id="ArialMT-116"/>
      <path d="M 6.59375 0 
L 6.59375 51.859375 
L 14.5 51.859375 
L 14.5 44.484375 
Q 20.21875 53.03125 31 53.03125 
Q 35.6875 53.03125 39.625 51.34375 
Q 43.5625 49.65625 45.515625 46.921875 
Q 47.46875 44.1875 48.25 40.4375 
Q 48.734375 37.984375 48.734375 31.890625 
L 48.734375 0 
L 39.9375 0 
L 39.9375 31.546875 
Q 39.9375 36.921875 38.90625 39.578125 
Q 37.890625 42.234375 35.28125 43.8125 
Q 32.671875 45.40625 29.15625 45.40625 
Q 23.53125 45.40625 19.453125 41.84375 
Q 15.375 38.28125 15.375 28.328125 
L 15.375 0 
z
" id="ArialMT-110"/>
      <path d="M 6.640625 61.46875 
L 6.640625 71.578125 
L 15.4375 71.578125 
L 15.4375 61.46875 
z
M 6.640625 0 
L 6.640625 51.859375 
L 15.4375 51.859375 
L 15.4375 0 
z
" id="ArialMT-105"/>
      <path d="M 3.078125 15.484375 
L 11.765625 16.84375 
Q 12.5 11.625 15.84375 8.84375 
Q 19.1875 6.0625 25.203125 6.0625 
Q 31.25 6.0625 34.171875 8.515625 
Q 37.109375 10.984375 37.109375 14.3125 
Q 37.109375 17.28125 34.515625 19 
Q 32.71875 20.171875 25.53125 21.96875 
Q 15.875 24.421875 12.140625 26.203125 
Q 8.40625 27.984375 6.46875 31.125 
Q 4.546875 34.28125 4.546875 38.09375 
Q 4.546875 41.546875 6.125 44.5 
Q 7.71875 47.46875 10.453125 49.421875 
Q 12.5 50.921875 16.03125 51.96875 
Q 19.578125 53.03125 23.640625 53.03125 
Q 29.734375 53.03125 34.34375 51.265625 
Q 38.96875 49.515625 41.15625 46.5 
Q 43.359375 43.5 44.1875 38.484375 
L 35.59375 37.3125 
Q 35.015625 41.3125 32.203125 43.546875 
Q 29.390625 45.796875 24.265625 45.796875 
Q 18.21875 45.796875 15.625 43.796875 
Q 13.03125 41.796875 13.03125 39.109375 
Q 13.03125 37.40625 14.109375 36.03125 
Q 15.1875 34.625 17.484375 33.6875 
Q 18.796875 33.203125 25.25 31.453125 
Q 34.578125 28.953125 38.25 27.359375 
Q 41.9375 25.78125 44.03125 22.75 
Q 46.140625 19.734375 46.140625 15.234375 
Q 46.140625 10.84375 43.578125 6.953125 
Q 41.015625 3.078125 36.171875 0.953125 
Q 31.34375 -1.171875 25.25 -1.171875 
Q 15.140625 -1.171875 9.84375 3.03125 
Q 4.546875 7.234375 3.078125 15.484375 
z
" id="ArialMT-115"/>
      <path d="M 6.640625 0 
L 6.640625 71.578125 
L 15.4375 71.578125 
L 15.4375 30.765625 
L 36.234375 51.859375 
L 47.609375 51.859375 
L 27.78125 32.625 
L 49.609375 0 
L 38.765625 0 
L 21.625 26.515625 
L 15.4375 20.5625 
L 15.4375 0 
z
" id="ArialMT-107"/>
     </defs>
     <g style="fill:#262626;" transform="translate(211.123523 348.19892)scale(0.17 -0.17)">
      <use xlink:href="#ArialMT-76"/>
      <use x="55.615234" xlink:href="#ArialMT-111"/>
      <use x="111.230469" xlink:href="#ArialMT-116"/>
      <use x="139.013672" xlink:href="#ArialMT-110"/>
      <use x="194.628906" xlink:href="#ArialMT-105"/>
      <use x="216.845703" xlink:href="#ArialMT-115"/>
      <use x="266.845703" xlink:href="#ArialMT-107"/>
      <use x="316.845703" xlink:href="#ArialMT-111"/>
     </g>
    </g>
   </g>
   <g id="matplotlib.axis_2">
    <g id="ytick_1">
     <g id="line2d_11">
      <path clip-path="url(#p4df4b73782)" d="M 52.553438 315.547826 
L 433.007983 315.547826 
" style="fill:none;stroke:#ffffff;stroke-linecap:round;stroke-width:0.8;"/>
     </g>
     <g id="line2d_12"/>
     <g id="text_7">
      <!-- 0.0 -->
      <defs>
       <path d="M 4.15625 35.296875 
Q 4.15625 48 6.765625 55.734375 
Q 9.375 63.484375 14.515625 67.671875 
Q 19.671875 71.875 27.484375 71.875 
Q 33.25 71.875 37.59375 69.546875 
Q 41.9375 67.234375 44.765625 62.859375 
Q 47.609375 58.5 49.21875 52.21875 
Q 50.828125 45.953125 50.828125 35.296875 
Q 50.828125 22.703125 48.234375 14.96875 
Q 45.65625 7.234375 40.5 3 
Q 35.359375 -1.21875 27.484375 -1.21875 
Q 17.140625 -1.21875 11.234375 6.203125 
Q 4.15625 15.140625 4.15625 35.296875 
z
M 13.1875 35.296875 
Q 13.1875 17.671875 17.3125 11.828125 
Q 21.4375 6 27.484375 6 
Q 33.546875 6 37.671875 11.859375 
Q 41.796875 17.71875 41.796875 35.296875 
Q 41.796875 52.984375 37.671875 58.78125 
Q 33.546875 64.59375 27.390625 64.59375 
Q 21.34375 64.59375 17.71875 59.46875 
Q 13.1875 52.9375 13.1875 35.296875 
z
" id="ArialMT-48"/>
       <path d="M 9.078125 0 
L 9.078125 10.015625 
L 19.09375 10.015625 
L 19.09375 0 
z
" id="ArialMT-46"/>
      </defs>
      <g style="fill:#262626;" transform="translate(26.813438 321.274076)scale(0.16 -0.16)">
       <use xlink:href="#ArialMT-48"/>
       <use x="55.615234" xlink:href="#ArialMT-46"/>
       <use x="83.398438" xlink:href="#ArialMT-48"/>
      </g>
     </g>
    </g>
    <g id="ytick_2">
     <g id="line2d_13">
      <path clip-path="url(#p4df4b73782)" d="M 52.553438 256.46087 
L 433.007983 256.46087 
" style="fill:none;stroke:#ffffff;stroke-linecap:round;stroke-width:0.8;"/>
     </g>
     <g id="line2d_14"/>
     <g id="text_8">
      <!-- 0.5 -->
      <defs>
       <path d="M 4.15625 18.75 
L 13.375 19.53125 
Q 14.40625 12.796875 18.140625 9.390625 
Q 21.875 6 27.15625 6 
Q 33.5 6 37.890625 10.78125 
Q 42.28125 15.578125 42.28125 23.484375 
Q 42.28125 31 38.0625 35.34375 
Q 33.84375 39.703125 27 39.703125 
Q 22.75 39.703125 19.328125 37.765625 
Q 15.921875 35.84375 13.96875 32.765625 
L 5.71875 33.84375 
L 12.640625 70.609375 
L 48.25 70.609375 
L 48.25 62.203125 
L 19.671875 62.203125 
L 15.828125 42.96875 
Q 22.265625 47.46875 29.34375 47.46875 
Q 38.71875 47.46875 45.15625 40.96875 
Q 51.609375 34.46875 51.609375 24.265625 
Q 51.609375 14.546875 45.953125 7.46875 
Q 39.0625 -1.21875 27.15625 -1.21875 
Q 17.390625 -1.21875 11.203125 4.25 
Q 5.03125 9.71875 4.15625 18.75 
z
" id="ArialMT-53"/>
      </defs>
      <g style="fill:#262626;" transform="translate(26.813438 262.18712)scale(0.16 -0.16)">
       <use xlink:href="#ArialMT-48"/>
       <use x="55.615234" xlink:href="#ArialMT-46"/>
       <use x="83.398438" xlink:href="#ArialMT-53"/>
      </g>
     </g>
    </g>
    <g id="ytick_3">
     <g id="line2d_15">
      <path clip-path="url(#p4df4b73782)" d="M 52.553438 197.373913 
L 433.007983 197.373913 
" style="fill:none;stroke:#ffffff;stroke-linecap:round;stroke-width:0.8;"/>
     </g>
     <g id="line2d_16"/>
     <g id="text_9">
      <!-- 1.0 -->
      <defs>
       <path d="M 37.25 0 
L 28.46875 0 
L 28.46875 56 
Q 25.296875 52.984375 20.140625 49.953125 
Q 14.984375 46.921875 10.890625 45.40625 
L 10.890625 53.90625 
Q 18.265625 57.375 23.78125 62.296875 
Q 29.296875 67.234375 31.59375 71.875 
L 37.25 71.875 
z
" id="ArialMT-49"/>
      </defs>
      <g style="fill:#262626;" transform="translate(26.813438 203.100163)scale(0.16 -0.16)">
       <use xlink:href="#ArialMT-49"/>
       <use x="55.615234" xlink:href="#ArialMT-46"/>
       <use x="83.398438" xlink:href="#ArialMT-48"/>
      </g>
     </g>
    </g>
    <g id="ytick_4">
     <g id="line2d_17">
      <path clip-path="url(#p4df4b73782)" d="M 52.553438 138.286957 
L 433.007983 138.286957 
" style="fill:none;stroke:#ffffff;stroke-linecap:round;stroke-width:0.8;"/>
     </g>
     <g id="line2d_18"/>
     <g id="text_10">
      <!-- 1.5 -->
      <g style="fill:#262626;" transform="translate(26.813438 144.013207)scale(0.16 -0.16)">
       <use xlink:href="#ArialMT-49"/>
       <use x="55.615234" xlink:href="#ArialMT-46"/>
       <use x="83.398438" xlink:href="#ArialMT-53"/>
      </g>
     </g>
    </g>
    <g id="ytick_5">
     <g id="line2d_19">
      <path clip-path="url(#p4df4b73782)" d="M 52.553438 79.2 
L 433.007983 79.2 
" style="fill:none;stroke:#ffffff;stroke-linecap:round;stroke-width:0.8;"/>
     </g>
     <g id="line2d_20"/>
     <g id="text_11">
      <!-- 2.0 -->
      <defs>
       <path d="M 50.34375 8.453125 
L 50.34375 0 
L 3.03125 0 
Q 2.9375 3.171875 4.046875 6.109375 
Q 5.859375 10.9375 9.828125 15.625 
Q 13.8125 20.3125 21.34375 26.46875 
Q 33.015625 36.03125 37.109375 41.625 
Q 41.21875 47.21875 41.21875 52.203125 
Q 41.21875 57.421875 37.46875 61 
Q 33.734375 64.59375 27.734375 64.59375 
Q 21.390625 64.59375 17.578125 60.78125 
Q 13.765625 56.984375 13.71875 50.25 
L 4.6875 51.171875 
Q 5.609375 61.28125 11.65625 66.578125 
Q 17.71875 71.875 27.9375 71.875 
Q 38.234375 71.875 44.234375 66.15625 
Q 50.25 60.453125 50.25 52 
Q 50.25 47.703125 48.484375 43.546875 
Q 46.734375 39.40625 42.65625 34.8125 
Q 38.578125 30.21875 29.109375 22.21875 
Q 21.1875 15.578125 18.9375 13.203125 
Q 16.703125 10.84375 15.234375 8.453125 
z
" id="ArialMT-50"/>
      </defs>
      <g style="fill:#262626;" transform="translate(26.813438 84.92625)scale(0.16 -0.16)">
       <use xlink:href="#ArialMT-50"/>
       <use x="55.615234" xlink:href="#ArialMT-46"/>
       <use x="83.398438" xlink:href="#ArialMT-48"/>
      </g>
     </g>
    </g>
    <g id="text_12">
     <!-- Liczba pasażerów -->
     <defs>
      <path d="M 40.4375 19 
L 49.078125 17.875 
Q 47.65625 8.9375 41.8125 3.875 
Q 35.984375 -1.171875 27.484375 -1.171875 
Q 16.84375 -1.171875 10.375 5.78125 
Q 3.90625 12.75 3.90625 25.734375 
Q 3.90625 34.125 6.6875 40.421875 
Q 9.46875 46.734375 15.15625 49.875 
Q 20.84375 53.03125 27.546875 53.03125 
Q 35.984375 53.03125 41.359375 48.75 
Q 46.734375 44.484375 48.25 36.625 
L 39.703125 35.296875 
Q 38.484375 40.53125 35.375 43.15625 
Q 32.28125 45.796875 27.875 45.796875 
Q 21.234375 45.796875 17.078125 41.03125 
Q 12.9375 36.28125 12.9375 25.984375 
Q 12.9375 15.53125 16.9375 10.796875 
Q 20.953125 6.0625 27.390625 6.0625 
Q 32.5625 6.0625 36.03125 9.234375 
Q 39.5 12.40625 40.4375 19 
z
" id="ArialMT-99"/>
      <path d="M 1.953125 0 
L 1.953125 7.125 
L 34.96875 45.015625 
Q 29.34375 44.734375 25.046875 44.734375 
L 3.90625 44.734375 
L 3.90625 51.859375 
L 46.296875 51.859375 
L 46.296875 46.046875 
L 18.21875 13.140625 
L 12.796875 7.125 
Q 18.703125 7.5625 23.875 7.5625 
L 47.859375 7.5625 
L 47.859375 0 
z
" id="ArialMT-122"/>
      <path d="M 14.703125 0 
L 6.546875 0 
L 6.546875 71.578125 
L 15.328125 71.578125 
L 15.328125 46.046875 
Q 20.90625 53.03125 29.546875 53.03125 
Q 34.328125 53.03125 38.59375 51.09375 
Q 42.875 49.171875 45.625 45.671875 
Q 48.390625 42.1875 49.953125 37.25 
Q 51.515625 32.328125 51.515625 26.703125 
Q 51.515625 13.375 44.921875 6.09375 
Q 38.328125 -1.171875 29.109375 -1.171875 
Q 19.921875 -1.171875 14.703125 6.5 
z
M 14.59375 26.3125 
Q 14.59375 17 17.140625 12.84375 
Q 21.296875 6.0625 28.375 6.0625 
Q 34.125 6.0625 38.328125 11.0625 
Q 42.53125 16.0625 42.53125 25.984375 
Q 42.53125 36.140625 38.5 40.96875 
Q 34.46875 45.796875 28.765625 45.796875 
Q 23 45.796875 18.796875 40.796875 
Q 14.59375 35.796875 14.59375 26.3125 
z
" id="ArialMT-98"/>
      <path d="M 40.4375 6.390625 
Q 35.546875 2.25 31.03125 0.53125 
Q 26.515625 -1.171875 21.34375 -1.171875 
Q 12.796875 -1.171875 8.203125 3 
Q 3.609375 7.171875 3.609375 13.671875 
Q 3.609375 17.484375 5.34375 20.625 
Q 7.078125 23.78125 9.890625 25.6875 
Q 12.703125 27.59375 16.21875 28.5625 
Q 18.796875 29.25 24.03125 29.890625 
Q 34.671875 31.15625 39.703125 32.90625 
Q 39.75 34.71875 39.75 35.203125 
Q 39.75 40.578125 37.25 42.78125 
Q 33.890625 45.75 27.25 45.75 
Q 21.046875 45.75 18.09375 43.578125 
Q 15.140625 41.40625 13.71875 35.890625 
L 5.125 37.0625 
Q 6.296875 42.578125 8.984375 45.96875 
Q 11.671875 49.359375 16.75 51.1875 
Q 21.828125 53.03125 28.515625 53.03125 
Q 35.15625 53.03125 39.296875 51.46875 
Q 43.453125 49.90625 45.40625 47.53125 
Q 47.359375 45.171875 48.140625 41.546875 
Q 48.578125 39.3125 48.578125 33.453125 
L 48.578125 21.734375 
Q 48.578125 9.46875 49.140625 6.21875 
Q 49.703125 2.984375 51.375 0 
L 42.1875 0 
Q 40.828125 2.734375 40.4375 6.390625 
z
M 39.703125 26.03125 
Q 34.90625 24.078125 25.34375 22.703125 
Q 19.921875 21.921875 17.671875 20.9375 
Q 15.4375 19.96875 14.203125 18.09375 
Q 12.984375 16.21875 12.984375 13.921875 
Q 12.984375 10.40625 15.640625 8.0625 
Q 18.3125 5.71875 23.4375 5.71875 
Q 28.515625 5.71875 32.46875 7.9375 
Q 36.421875 10.15625 38.28125 14.015625 
Q 39.703125 17 39.703125 22.796875 
z
" id="ArialMT-97"/>
      <path id="ArialMT-32"/>
      <path d="M 6.59375 -19.875 
L 6.59375 51.859375 
L 14.59375 51.859375 
L 14.59375 45.125 
Q 17.4375 49.078125 21 51.046875 
Q 24.5625 53.03125 29.640625 53.03125 
Q 36.28125 53.03125 41.359375 49.609375 
Q 46.4375 46.1875 49.015625 39.953125 
Q 51.609375 33.734375 51.609375 26.3125 
Q 51.609375 18.359375 48.75 11.984375 
Q 45.90625 5.609375 40.453125 2.21875 
Q 35.015625 -1.171875 29 -1.171875 
Q 24.609375 -1.171875 21.109375 0.6875 
Q 17.625 2.546875 15.375 5.375 
L 15.375 -19.875 
z
M 14.546875 25.640625 
Q 14.546875 15.625 18.59375 10.84375 
Q 22.65625 6.0625 28.421875 6.0625 
Q 34.28125 6.0625 38.453125 11.015625 
Q 42.625 15.96875 42.625 26.375 
Q 42.625 36.28125 38.546875 41.203125 
Q 34.46875 46.140625 28.8125 46.140625 
Q 23.1875 46.140625 18.859375 40.890625 
Q 14.546875 35.640625 14.546875 25.640625 
z
" id="ArialMT-112"/>
      <path d="M 1.953125 0 
L 1.953125 7.125 
L 34.96875 45.015625 
Q 29.34375 44.734375 25.046875 44.734375 
L 3.90625 44.734375 
L 3.90625 51.859375 
L 46.296875 51.859375 
L 46.296875 46.046875 
L 18.21875 13.140625 
L 12.796875 7.125 
Q 18.703125 7.5625 23.875 7.5625 
L 47.859375 7.5625 
L 47.859375 0 
z
M 19.4375 58.296875 
L 19.4375 69.234375 
L 30.328125 69.234375 
L 30.328125 58.296875 
z
" id="ArialMT-380"/>
      <path d="M 42.09375 16.703125 
L 51.171875 15.578125 
Q 49.03125 7.625 43.21875 3.21875 
Q 37.40625 -1.171875 28.375 -1.171875 
Q 17 -1.171875 10.328125 5.828125 
Q 3.65625 12.84375 3.65625 25.484375 
Q 3.65625 38.578125 10.390625 45.796875 
Q 17.140625 53.03125 27.875 53.03125 
Q 38.28125 53.03125 44.875 45.953125 
Q 51.46875 38.875 51.46875 26.03125 
Q 51.46875 25.25 51.421875 23.6875 
L 12.75 23.6875 
Q 13.234375 15.140625 17.578125 10.59375 
Q 21.921875 6.0625 28.421875 6.0625 
Q 33.25 6.0625 36.671875 8.59375 
Q 40.09375 11.140625 42.09375 16.703125 
z
M 13.234375 30.90625 
L 42.1875 30.90625 
Q 41.609375 37.453125 38.875 40.71875 
Q 34.671875 45.796875 27.984375 45.796875 
Q 21.921875 45.796875 17.796875 41.75 
Q 13.671875 37.703125 13.234375 30.90625 
z
" id="ArialMT-101"/>
      <path d="M 6.5 0 
L 6.5 51.859375 
L 14.40625 51.859375 
L 14.40625 44 
Q 17.4375 49.515625 20 51.265625 
Q 22.5625 53.03125 25.640625 53.03125 
Q 30.078125 53.03125 34.671875 50.203125 
L 31.640625 42.046875 
Q 28.421875 43.953125 25.203125 43.953125 
Q 22.3125 43.953125 20.015625 42.21875 
Q 17.71875 40.484375 16.75 37.40625 
Q 15.28125 32.71875 15.28125 27.15625 
L 15.28125 0 
z
" id="ArialMT-114"/>
      <path d="M 3.328125 25.921875 
Q 3.328125 40.328125 11.328125 47.265625 
Q 18.015625 53.03125 27.640625 53.03125 
Q 38.328125 53.03125 45.109375 46.015625 
Q 51.90625 39.015625 51.90625 26.65625 
Q 51.90625 16.65625 48.90625 10.90625 
Q 45.90625 5.171875 40.15625 2 
Q 34.421875 -1.171875 27.640625 -1.171875 
Q 16.75 -1.171875 10.03125 5.8125 
Q 3.328125 12.796875 3.328125 25.921875 
z
M 12.359375 25.921875 
Q 12.359375 15.96875 16.703125 11.015625 
Q 21.046875 6.0625 27.640625 6.0625 
Q 34.1875 6.0625 38.53125 11.03125 
Q 42.875 16.015625 42.875 26.21875 
Q 42.875 35.84375 38.5 40.796875 
Q 34.125 45.75 27.640625 45.75 
Q 21.046875 45.75 16.703125 40.8125 
Q 12.359375 35.890625 12.359375 25.921875 
z
M 22.75 58.296875 
L 29.25 71.96875 
L 40.765625 71.96875 
L 30.03125 58.296875 
z
" id="ArialMT-243"/>
      <path d="M 16.15625 0 
L 0.296875 51.859375 
L 9.375 51.859375 
L 17.625 21.921875 
L 20.703125 10.796875 
Q 20.90625 11.625 23.390625 21.484375 
L 31.640625 51.859375 
L 40.671875 51.859375 
L 48.4375 21.78125 
L 51.03125 11.859375 
L 54 21.875 
L 62.890625 51.859375 
L 71.4375 51.859375 
L 55.21875 0 
L 46.09375 0 
L 37.84375 31.0625 
L 35.84375 39.890625 
L 25.34375 0 
z
" id="ArialMT-119"/>
     </defs>
     <g style="fill:#262626;" transform="translate(19.434688 265.407116)rotate(-90)scale(0.17 -0.17)">
      <use xlink:href="#ArialMT-76"/>
      <use x="55.615234" xlink:href="#ArialMT-105"/>
      <use x="77.832031" xlink:href="#ArialMT-99"/>
      <use x="127.832031" xlink:href="#ArialMT-122"/>
      <use x="177.832031" xlink:href="#ArialMT-98"/>
      <use x="233.447266" xlink:href="#ArialMT-97"/>
      <use x="289.0625" xlink:href="#ArialMT-32"/>
      <use x="316.845703" xlink:href="#ArialMT-112"/>
      <use x="372.460938" xlink:href="#ArialMT-97"/>
      <use x="428.076172" xlink:href="#ArialMT-115"/>
      <use x="478.076172" xlink:href="#ArialMT-97"/>
      <use x="533.691406" xlink:href="#ArialMT-380"/>
      <use x="583.691406" xlink:href="#ArialMT-101"/>
      <use x="639.306641" xlink:href="#ArialMT-114"/>
      <use x="672.607422" xlink:href="#ArialMT-243"/>
      <use x="728.222656" xlink:href="#ArialMT-119"/>
     </g>
    </g>
    <g id="text_13">
     <!-- 1e7 -->
     <defs>
      <path d="M 4.734375 62.203125 
L 4.734375 70.65625 
L 51.078125 70.65625 
L 51.078125 63.8125 
Q 44.234375 56.546875 37.515625 44.484375 
Q 30.8125 32.421875 27.15625 19.671875 
Q 24.515625 10.6875 23.78125 0 
L 14.75 0 
Q 14.890625 8.453125 18.0625 20.40625 
Q 21.234375 32.375 27.171875 43.484375 
Q 33.109375 54.59375 39.796875 62.203125 
z
" id="ArialMT-55"/>
     </defs>
     <g style="fill:#262626;" transform="translate(52.553438 76.2)scale(0.1 -0.1)">
      <use xlink:href="#ArialMT-49"/>
      <use x="55.615234" xlink:href="#ArialMT-101"/>
      <use x="111.230469" xlink:href="#ArialMT-55"/>
     </g>
    </g>
   </g>
   <g id="patch_3">
    <path clip-path="url(#p4df4b73782)" d="M 69.846826 315.547826 
L 81.125123 315.547826 
L 81.125123 245.655071 
L 69.846826 245.655071 
z
" style="fill:#00bfff;stroke:#000000;stroke-linejoin:miter;"/>
   </g>
   <g id="patch_4">
    <path clip-path="url(#p4df4b73782)" d="M 145.035471 315.547826 
L 156.313768 315.547826 
L 156.313768 160.788581 
L 145.035471 160.788581 
z
" style="fill:#00bfff;stroke:#000000;stroke-linejoin:miter;"/>
   </g>
   <g id="patch_5">
    <path clip-path="url(#p4df4b73782)" d="M 220.224117 315.547826 
L 231.502413 315.547826 
L 231.502413 275.062483 
L 220.224117 275.062483 
z
" style="fill:#00bfff;stroke:#000000;stroke-linejoin:miter;"/>
   </g>
   <g id="patch_6">
    <path clip-path="url(#p4df4b73782)" d="M 295.412762 315.547826 
L 306.691059 315.547826 
L 306.691059 276.426187 
L 295.412762 276.426187 
z
" style="fill:#00bfff;stroke:#000000;stroke-linejoin:miter;"/>
   </g>
   <g id="patch_7">
    <path clip-path="url(#p4df4b73782)" d="M 370.601407 315.547826 
L 381.879704 315.547826 
L 381.879704 250.639197 
L 370.601407 250.639197 
z
" style="fill:#00bfff;stroke:#000000;stroke-linejoin:miter;"/>
   </g>
   <g id="patch_8">
    <path clip-path="url(#p4df4b73782)" d="M 81.125123 315.547826 
L 92.40342 315.547826 
L 92.40342 258.33343 
L 81.125123 258.33343 
z
" style="fill:#dc143c;stroke:#000000;stroke-linejoin:miter;"/>
   </g>
   <g id="patch_9">
    <path clip-path="url(#p4df4b73782)" d="M 156.313768 315.547826 
L 167.592065 315.547826 
L 167.592065 198.302027 
L 156.313768 198.302027 
z
" style="fill:#dc143c;stroke:#000000;stroke-linejoin:miter;"/>
   </g>
   <g id="patch_10">
    <path clip-path="url(#p4df4b73782)" d="M 231.502413 315.547826 
L 242.78071 315.547826 
L 242.78071 283.800759 
L 231.502413 283.800759 
z
" style="fill:#dc143c;stroke:#000000;stroke-linejoin:miter;"/>
   </g>
   <g id="patch_11">
    <path clip-path="url(#p4df4b73782)" d="M 306.691059 315.547826 
L 317.969356 315.547826 
L 317.969356 282.52851 
L 306.691059 282.52851 
z
" style="fill:#dc143c;stroke:#000000;stroke-linejoin:miter;"/>
   </g>
   <g id="patch_12">
    <path clip-path="url(#p4df4b73782)" d="M 381.879704 315.547826 
L 393.158001 315.547826 
L 393.158001 258.376622 
L 381.879704 258.376622 
z
" style="fill:#dc143c;stroke:#000000;stroke-linejoin:miter;"/>
   </g>
   <g id="patch_13">
    <path clip-path="url(#p4df4b73782)" d="M 92.40342 315.547826 
L 103.681716 315.547826 
L 103.681716 308.890156 
L 92.40342 308.890156 
z
" style="fill:#adff2f;stroke:#000000;stroke-linejoin:miter;"/>
   </g>
   <g id="patch_14">
    <path clip-path="url(#p4df4b73782)" d="M 167.592065 315.547826 
L 178.870362 315.547826 
L 178.870362 288.851358 
L 167.592065 288.851358 
z
" style="fill:#adff2f;stroke:#000000;stroke-linejoin:miter;"/>
   </g>
   <g id="patch_15">
    <path clip-path="url(#p4df4b73782)" d="M 242.78071 315.547826 
L 254.059007 315.547826 
L 254.059007 313.38028 
L 242.78071 313.38028 
z
" style="fill:#adff2f;stroke:#000000;stroke-linejoin:miter;"/>
   </g>
   <g id="patch_16">
    <path clip-path="url(#p4df4b73782)" d="M 317.969356 315.547826 
L 329.247652 315.547826 
L 329.247652 309.218786 
L 317.969356 309.218786 
z
" style="fill:#adff2f;stroke:#000000;stroke-linejoin:miter;"/>
   </g>
   <g id="patch_17">
    <path clip-path="url(#p4df4b73782)" d="M 393.158001 315.547826 
L 404.436298 315.547826 
L 404.436298 308.452298 
L 393.158001 308.452298 
z
" style="fill:#adff2f;stroke:#000000;stroke-linejoin:miter;"/>
   </g>
   <g id="patch_18">
    <path clip-path="url(#p4df4b73782)" d="M 103.681716 315.547826 
L 114.960013 315.547826 
L 114.960013 281.128409 
L 103.681716 281.128409 
z
" style="fill:#ff69b4;stroke:#000000;stroke-linejoin:miter;"/>
   </g>
   <g id="patch_19">
    <path clip-path="url(#p4df4b73782)" d="M 178.870362 315.547826 
L 190.148658 315.547826 
L 190.148658 237.287176 
L 178.870362 237.287176 
z
" style="fill:#ff69b4;stroke:#000000;stroke-linejoin:miter;"/>
   </g>
   <g id="patch_20">
    <path clip-path="url(#p4df4b73782)" d="M 254.059007 315.547826 
L 265.337304 315.547826 
L 265.337304 295.83468 
L 254.059007 295.83468 
z
" style="fill:#ff69b4;stroke:#000000;stroke-linejoin:miter;"/>
   </g>
   <g id="patch_21">
    <path clip-path="url(#p4df4b73782)" d="M 329.247652 315.547826 
L 340.525949 315.547826 
L 340.525949 293.851285 
L 329.247652 293.851285 
z
" style="fill:#ff69b4;stroke:#000000;stroke-linejoin:miter;"/>
   </g>
   <g id="patch_22">
    <path clip-path="url(#p4df4b73782)" d="M 404.436298 315.547826 
L 415.714595 315.547826 
L 415.714595 258.128197 
L 404.436298 258.128197 
z
" style="fill:#ff69b4;stroke:#000000;stroke-linejoin:miter;"/>
   </g>
   <g id="patch_23">
    <path d="M 52.553438 315.547826 
L 52.553438 79.2 
" style="fill:none;"/>
   </g>
   <g id="patch_24">
    <path d="M 433.007983 315.547826 
L 433.007983 79.2 
" style="fill:none;"/>
   </g>
   <g id="patch_25">
    <path d="M 52.553438 315.547826 
L 433.007983 315.547826 
" style="fill:none;"/>
   </g>
   <g id="patch_26">
    <path d="M 52.553438 79.2 
L 433.007983 79.2 
" style="fill:none;"/>
   </g>
   <g id="text_14">
    <!-- Liczba pasażerów w pierwszym kwartale -->
    <defs>
     <path d="M 6.203125 -19.96875 
L 5.21875 -11.71875 
Q 8.109375 -12.5 10.25 -12.5 
Q 13.1875 -12.5 14.9375 -11.515625 
Q 16.703125 -10.546875 17.828125 -8.796875 
Q 18.65625 -7.46875 20.515625 -2.25 
Q 20.75 -1.515625 21.296875 -0.09375 
L 1.609375 51.859375 
L 11.078125 51.859375 
L 21.875 21.828125 
Q 23.96875 16.109375 25.640625 9.8125 
Q 27.15625 15.875 29.25 21.625 
L 40.328125 51.859375 
L 49.125 51.859375 
L 29.390625 -0.875 
Q 26.21875 -9.421875 24.46875 -12.640625 
Q 22.125 -17 19.09375 -19.015625 
Q 16.0625 -21.046875 11.859375 -21.046875 
Q 9.328125 -21.046875 6.203125 -19.96875 
z
" id="ArialMT-121"/>
     <path d="M 6.59375 0 
L 6.59375 51.859375 
L 14.453125 51.859375 
L 14.453125 44.578125 
Q 16.890625 48.390625 20.9375 50.703125 
Q 25 53.03125 30.171875 53.03125 
Q 35.9375 53.03125 39.625 50.640625 
Q 43.3125 48.25 44.828125 43.953125 
Q 50.984375 53.03125 60.84375 53.03125 
Q 68.5625 53.03125 72.703125 48.75 
Q 76.859375 44.484375 76.859375 35.59375 
L 76.859375 0 
L 68.109375 0 
L 68.109375 32.671875 
Q 68.109375 37.9375 67.25 40.25 
Q 66.40625 42.578125 64.15625 43.984375 
Q 61.921875 45.40625 58.890625 45.40625 
Q 53.421875 45.40625 49.796875 41.765625 
Q 46.1875 38.140625 46.1875 30.125 
L 46.1875 0 
L 37.40625 0 
L 37.40625 33.6875 
Q 37.40625 39.546875 35.25 42.46875 
Q 33.109375 45.40625 28.21875 45.40625 
Q 24.515625 45.40625 21.359375 43.453125 
Q 18.21875 41.5 16.796875 37.734375 
Q 15.375 33.984375 15.375 26.90625 
L 15.375 0 
z
" id="ArialMT-109"/>
     <path d="M 6.390625 0 
L 6.390625 71.578125 
L 15.1875 71.578125 
L 15.1875 0 
z
" id="ArialMT-108"/>
    </defs>
    <g style="fill:#262626;" transform="translate(89.734226 73.2)scale(0.17 -0.17)">
     <use xlink:href="#ArialMT-76"/>
     <use x="55.615234" xlink:href="#ArialMT-105"/>
     <use x="77.832031" xlink:href="#ArialMT-99"/>
     <use x="127.832031" xlink:href="#ArialMT-122"/>
     <use x="177.832031" xlink:href="#ArialMT-98"/>
     <use x="233.447266" xlink:href="#ArialMT-97"/>
     <use x="289.0625" xlink:href="#ArialMT-32"/>
     <use x="316.845703" xlink:href="#ArialMT-112"/>
     <use x="372.460938" xlink:href="#ArialMT-97"/>
     <use x="428.076172" xlink:href="#ArialMT-115"/>
     <use x="478.076172" xlink:href="#ArialMT-97"/>
     <use x="533.691406" xlink:href="#ArialMT-380"/>
     <use x="583.691406" xlink:href="#ArialMT-101"/>
     <use x="639.306641" xlink:href="#ArialMT-114"/>
     <use x="672.607422" xlink:href="#ArialMT-243"/>
     <use x="728.222656" xlink:href="#ArialMT-119"/>
     <use x="800.439453" xlink:href="#ArialMT-32"/>
     <use x="828.222656" xlink:href="#ArialMT-119"/>
     <use x="900.439453" xlink:href="#ArialMT-32"/>
     <use x="928.222656" xlink:href="#ArialMT-112"/>
     <use x="983.837891" xlink:href="#ArialMT-105"/>
     <use x="1006.054688" xlink:href="#ArialMT-101"/>
     <use x="1061.669922" xlink:href="#ArialMT-114"/>
     <use x="1094.970703" xlink:href="#ArialMT-119"/>
     <use x="1167.1875" xlink:href="#ArialMT-115"/>
     <use x="1217.1875" xlink:href="#ArialMT-122"/>
     <use x="1267.1875" xlink:href="#ArialMT-121"/>
     <use x="1317.1875" xlink:href="#ArialMT-109"/>
     <use x="1400.488281" xlink:href="#ArialMT-32"/>
     <use x="1428.271484" xlink:href="#ArialMT-107"/>
     <use x="1478.271484" xlink:href="#ArialMT-119"/>
     <use x="1550.488281" xlink:href="#ArialMT-97"/>
     <use x="1606.103516" xlink:href="#ArialMT-114"/>
     <use x="1639.404297" xlink:href="#ArialMT-116"/>
     <use x="1667.1875" xlink:href="#ArialMT-97"/>
     <use x="1722.802734" xlink:href="#ArialMT-108"/>
     <use x="1745.019531" xlink:href="#ArialMT-101"/>
    </g>
   </g>
   <g id="legend_1">
    <g id="text_15">
     <!-- Rok -->
     <defs>
      <path d="M 7.859375 0 
L 7.859375 71.578125 
L 39.59375 71.578125 
Q 49.171875 71.578125 54.140625 69.640625 
Q 59.125 67.71875 62.109375 62.828125 
Q 65.09375 57.953125 65.09375 52.046875 
Q 65.09375 44.4375 60.15625 39.203125 
Q 55.21875 33.984375 44.921875 32.5625 
Q 48.6875 30.765625 50.640625 29 
Q 54.78125 25.203125 58.5 19.484375 
L 70.953125 0 
L 59.03125 0 
L 49.5625 14.890625 
Q 45.40625 21.34375 42.71875 24.75 
Q 40.046875 28.171875 37.921875 29.53125 
Q 35.796875 30.90625 33.59375 31.453125 
Q 31.984375 31.78125 28.328125 31.78125 
L 17.328125 31.78125 
L 17.328125 0 
z
M 17.328125 39.984375 
L 37.703125 39.984375 
Q 44.1875 39.984375 47.84375 41.328125 
Q 51.515625 42.671875 53.421875 45.625 
Q 55.328125 48.578125 55.328125 52.046875 
Q 55.328125 57.125 51.640625 60.390625 
Q 47.953125 63.671875 39.984375 63.671875 
L 17.328125 63.671875 
z
" id="ArialMT-82"/>
     </defs>
     <g style="fill:#262626;" transform="translate(440.719865 685.720455)scale(0.17 -0.17)">
      <use xlink:href="#ArialMT-82"/>
      <use x="72.216797" xlink:href="#ArialMT-111"/>
      <use x="127.832031" xlink:href="#ArialMT-107"/>
     </g>
    </g>
    <g id="patch_27">
     <path d="M 234.006506 709.767486 
L 268.006506 709.767486 
L 268.006506 697.867486 
L 234.006506 697.867486 
z
" style="fill:#00bfff;stroke:#000000;stroke-linejoin:miter;"/>
    </g>
    <g id="text_16">
     <!-- 2019 -->
     <defs>
      <path d="M 5.46875 16.546875 
L 13.921875 17.328125 
Q 14.984375 11.375 18.015625 8.6875 
Q 21.046875 6 25.78125 6 
Q 29.828125 6 32.875 7.859375 
Q 35.9375 9.71875 37.890625 12.8125 
Q 39.84375 15.921875 41.15625 21.1875 
Q 42.484375 26.46875 42.484375 31.9375 
Q 42.484375 32.515625 42.4375 33.6875 
Q 39.796875 29.5 35.234375 26.875 
Q 30.671875 24.265625 25.34375 24.265625 
Q 16.453125 24.265625 10.296875 30.703125 
Q 4.15625 37.15625 4.15625 47.703125 
Q 4.15625 58.59375 10.578125 65.234375 
Q 17 71.875 26.65625 71.875 
Q 33.640625 71.875 39.421875 68.109375 
Q 45.21875 64.359375 48.21875 57.390625 
Q 51.21875 50.4375 51.21875 37.25 
Q 51.21875 23.53125 48.234375 15.40625 
Q 45.265625 7.28125 39.375 3.03125 
Q 33.5 -1.21875 25.59375 -1.21875 
Q 17.1875 -1.21875 11.859375 3.4375 
Q 6.546875 8.109375 5.46875 16.546875 
z
M 41.453125 48.140625 
Q 41.453125 55.71875 37.421875 60.15625 
Q 33.40625 64.59375 27.734375 64.59375 
Q 21.875 64.59375 17.53125 59.8125 
Q 13.1875 55.03125 13.1875 47.40625 
Q 13.1875 40.578125 17.3125 36.296875 
Q 21.4375 32.03125 27.484375 32.03125 
Q 33.59375 32.03125 37.515625 36.296875 
Q 41.453125 40.578125 41.453125 48.140625 
z
" id="ArialMT-57"/>
     </defs>
     <g style="fill:#262626;" transform="translate(281.606506 709.767486)scale(0.17 -0.17)">
      <use xlink:href="#ArialMT-50"/>
      <use x="55.615234" xlink:href="#ArialMT-48"/>
      <use x="111.230469" xlink:href="#ArialMT-49"/>
      <use x="166.845703" xlink:href="#ArialMT-57"/>
     </g>
    </g>
    <g id="patch_28">
     <path d="M 353.420881 709.767486 
L 387.420881 709.767486 
L 387.420881 697.867486 
L 353.420881 697.867486 
z
" style="fill:#dc143c;stroke:#000000;stroke-linejoin:miter;"/>
    </g>
    <g id="text_17">
     <!-- 2020 -->
     <g style="fill:#262626;" transform="translate(401.020881 709.767486)scale(0.17 -0.17)">
      <use xlink:href="#ArialMT-50"/>
      <use x="55.615234" xlink:href="#ArialMT-48"/>
      <use x="111.230469" xlink:href="#ArialMT-50"/>
      <use x="166.845703" xlink:href="#ArialMT-48"/>
     </g>
    </g>
    <g id="patch_29">
     <path d="M 472.835256 709.767486 
L 506.835256 709.767486 
L 506.835256 697.867486 
L 472.835256 697.867486 
z
" style="fill:#adff2f;stroke:#000000;stroke-linejoin:miter;"/>
    </g>
    <g id="text_18">
     <!-- 2021 -->
     <g style="fill:#262626;" transform="translate(520.435256 709.767486)scale(0.17 -0.17)">
      <use xlink:href="#ArialMT-50"/>
      <use x="55.615234" xlink:href="#ArialMT-48"/>
      <use x="111.230469" xlink:href="#ArialMT-50"/>
      <use x="166.845703" xlink:href="#ArialMT-49"/>
     </g>
    </g>
    <g id="patch_30">
     <path d="M 592.249631 709.767486 
L 626.249631 709.767486 
L 626.249631 697.867486 
L 592.249631 697.867486 
z
" style="fill:#ff69b4;stroke:#000000;stroke-linejoin:miter;"/>
    </g>
    <g id="text_19">
     <!-- 2022 -->
     <g style="fill:#262626;" transform="translate(639.849631 709.767486)scale(0.17 -0.17)">
      <use xlink:href="#ArialMT-50"/>
      <use x="55.615234" xlink:href="#ArialMT-48"/>
      <use x="111.230469" xlink:href="#ArialMT-50"/>
      <use x="166.845703" xlink:href="#ArialMT-50"/>
     </g>
    </g>
   </g>
  </g>
  <g id="axes_2">
   <g id="patch_31">
    <path d="M 509.098892 315.547826 
L 889.553437 315.547826 
L 889.553437 79.2 
L 509.098892 79.2 
z
" style="fill:#eaeaf2;"/>
   </g>
   <g id="matplotlib.axis_3">
    <g id="xtick_6">
     <g id="line2d_21">
      <path clip-path="url(#pee968e7e62)" d="M 554.588022 315.547826 
L 554.588022 79.2 
" style="fill:none;stroke:#ffffff;stroke-linecap:round;stroke-width:0.8;"/>
     </g>
     <g id="line2d_22"/>
     <g id="text_20">
      <!-- AT_LOWW -->
      <g style="fill:#262626;" transform="translate(519.714897 329.248139)scale(0.14 -0.14)">
       <use xlink:href="#ArialMT-65"/>
       <use x="59.324219" xlink:href="#ArialMT-84"/>
       <use x="120.408203" xlink:href="#ArialMT-95"/>
       <use x="176.023438" xlink:href="#ArialMT-76"/>
       <use x="231.638672" xlink:href="#ArialMT-79"/>
       <use x="309.421875" xlink:href="#ArialMT-87"/>
       <use x="403.806641" xlink:href="#ArialMT-87"/>
      </g>
     </g>
    </g>
    <g id="xtick_7">
     <g id="line2d_23">
      <path clip-path="url(#pee968e7e62)" d="M 629.776668 315.547826 
L 629.776668 79.2 
" style="fill:none;stroke:#ffffff;stroke-linecap:round;stroke-width:0.8;"/>
     </g>
     <g id="line2d_24"/>
     <g id="text_21">
      <!-- DE_EDDF -->
      <g style="fill:#262626;" transform="translate(597.104168 329.068764)scale(0.14 -0.14)">
       <use xlink:href="#ArialMT-68"/>
       <use x="72.216797" xlink:href="#ArialMT-69"/>
       <use x="138.916016" xlink:href="#ArialMT-95"/>
       <use x="194.53125" xlink:href="#ArialMT-69"/>
       <use x="261.230469" xlink:href="#ArialMT-68"/>
       <use x="333.447266" xlink:href="#ArialMT-68"/>
       <use x="405.664062" xlink:href="#ArialMT-70"/>
      </g>
     </g>
    </g>
    <g id="xtick_8">
     <g id="line2d_25">
      <path clip-path="url(#pee968e7e62)" d="M 704.965313 315.547826 
L 704.965313 79.2 
" style="fill:none;stroke:#ffffff;stroke-linecap:round;stroke-width:0.8;"/>
     </g>
     <g id="line2d_26"/>
     <g id="text_22">
      <!-- NO_ENGM -->
      <g style="fill:#262626;" transform="translate(669.572657 329.248139)scale(0.14 -0.14)">
       <use xlink:href="#ArialMT-78"/>
       <use x="72.216797" xlink:href="#ArialMT-79"/>
       <use x="150" xlink:href="#ArialMT-95"/>
       <use x="205.615234" xlink:href="#ArialMT-69"/>
       <use x="272.314453" xlink:href="#ArialMT-78"/>
       <use x="344.53125" xlink:href="#ArialMT-71"/>
       <use x="422.314453" xlink:href="#ArialMT-77"/>
      </g>
     </g>
    </g>
    <g id="xtick_9">
     <g id="line2d_27">
      <path clip-path="url(#pee968e7e62)" d="M 780.153959 315.547826 
L 780.153959 79.2 
" style="fill:none;stroke:#ffffff;stroke-linecap:round;stroke-width:0.8;"/>
     </g>
     <g id="line2d_28"/>
     <g id="text_23">
      <!-- PL_EPWA -->
      <g style="fill:#262626;" transform="translate(747.346927 329.068764)scale(0.14 -0.14)">
       <use xlink:href="#ArialMT-80"/>
       <use x="66.699219" xlink:href="#ArialMT-76"/>
       <use x="122.314453" xlink:href="#ArialMT-95"/>
       <use x="177.929688" xlink:href="#ArialMT-69"/>
       <use x="244.628906" xlink:href="#ArialMT-80"/>
       <use x="311.328125" xlink:href="#ArialMT-87"/>
       <use x="401.962891" xlink:href="#ArialMT-65"/>
      </g>
     </g>
    </g>
    <g id="xtick_10">
     <g id="line2d_29">
      <path clip-path="url(#pee968e7e62)" d="M 855.342604 315.547826 
L 855.342604 79.2 
" style="fill:none;stroke:#ffffff;stroke-linecap:round;stroke-width:0.8;"/>
     </g>
     <g id="line2d_30"/>
     <g id="text_24">
      <!-- PT_LPPT -->
      <g style="fill:#262626;" transform="translate(824.998698 329.068764)scale(0.14 -0.14)">
       <use xlink:href="#ArialMT-80"/>
       <use x="66.699219" xlink:href="#ArialMT-84"/>
       <use x="127.783203" xlink:href="#ArialMT-95"/>
       <use x="183.398438" xlink:href="#ArialMT-76"/>
       <use x="239.013672" xlink:href="#ArialMT-80"/>
       <use x="305.712891" xlink:href="#ArialMT-80"/>
       <use x="372.412109" xlink:href="#ArialMT-84"/>
      </g>
     </g>
    </g>
    <g id="text_25">
     <!-- Lotnisko -->
     <g style="fill:#262626;" transform="translate(667.668977 348.19892)scale(0.17 -0.17)">
      <use xlink:href="#ArialMT-76"/>
      <use x="55.615234" xlink:href="#ArialMT-111"/>
      <use x="111.230469" xlink:href="#ArialMT-116"/>
      <use x="139.013672" xlink:href="#ArialMT-110"/>
      <use x="194.628906" xlink:href="#ArialMT-105"/>
      <use x="216.845703" xlink:href="#ArialMT-115"/>
      <use x="266.845703" xlink:href="#ArialMT-107"/>
      <use x="316.845703" xlink:href="#ArialMT-111"/>
     </g>
    </g>
   </g>
   <g id="matplotlib.axis_4">
    <g id="ytick_6">
     <g id="line2d_31">
      <path clip-path="url(#pee968e7e62)" d="M 509.098892 315.547826 
L 889.553437 315.547826 
" style="fill:none;stroke:#ffffff;stroke-linecap:round;stroke-width:0.8;"/>
     </g>
     <g id="line2d_32"/>
     <g id="text_26">
      <!-- 0.0 -->
      <g style="fill:#262626;" transform="translate(483.358892 321.274076)scale(0.16 -0.16)">
       <use xlink:href="#ArialMT-48"/>
       <use x="55.615234" xlink:href="#ArialMT-46"/>
       <use x="83.398438" xlink:href="#ArialMT-48"/>
      </g>
     </g>
    </g>
    <g id="ytick_7">
     <g id="line2d_33">
      <path clip-path="url(#pee968e7e62)" d="M 509.098892 256.46087 
L 889.553437 256.46087 
" style="fill:none;stroke:#ffffff;stroke-linecap:round;stroke-width:0.8;"/>
     </g>
     <g id="line2d_34"/>
     <g id="text_27">
      <!-- 0.5 -->
      <g style="fill:#262626;" transform="translate(483.358892 262.18712)scale(0.16 -0.16)">
       <use xlink:href="#ArialMT-48"/>
       <use x="55.615234" xlink:href="#ArialMT-46"/>
       <use x="83.398438" xlink:href="#ArialMT-53"/>
      </g>
     </g>
    </g>
    <g id="ytick_8">
     <g id="line2d_35">
      <path clip-path="url(#pee968e7e62)" d="M 509.098892 197.373913 
L 889.553437 197.373913 
" style="fill:none;stroke:#ffffff;stroke-linecap:round;stroke-width:0.8;"/>
     </g>
     <g id="line2d_36"/>
     <g id="text_28">
      <!-- 1.0 -->
      <g style="fill:#262626;" transform="translate(483.358892 203.100163)scale(0.16 -0.16)">
       <use xlink:href="#ArialMT-49"/>
       <use x="55.615234" xlink:href="#ArialMT-46"/>
       <use x="83.398438" xlink:href="#ArialMT-48"/>
      </g>
     </g>
    </g>
    <g id="ytick_9">
     <g id="line2d_37">
      <path clip-path="url(#pee968e7e62)" d="M 509.098892 138.286957 
L 889.553437 138.286957 
" style="fill:none;stroke:#ffffff;stroke-linecap:round;stroke-width:0.8;"/>
     </g>
     <g id="line2d_38"/>
     <g id="text_29">
      <!-- 1.5 -->
      <g style="fill:#262626;" transform="translate(483.358892 144.013207)scale(0.16 -0.16)">
       <use xlink:href="#ArialMT-49"/>
       <use x="55.615234" xlink:href="#ArialMT-46"/>
       <use x="83.398438" xlink:href="#ArialMT-53"/>
      </g>
     </g>
    </g>
    <g id="ytick_10">
     <g id="line2d_39">
      <path clip-path="url(#pee968e7e62)" d="M 509.098892 79.2 
L 889.553437 79.2 
" style="fill:none;stroke:#ffffff;stroke-linecap:round;stroke-width:0.8;"/>
     </g>
     <g id="line2d_40"/>
     <g id="text_30">
      <!-- 2.0 -->
      <g style="fill:#262626;" transform="translate(483.358892 84.92625)scale(0.16 -0.16)">
       <use xlink:href="#ArialMT-50"/>
       <use x="55.615234" xlink:href="#ArialMT-46"/>
       <use x="83.398438" xlink:href="#ArialMT-48"/>
      </g>
     </g>
    </g>
    <g id="text_31">
     <!-- Liczba pasażerów -->
     <g style="fill:#262626;" transform="translate(475.980142 265.407116)rotate(-90)scale(0.17 -0.17)">
      <use xlink:href="#ArialMT-76"/>
      <use x="55.615234" xlink:href="#ArialMT-105"/>
      <use x="77.832031" xlink:href="#ArialMT-99"/>
      <use x="127.832031" xlink:href="#ArialMT-122"/>
      <use x="177.832031" xlink:href="#ArialMT-98"/>
      <use x="233.447266" xlink:href="#ArialMT-97"/>
      <use x="289.0625" xlink:href="#ArialMT-32"/>
      <use x="316.845703" xlink:href="#ArialMT-112"/>
      <use x="372.460938" xlink:href="#ArialMT-97"/>
      <use x="428.076172" xlink:href="#ArialMT-115"/>
      <use x="478.076172" xlink:href="#ArialMT-97"/>
      <use x="533.691406" xlink:href="#ArialMT-380"/>
      <use x="583.691406" xlink:href="#ArialMT-101"/>
      <use x="639.306641" xlink:href="#ArialMT-114"/>
      <use x="672.607422" xlink:href="#ArialMT-243"/>
      <use x="728.222656" xlink:href="#ArialMT-119"/>
     </g>
    </g>
    <g id="text_32">
     <!-- 1e7 -->
     <g style="fill:#262626;" transform="translate(509.098892 76.2)scale(0.1 -0.1)">
      <use xlink:href="#ArialMT-49"/>
      <use x="55.615234" xlink:href="#ArialMT-101"/>
      <use x="111.230469" xlink:href="#ArialMT-55"/>
     </g>
    </g>
   </g>
   <g id="patch_32">
    <path clip-path="url(#pee968e7e62)" d="M 526.39228 315.547826 
L 537.670577 315.547826 
L 537.670577 215.947224 
L 526.39228 215.947224 
z
" style="fill:#00bfff;stroke:#000000;stroke-linejoin:miter;"/>
   </g>
   <g id="patch_33">
    <path clip-path="url(#pee968e7e62)" d="M 601.580926 315.547826 
L 612.859223 315.547826 
L 612.859223 116.180883 
L 601.580926 116.180883 
z
" style="fill:#00bfff;stroke:#000000;stroke-linejoin:miter;"/>
   </g>
   <g id="patch_34">
    <path clip-path="url(#pee968e7e62)" d="M 676.769571 315.547826 
L 688.047868 315.547826 
L 688.047868 263.885512 
L 676.769571 263.885512 
z
" style="fill:#00bfff;stroke:#000000;stroke-linejoin:miter;"/>
   </g>
   <g id="patch_35">
    <path clip-path="url(#pee968e7e62)" d="M 751.958217 315.547826 
L 763.236513 315.547826 
L 763.236513 262.920953 
L 751.958217 262.920953 
z
" style="fill:#00bfff;stroke:#000000;stroke-linejoin:miter;"/>
   </g>
   <g id="patch_36">
    <path clip-path="url(#pee968e7e62)" d="M 827.146862 315.547826 
L 838.425159 315.547826 
L 838.425159 228.015676 
L 827.146862 228.015676 
z
" style="fill:#00bfff;stroke:#000000;stroke-linejoin:miter;"/>
   </g>
   <g id="patch_37">
    <path clip-path="url(#pee968e7e62)" d="M 537.670577 315.547826 
L 548.948874 315.547826 
L 548.948874 313.523495 
L 537.670577 313.523495 
z
" style="fill:#dc143c;stroke:#000000;stroke-linejoin:miter;"/>
   </g>
   <g id="patch_38">
    <path clip-path="url(#pee968e7e62)" d="M 612.859223 315.547826 
L 624.137519 315.547826 
L 624.137519 304.478736 
L 612.859223 304.478736 
z
" style="fill:#dc143c;stroke:#000000;stroke-linejoin:miter;"/>
   </g>
   <g id="patch_39">
    <path clip-path="url(#pee968e7e62)" d="M 688.047868 315.547826 
L 699.326165 315.547826 
L 699.326165 314.213973 
L 688.047868 314.213973 
z
" style="fill:#dc143c;stroke:#000000;stroke-linejoin:miter;"/>
   </g>
   <g id="patch_40">
    <path clip-path="url(#pee968e7e62)" d="M 763.236513 315.547826 
L 774.51481 315.547826 
L 774.51481 315.032198 
L 763.236513 315.032198 
z
" style="fill:#dc143c;stroke:#000000;stroke-linejoin:miter;"/>
   </g>
   <g id="patch_41">
    <path clip-path="url(#pee968e7e62)" d="M 838.425159 315.547826 
L 849.703455 315.547826 
L 849.703455 312.905505 
L 838.425159 312.905505 
z
" style="fill:#dc143c;stroke:#000000;stroke-linejoin:miter;"/>
   </g>
   <g id="patch_42">
    <path clip-path="url(#pee968e7e62)" d="M 548.948874 315.547826 
L 560.227171 315.547826 
L 560.227171 299.193112 
L 548.948874 299.193112 
z
" style="fill:#adff2f;stroke:#000000;stroke-linejoin:miter;"/>
   </g>
   <g id="patch_43">
    <path clip-path="url(#pee968e7e62)" d="M 624.137519 315.547826 
L 635.415816 315.547826 
L 635.415816 272.267883 
L 624.137519 272.267883 
z
" style="fill:#adff2f;stroke:#000000;stroke-linejoin:miter;"/>
   </g>
   <g id="patch_44">
    <path clip-path="url(#pee968e7e62)" d="M 699.326165 315.547826 
L 710.604462 315.547826 
L 710.604462 312.976362 
L 699.326165 312.976362 
z
" style="fill:#adff2f;stroke:#000000;stroke-linejoin:miter;"/>
   </g>
   <g id="patch_45">
    <path clip-path="url(#pee968e7e62)" d="M 774.51481 315.547826 
L 785.793107 315.547826 
L 785.793107 302.100415 
L 774.51481 302.100415 
z
" style="fill:#adff2f;stroke:#000000;stroke-linejoin:miter;"/>
   </g>
   <g id="patch_46">
    <path clip-path="url(#pee968e7e62)" d="M 849.703455 315.547826 
L 860.981752 315.547826 
L 860.981752 298.781843 
L 849.703455 298.781843 
z
" style="fill:#adff2f;stroke:#000000;stroke-linejoin:miter;"/>
   </g>
   <g id="patch_47">
    <path clip-path="url(#pee968e7e62)" d="M 560.227171 315.547826 
L 571.505468 315.547826 
L 571.505468 241.488932 
L 560.227171 241.488932 
z
" style="fill:#ff69b4;stroke:#000000;stroke-linejoin:miter;"/>
   </g>
   <g id="patch_48">
    <path clip-path="url(#pee968e7e62)" d="M 635.415816 315.547826 
L 646.694113 315.547826 
L 646.694113 170.039259 
L 635.415816 170.039259 
z
" style="fill:#ff69b4;stroke:#000000;stroke-linejoin:miter;"/>
   </g>
   <g id="patch_49">
    <path clip-path="url(#pee968e7e62)" d="M 710.604462 315.547826 
L 721.882758 315.547826 
L 721.882758 274.597481 
L 710.604462 274.597481 
z
" style="fill:#ff69b4;stroke:#000000;stroke-linejoin:miter;"/>
   </g>
   <g id="patch_50">
    <path clip-path="url(#pee968e7e62)" d="M 785.793107 315.547826 
L 797.071404 315.547826 
L 797.071404 275.173319 
L 785.793107 275.173319 
z
" style="fill:#ff69b4;stroke:#000000;stroke-linejoin:miter;"/>
   </g>
   <g id="patch_51">
    <path clip-path="url(#pee968e7e62)" d="M 860.981752 315.547826 
L 872.260049 315.547826 
L 872.260049 221.354283 
L 860.981752 221.354283 
z
" style="fill:#ff69b4;stroke:#000000;stroke-linejoin:miter;"/>
   </g>
   <g id="patch_52">
    <path d="M 509.098892 315.547826 
L 509.098892 79.2 
" style="fill:none;"/>
   </g>
   <g id="patch_53">
    <path d="M 889.553437 315.547826 
L 889.553437 79.2 
" style="fill:none;"/>
   </g>
   <g id="patch_54">
    <path d="M 509.098892 315.547826 
L 889.553437 315.547826 
" style="fill:none;"/>
   </g>
   <g id="patch_55">
    <path d="M 509.098892 79.2 
L 889.553437 79.2 
" style="fill:none;"/>
   </g>
   <g id="text_33">
    <!-- Liczba pasażerów w drugim kwartale -->
    <defs>
     <path d="M 40.234375 0 
L 40.234375 6.546875 
Q 35.296875 -1.171875 25.734375 -1.171875 
Q 19.53125 -1.171875 14.328125 2.25 
Q 9.125 5.671875 6.265625 11.796875 
Q 3.421875 17.921875 3.421875 25.875 
Q 3.421875 33.640625 6 39.96875 
Q 8.59375 46.296875 13.765625 49.65625 
Q 18.953125 53.03125 25.34375 53.03125 
Q 30.03125 53.03125 33.6875 51.046875 
Q 37.359375 49.078125 39.65625 45.90625 
L 39.65625 71.578125 
L 48.390625 71.578125 
L 48.390625 0 
z
M 12.453125 25.875 
Q 12.453125 15.921875 16.640625 10.984375 
Q 20.84375 6.0625 26.5625 6.0625 
Q 32.328125 6.0625 36.34375 10.765625 
Q 40.375 15.484375 40.375 25.140625 
Q 40.375 35.796875 36.265625 40.765625 
Q 32.171875 45.75 26.171875 45.75 
Q 20.3125 45.75 16.375 40.96875 
Q 12.453125 36.1875 12.453125 25.875 
z
" id="ArialMT-100"/>
     <path d="M 40.578125 0 
L 40.578125 7.625 
Q 34.515625 -1.171875 24.125 -1.171875 
Q 19.53125 -1.171875 15.546875 0.578125 
Q 11.578125 2.34375 9.640625 5 
Q 7.71875 7.671875 6.9375 11.53125 
Q 6.390625 14.109375 6.390625 19.734375 
L 6.390625 51.859375 
L 15.1875 51.859375 
L 15.1875 23.09375 
Q 15.1875 16.21875 15.71875 13.8125 
Q 16.546875 10.359375 19.234375 8.375 
Q 21.921875 6.390625 25.875 6.390625 
Q 29.828125 6.390625 33.296875 8.421875 
Q 36.765625 10.453125 38.203125 13.9375 
Q 39.65625 17.4375 39.65625 24.078125 
L 39.65625 51.859375 
L 48.4375 51.859375 
L 48.4375 0 
z
" id="ArialMT-117"/>
     <path d="M 4.984375 -4.296875 
L 13.53125 -5.5625 
Q 14.0625 -9.515625 16.5 -11.328125 
Q 19.78125 -13.765625 25.4375 -13.765625 
Q 31.546875 -13.765625 34.859375 -11.328125 
Q 38.1875 -8.890625 39.359375 -4.5 
Q 40.046875 -1.8125 39.984375 6.78125 
Q 34.234375 0 25.640625 0 
Q 14.9375 0 9.078125 7.71875 
Q 3.21875 15.4375 3.21875 26.21875 
Q 3.21875 33.640625 5.90625 39.90625 
Q 8.59375 46.1875 13.6875 49.609375 
Q 18.796875 53.03125 25.6875 53.03125 
Q 34.859375 53.03125 40.828125 45.609375 
L 40.828125 51.859375 
L 48.921875 51.859375 
L 48.921875 7.03125 
Q 48.921875 -5.078125 46.453125 -10.125 
Q 44 -15.1875 38.640625 -18.109375 
Q 33.296875 -21.046875 25.484375 -21.046875 
Q 16.21875 -21.046875 10.5 -16.875 
Q 4.78125 -12.703125 4.984375 -4.296875 
z
M 12.25 26.859375 
Q 12.25 16.65625 16.296875 11.96875 
Q 20.359375 7.28125 26.46875 7.28125 
Q 32.515625 7.28125 36.609375 11.9375 
Q 40.71875 16.609375 40.71875 26.5625 
Q 40.71875 36.078125 36.5 40.90625 
Q 32.28125 45.75 26.3125 45.75 
Q 20.453125 45.75 16.34375 40.984375 
Q 12.25 36.234375 12.25 26.859375 
z
" id="ArialMT-103"/>
    </defs>
    <g style="fill:#262626;" transform="translate(560.441477 73.2)scale(0.17 -0.17)">
     <use xlink:href="#ArialMT-76"/>
     <use x="55.615234" xlink:href="#ArialMT-105"/>
     <use x="77.832031" xlink:href="#ArialMT-99"/>
     <use x="127.832031" xlink:href="#ArialMT-122"/>
     <use x="177.832031" xlink:href="#ArialMT-98"/>
     <use x="233.447266" xlink:href="#ArialMT-97"/>
     <use x="289.0625" xlink:href="#ArialMT-32"/>
     <use x="316.845703" xlink:href="#ArialMT-112"/>
     <use x="372.460938" xlink:href="#ArialMT-97"/>
     <use x="428.076172" xlink:href="#ArialMT-115"/>
     <use x="478.076172" xlink:href="#ArialMT-97"/>
     <use x="533.691406" xlink:href="#ArialMT-380"/>
     <use x="583.691406" xlink:href="#ArialMT-101"/>
     <use x="639.306641" xlink:href="#ArialMT-114"/>
     <use x="672.607422" xlink:href="#ArialMT-243"/>
     <use x="728.222656" xlink:href="#ArialMT-119"/>
     <use x="800.439453" xlink:href="#ArialMT-32"/>
     <use x="828.222656" xlink:href="#ArialMT-119"/>
     <use x="900.439453" xlink:href="#ArialMT-32"/>
     <use x="928.222656" xlink:href="#ArialMT-100"/>
     <use x="983.837891" xlink:href="#ArialMT-114"/>
     <use x="1017.138672" xlink:href="#ArialMT-117"/>
     <use x="1072.753906" xlink:href="#ArialMT-103"/>
     <use x="1128.369141" xlink:href="#ArialMT-105"/>
     <use x="1150.585938" xlink:href="#ArialMT-109"/>
     <use x="1233.886719" xlink:href="#ArialMT-32"/>
     <use x="1261.669922" xlink:href="#ArialMT-107"/>
     <use x="1311.669922" xlink:href="#ArialMT-119"/>
     <use x="1383.886719" xlink:href="#ArialMT-97"/>
     <use x="1439.501953" xlink:href="#ArialMT-114"/>
     <use x="1472.802734" xlink:href="#ArialMT-116"/>
     <use x="1500.585938" xlink:href="#ArialMT-97"/>
     <use x="1556.201172" xlink:href="#ArialMT-108"/>
     <use x="1578.417969" xlink:href="#ArialMT-101"/>
    </g>
   </g>
  </g>
  <g id="axes_3">
   <g id="patch_56">
    <path d="M 52.553438 622.8 
L 433.007983 622.8 
L 433.007983 386.452174 
L 52.553438 386.452174 
z
" style="fill:#eaeaf2;"/>
   </g>
   <g id="matplotlib.axis_5">
    <g id="xtick_11">
     <g id="line2d_41">
      <path clip-path="url(#p7370b71b04)" d="M 98.042568 622.8 
L 98.042568 386.452174 
" style="fill:none;stroke:#ffffff;stroke-linecap:round;stroke-width:0.8;"/>
     </g>
     <g id="line2d_42"/>
     <g id="text_34">
      <!-- AT_LOWW -->
      <g style="fill:#262626;" transform="translate(63.169443 636.500313)scale(0.14 -0.14)">
       <use xlink:href="#ArialMT-65"/>
       <use x="59.324219" xlink:href="#ArialMT-84"/>
       <use x="120.408203" xlink:href="#ArialMT-95"/>
       <use x="176.023438" xlink:href="#ArialMT-76"/>
       <use x="231.638672" xlink:href="#ArialMT-79"/>
       <use x="309.421875" xlink:href="#ArialMT-87"/>
       <use x="403.806641" xlink:href="#ArialMT-87"/>
      </g>
     </g>
    </g>
    <g id="xtick_12">
     <g id="line2d_43">
      <path clip-path="url(#p7370b71b04)" d="M 173.231213 622.8 
L 173.231213 386.452174 
" style="fill:none;stroke:#ffffff;stroke-linecap:round;stroke-width:0.8;"/>
     </g>
     <g id="line2d_44"/>
     <g id="text_35">
      <!-- DE_EDDF -->
      <g style="fill:#262626;" transform="translate(140.558713 636.320938)scale(0.14 -0.14)">
       <use xlink:href="#ArialMT-68"/>
       <use x="72.216797" xlink:href="#ArialMT-69"/>
       <use x="138.916016" xlink:href="#ArialMT-95"/>
       <use x="194.53125" xlink:href="#ArialMT-69"/>
       <use x="261.230469" xlink:href="#ArialMT-68"/>
       <use x="333.447266" xlink:href="#ArialMT-68"/>
       <use x="405.664062" xlink:href="#ArialMT-70"/>
      </g>
     </g>
    </g>
    <g id="xtick_13">
     <g id="line2d_45">
      <path clip-path="url(#p7370b71b04)" d="M 248.419859 622.8 
L 248.419859 386.452174 
" style="fill:none;stroke:#ffffff;stroke-linecap:round;stroke-width:0.8;"/>
     </g>
     <g id="line2d_46"/>
     <g id="text_36">
      <!-- NO_ENGM -->
      <g style="fill:#262626;" transform="translate(213.027202 636.500313)scale(0.14 -0.14)">
       <use xlink:href="#ArialMT-78"/>
       <use x="72.216797" xlink:href="#ArialMT-79"/>
       <use x="150" xlink:href="#ArialMT-95"/>
       <use x="205.615234" xlink:href="#ArialMT-69"/>
       <use x="272.314453" xlink:href="#ArialMT-78"/>
       <use x="344.53125" xlink:href="#ArialMT-71"/>
       <use x="422.314453" xlink:href="#ArialMT-77"/>
      </g>
     </g>
    </g>
    <g id="xtick_14">
     <g id="line2d_47">
      <path clip-path="url(#p7370b71b04)" d="M 323.608504 622.8 
L 323.608504 386.452174 
" style="fill:none;stroke:#ffffff;stroke-linecap:round;stroke-width:0.8;"/>
     </g>
     <g id="line2d_48"/>
     <g id="text_37">
      <!-- PL_EPWA -->
      <g style="fill:#262626;" transform="translate(290.801473 636.320938)scale(0.14 -0.14)">
       <use xlink:href="#ArialMT-80"/>
       <use x="66.699219" xlink:href="#ArialMT-76"/>
       <use x="122.314453" xlink:href="#ArialMT-95"/>
       <use x="177.929688" xlink:href="#ArialMT-69"/>
       <use x="244.628906" xlink:href="#ArialMT-80"/>
       <use x="311.328125" xlink:href="#ArialMT-87"/>
       <use x="401.962891" xlink:href="#ArialMT-65"/>
      </g>
     </g>
    </g>
    <g id="xtick_15">
     <g id="line2d_49">
      <path clip-path="url(#p7370b71b04)" d="M 398.797149 622.8 
L 398.797149 386.452174 
" style="fill:none;stroke:#ffffff;stroke-linecap:round;stroke-width:0.8;"/>
     </g>
     <g id="line2d_50"/>
     <g id="text_38">
      <!-- PT_LPPT -->
      <g style="fill:#262626;" transform="translate(368.453243 636.320938)scale(0.14 -0.14)">
       <use xlink:href="#ArialMT-80"/>
       <use x="66.699219" xlink:href="#ArialMT-84"/>
       <use x="127.783203" xlink:href="#ArialMT-95"/>
       <use x="183.398438" xlink:href="#ArialMT-76"/>
       <use x="239.013672" xlink:href="#ArialMT-80"/>
       <use x="305.712891" xlink:href="#ArialMT-80"/>
       <use x="372.412109" xlink:href="#ArialMT-84"/>
      </g>
     </g>
    </g>
    <g id="text_39">
     <!-- Lotnisko -->
     <g style="fill:#262626;" transform="translate(211.123523 655.451094)scale(0.17 -0.17)">
      <use xlink:href="#ArialMT-76"/>
      <use x="55.615234" xlink:href="#ArialMT-111"/>
      <use x="111.230469" xlink:href="#ArialMT-116"/>
      <use x="139.013672" xlink:href="#ArialMT-110"/>
      <use x="194.628906" xlink:href="#ArialMT-105"/>
      <use x="216.845703" xlink:href="#ArialMT-115"/>
      <use x="266.845703" xlink:href="#ArialMT-107"/>
      <use x="316.845703" xlink:href="#ArialMT-111"/>
     </g>
    </g>
   </g>
   <g id="matplotlib.axis_6">
    <g id="ytick_11">
     <g id="line2d_51">
      <path clip-path="url(#p7370b71b04)" d="M 52.553438 622.8 
L 433.007983 622.8 
" style="fill:none;stroke:#ffffff;stroke-linecap:round;stroke-width:0.8;"/>
     </g>
     <g id="line2d_52"/>
     <g id="text_40">
      <!-- 0.0 -->
      <g style="fill:#262626;" transform="translate(26.813438 628.52625)scale(0.16 -0.16)">
       <use xlink:href="#ArialMT-48"/>
       <use x="55.615234" xlink:href="#ArialMT-46"/>
       <use x="83.398438" xlink:href="#ArialMT-48"/>
      </g>
     </g>
    </g>
    <g id="ytick_12">
     <g id="line2d_53">
      <path clip-path="url(#p7370b71b04)" d="M 52.553438 563.713043 
L 433.007983 563.713043 
" style="fill:none;stroke:#ffffff;stroke-linecap:round;stroke-width:0.8;"/>
     </g>
     <g id="line2d_54"/>
     <g id="text_41">
      <!-- 0.5 -->
      <g style="fill:#262626;" transform="translate(26.813438 569.439293)scale(0.16 -0.16)">
       <use xlink:href="#ArialMT-48"/>
       <use x="55.615234" xlink:href="#ArialMT-46"/>
       <use x="83.398438" xlink:href="#ArialMT-53"/>
      </g>
     </g>
    </g>
    <g id="ytick_13">
     <g id="line2d_55">
      <path clip-path="url(#p7370b71b04)" d="M 52.553438 504.626087 
L 433.007983 504.626087 
" style="fill:none;stroke:#ffffff;stroke-linecap:round;stroke-width:0.8;"/>
     </g>
     <g id="line2d_56"/>
     <g id="text_42">
      <!-- 1.0 -->
      <g style="fill:#262626;" transform="translate(26.813438 510.352337)scale(0.16 -0.16)">
       <use xlink:href="#ArialMT-49"/>
       <use x="55.615234" xlink:href="#ArialMT-46"/>
       <use x="83.398438" xlink:href="#ArialMT-48"/>
      </g>
     </g>
    </g>
    <g id="ytick_14">
     <g id="line2d_57">
      <path clip-path="url(#p7370b71b04)" d="M 52.553438 445.53913 
L 433.007983 445.53913 
" style="fill:none;stroke:#ffffff;stroke-linecap:round;stroke-width:0.8;"/>
     </g>
     <g id="line2d_58"/>
     <g id="text_43">
      <!-- 1.5 -->
      <g style="fill:#262626;" transform="translate(26.813438 451.26538)scale(0.16 -0.16)">
       <use xlink:href="#ArialMT-49"/>
       <use x="55.615234" xlink:href="#ArialMT-46"/>
       <use x="83.398438" xlink:href="#ArialMT-53"/>
      </g>
     </g>
    </g>
    <g id="ytick_15">
     <g id="line2d_59">
      <path clip-path="url(#p7370b71b04)" d="M 52.553438 386.452174 
L 433.007983 386.452174 
" style="fill:none;stroke:#ffffff;stroke-linecap:round;stroke-width:0.8;"/>
     </g>
     <g id="line2d_60"/>
     <g id="text_44">
      <!-- 2.0 -->
      <g style="fill:#262626;" transform="translate(26.813438 392.178424)scale(0.16 -0.16)">
       <use xlink:href="#ArialMT-50"/>
       <use x="55.615234" xlink:href="#ArialMT-46"/>
       <use x="83.398438" xlink:href="#ArialMT-48"/>
      </g>
     </g>
    </g>
    <g id="text_45">
     <!-- Liczba pasażerów -->
     <g style="fill:#262626;" transform="translate(19.434688 572.65929)rotate(-90)scale(0.17 -0.17)">
      <use xlink:href="#ArialMT-76"/>
      <use x="55.615234" xlink:href="#ArialMT-105"/>
      <use x="77.832031" xlink:href="#ArialMT-99"/>
      <use x="127.832031" xlink:href="#ArialMT-122"/>
      <use x="177.832031" xlink:href="#ArialMT-98"/>
      <use x="233.447266" xlink:href="#ArialMT-97"/>
      <use x="289.0625" xlink:href="#ArialMT-32"/>
      <use x="316.845703" xlink:href="#ArialMT-112"/>
      <use x="372.460938" xlink:href="#ArialMT-97"/>
      <use x="428.076172" xlink:href="#ArialMT-115"/>
      <use x="478.076172" xlink:href="#ArialMT-97"/>
      <use x="533.691406" xlink:href="#ArialMT-380"/>
      <use x="583.691406" xlink:href="#ArialMT-101"/>
      <use x="639.306641" xlink:href="#ArialMT-114"/>
      <use x="672.607422" xlink:href="#ArialMT-243"/>
      <use x="728.222656" xlink:href="#ArialMT-119"/>
     </g>
    </g>
    <g id="text_46">
     <!-- 1e7 -->
     <g style="fill:#262626;" transform="translate(52.553438 383.452174)scale(0.1 -0.1)">
      <use xlink:href="#ArialMT-49"/>
      <use x="55.615234" xlink:href="#ArialMT-101"/>
      <use x="111.230469" xlink:href="#ArialMT-55"/>
     </g>
    </g>
   </g>
   <g id="patch_57">
    <path clip-path="url(#p7370b71b04)" d="M 69.846826 622.8 
L 81.125123 622.8 
L 81.125123 514.614536 
L 69.846826 514.614536 
z
" style="fill:#00bfff;stroke:#000000;stroke-linejoin:miter;"/>
   </g>
   <g id="patch_58">
    <path clip-path="url(#p7370b71b04)" d="M 145.035471 622.8 
L 156.313768 622.8 
L 156.313768 403.138401 
L 145.035471 403.138401 
z
" style="fill:#00bfff;stroke:#000000;stroke-linejoin:miter;"/>
   </g>
   <g id="patch_59">
    <path clip-path="url(#p7370b71b04)" d="M 220.224117 622.8 
L 231.502413 622.8 
L 231.502413 562.662903 
L 220.224117 562.662903 
z
" style="fill:#00bfff;stroke:#000000;stroke-linejoin:miter;"/>
   </g>
   <g id="patch_60">
    <path clip-path="url(#p7370b71b04)" d="M 295.412762 622.8 
L 306.691059 622.8 
L 306.691059 560.339119 
L 295.412762 560.339119 
z
" style="fill:#00bfff;stroke:#000000;stroke-linejoin:miter;"/>
   </g>
   <g id="patch_61">
    <path clip-path="url(#p7370b71b04)" d="M 370.601407 622.8 
L 381.879704 622.8 
L 381.879704 527.103368 
L 370.601407 527.103368 
z
" style="fill:#00bfff;stroke:#000000;stroke-linejoin:miter;"/>
   </g>
   <g id="patch_62">
    <path clip-path="url(#p7370b71b04)" d="M 81.125123 622.8 
L 92.40342 622.8 
L 92.40342 600.107123 
L 81.125123 600.107123 
z
" style="fill:#dc143c;stroke:#000000;stroke-linejoin:miter;"/>
   </g>
   <g id="patch_63">
    <path clip-path="url(#p7370b71b04)" d="M 156.313768 622.8 
L 167.592065 622.8 
L 167.592065 580.076526 
L 156.313768 580.076526 
z
" style="fill:#dc143c;stroke:#000000;stroke-linejoin:miter;"/>
   </g>
   <g id="patch_64">
    <path clip-path="url(#p7370b71b04)" d="M 231.502413 622.8 
L 242.78071 622.8 
L 242.78071 615.211143 
L 231.502413 615.211143 
z
" style="fill:#dc143c;stroke:#000000;stroke-linejoin:miter;"/>
   </g>
   <g id="patch_65">
    <path clip-path="url(#p7370b71b04)" d="M 306.691059 622.8 
L 317.969356 622.8 
L 317.969356 606.098705 
L 306.691059 606.098705 
z
" style="fill:#dc143c;stroke:#000000;stroke-linejoin:miter;"/>
   </g>
   <g id="patch_66">
    <path clip-path="url(#p7370b71b04)" d="M 381.879704 622.8 
L 393.158001 622.8 
L 393.158001 601.761167 
L 381.879704 601.761167 
z
" style="fill:#dc143c;stroke:#000000;stroke-linejoin:miter;"/>
   </g>
   <g id="patch_67">
    <path clip-path="url(#p7370b71b04)" d="M 92.40342 622.8 
L 103.681716 622.8 
L 103.681716 565.916254 
L 92.40342 565.916254 
z
" style="fill:#adff2f;stroke:#000000;stroke-linejoin:miter;"/>
   </g>
   <g id="patch_68">
    <path clip-path="url(#p7370b71b04)" d="M 167.592065 622.8 
L 178.870362 622.8 
L 178.870362 521.390368 
L 167.592065 521.390368 
z
" style="fill:#adff2f;stroke:#000000;stroke-linejoin:miter;"/>
   </g>
   <g id="patch_69">
    <path clip-path="url(#p7370b71b04)" d="M 242.78071 622.8 
L 254.059007 622.8 
L 254.059007 607.870629 
L 242.78071 607.870629 
z
" style="fill:#adff2f;stroke:#000000;stroke-linejoin:miter;"/>
   </g>
   <g id="patch_70">
    <path clip-path="url(#p7370b71b04)" d="M 317.969356 622.8 
L 329.247652 622.8 
L 329.247652 586.7733 
L 317.969356 586.7733 
z
" style="fill:#adff2f;stroke:#000000;stroke-linejoin:miter;"/>
   </g>
   <g id="patch_71">
    <path clip-path="url(#p7370b71b04)" d="M 393.158001 622.8 
L 404.436298 622.8 
L 404.436298 577.365191 
L 393.158001 577.365191 
z
" style="fill:#adff2f;stroke:#000000;stroke-linejoin:miter;"/>
   </g>
   <g id="patch_72">
    <path clip-path="url(#p7370b71b04)" d="M 103.681716 622.8 
L 114.960013 622.8 
L 114.960013 526.234435 
L 103.681716 526.234435 
z
" style="fill:#ff69b4;stroke:#000000;stroke-linejoin:miter;"/>
   </g>
   <g id="patch_73">
    <path clip-path="url(#p7370b71b04)" d="M 178.870362 622.8 
L 190.148658 622.8 
L 190.148658 456.736605 
L 178.870362 456.736605 
z
" style="fill:#ff69b4;stroke:#000000;stroke-linejoin:miter;"/>
   </g>
   <g id="patch_74">
    <path clip-path="url(#p7370b71b04)" d="M 254.059007 622.8 
L 265.337304 622.8 
L 265.337304 573.029059 
L 254.059007 573.029059 
z
" style="fill:#ff69b4;stroke:#000000;stroke-linejoin:miter;"/>
   </g>
   <g id="patch_75">
    <path clip-path="url(#p7370b71b04)" d="M 329.247652 622.8 
L 340.525949 622.8 
L 340.525949 569.510407 
L 329.247652 569.510407 
z
" style="fill:#ff69b4;stroke:#000000;stroke-linejoin:miter;"/>
   </g>
   <g id="patch_76">
    <path clip-path="url(#p7370b71b04)" d="M 404.436298 622.8 
L 415.714595 622.8 
L 415.714595 513.743027 
L 404.436298 513.743027 
z
" style="fill:#ff69b4;stroke:#000000;stroke-linejoin:miter;"/>
   </g>
   <g id="patch_77">
    <path d="M 52.553438 622.8 
L 52.553438 386.452174 
" style="fill:none;"/>
   </g>
   <g id="patch_78">
    <path d="M 433.007983 622.8 
L 433.007983 386.452174 
" style="fill:none;"/>
   </g>
   <g id="patch_79">
    <path d="M 52.553438 622.8 
L 433.007983 622.8 
" style="fill:none;"/>
   </g>
   <g id="patch_80">
    <path d="M 52.553438 386.452174 
L 433.007983 386.452174 
" style="fill:none;"/>
   </g>
   <g id="text_47">
    <!-- Liczba pasażerów w trzecim kwartale -->
    <g style="fill:#262626;" transform="translate(102.48821 380.452174)scale(0.17 -0.17)">
     <use xlink:href="#ArialMT-76"/>
     <use x="55.615234" xlink:href="#ArialMT-105"/>
     <use x="77.832031" xlink:href="#ArialMT-99"/>
     <use x="127.832031" xlink:href="#ArialMT-122"/>
     <use x="177.832031" xlink:href="#ArialMT-98"/>
     <use x="233.447266" xlink:href="#ArialMT-97"/>
     <use x="289.0625" xlink:href="#ArialMT-32"/>
     <use x="316.845703" xlink:href="#ArialMT-112"/>
     <use x="372.460938" xlink:href="#ArialMT-97"/>
     <use x="428.076172" xlink:href="#ArialMT-115"/>
     <use x="478.076172" xlink:href="#ArialMT-97"/>
     <use x="533.691406" xlink:href="#ArialMT-380"/>
     <use x="583.691406" xlink:href="#ArialMT-101"/>
     <use x="639.306641" xlink:href="#ArialMT-114"/>
     <use x="672.607422" xlink:href="#ArialMT-243"/>
     <use x="728.222656" xlink:href="#ArialMT-119"/>
     <use x="800.439453" xlink:href="#ArialMT-32"/>
     <use x="828.222656" xlink:href="#ArialMT-119"/>
     <use x="900.439453" xlink:href="#ArialMT-32"/>
     <use x="928.222656" xlink:href="#ArialMT-116"/>
     <use x="956.005859" xlink:href="#ArialMT-114"/>
     <use x="989.306641" xlink:href="#ArialMT-122"/>
     <use x="1039.306641" xlink:href="#ArialMT-101"/>
     <use x="1094.921875" xlink:href="#ArialMT-99"/>
     <use x="1144.921875" xlink:href="#ArialMT-105"/>
     <use x="1167.138672" xlink:href="#ArialMT-109"/>
     <use x="1250.439453" xlink:href="#ArialMT-32"/>
     <use x="1278.222656" xlink:href="#ArialMT-107"/>
     <use x="1328.222656" xlink:href="#ArialMT-119"/>
     <use x="1400.439453" xlink:href="#ArialMT-97"/>
     <use x="1456.054688" xlink:href="#ArialMT-114"/>
     <use x="1489.355469" xlink:href="#ArialMT-116"/>
     <use x="1517.138672" xlink:href="#ArialMT-97"/>
     <use x="1572.753906" xlink:href="#ArialMT-108"/>
     <use x="1594.970703" xlink:href="#ArialMT-101"/>
    </g>
   </g>
  </g>
  <g id="axes_4">
   <g id="patch_81">
    <path d="M 509.098892 622.8 
L 889.553437 622.8 
L 889.553437 386.452174 
L 509.098892 386.452174 
z
" style="fill:#eaeaf2;"/>
   </g>
   <g id="matplotlib.axis_7">
    <g id="xtick_16">
     <g id="line2d_61">
      <path clip-path="url(#p832204cb15)" d="M 554.588022 622.8 
L 554.588022 386.452174 
" style="fill:none;stroke:#ffffff;stroke-linecap:round;stroke-width:0.8;"/>
     </g>
     <g id="line2d_62"/>
     <g id="text_48">
      <!-- AT_LOWW -->
      <g style="fill:#262626;" transform="translate(519.714897 636.500313)scale(0.14 -0.14)">
       <use xlink:href="#ArialMT-65"/>
       <use x="59.324219" xlink:href="#ArialMT-84"/>
       <use x="120.408203" xlink:href="#ArialMT-95"/>
       <use x="176.023438" xlink:href="#ArialMT-76"/>
       <use x="231.638672" xlink:href="#ArialMT-79"/>
       <use x="309.421875" xlink:href="#ArialMT-87"/>
       <use x="403.806641" xlink:href="#ArialMT-87"/>
      </g>
     </g>
    </g>
    <g id="xtick_17">
     <g id="line2d_63">
      <path clip-path="url(#p832204cb15)" d="M 629.776668 622.8 
L 629.776668 386.452174 
" style="fill:none;stroke:#ffffff;stroke-linecap:round;stroke-width:0.8;"/>
     </g>
     <g id="line2d_64"/>
     <g id="text_49">
      <!-- DE_EDDF -->
      <g style="fill:#262626;" transform="translate(597.104168 636.320938)scale(0.14 -0.14)">
       <use xlink:href="#ArialMT-68"/>
       <use x="72.216797" xlink:href="#ArialMT-69"/>
       <use x="138.916016" xlink:href="#ArialMT-95"/>
       <use x="194.53125" xlink:href="#ArialMT-69"/>
       <use x="261.230469" xlink:href="#ArialMT-68"/>
       <use x="333.447266" xlink:href="#ArialMT-68"/>
       <use x="405.664062" xlink:href="#ArialMT-70"/>
      </g>
     </g>
    </g>
    <g id="xtick_18">
     <g id="line2d_65">
      <path clip-path="url(#p832204cb15)" d="M 704.965313 622.8 
L 704.965313 386.452174 
" style="fill:none;stroke:#ffffff;stroke-linecap:round;stroke-width:0.8;"/>
     </g>
     <g id="line2d_66"/>
     <g id="text_50">
      <!-- NO_ENGM -->
      <g style="fill:#262626;" transform="translate(669.572657 636.500313)scale(0.14 -0.14)">
       <use xlink:href="#ArialMT-78"/>
       <use x="72.216797" xlink:href="#ArialMT-79"/>
       <use x="150" xlink:href="#ArialMT-95"/>
       <use x="205.615234" xlink:href="#ArialMT-69"/>
       <use x="272.314453" xlink:href="#ArialMT-78"/>
       <use x="344.53125" xlink:href="#ArialMT-71"/>
       <use x="422.314453" xlink:href="#ArialMT-77"/>
      </g>
     </g>
    </g>
    <g id="xtick_19">
     <g id="line2d_67">
      <path clip-path="url(#p832204cb15)" d="M 780.153959 622.8 
L 780.153959 386.452174 
" style="fill:none;stroke:#ffffff;stroke-linecap:round;stroke-width:0.8;"/>
     </g>
     <g id="line2d_68"/>
     <g id="text_51">
      <!-- PL_EPWA -->
      <g style="fill:#262626;" transform="translate(747.346927 636.320938)scale(0.14 -0.14)">
       <use xlink:href="#ArialMT-80"/>
       <use x="66.699219" xlink:href="#ArialMT-76"/>
       <use x="122.314453" xlink:href="#ArialMT-95"/>
       <use x="177.929688" xlink:href="#ArialMT-69"/>
       <use x="244.628906" xlink:href="#ArialMT-80"/>
       <use x="311.328125" xlink:href="#ArialMT-87"/>
       <use x="401.962891" xlink:href="#ArialMT-65"/>
      </g>
     </g>
    </g>
    <g id="xtick_20">
     <g id="line2d_69">
      <path clip-path="url(#p832204cb15)" d="M 855.342604 622.8 
L 855.342604 386.452174 
" style="fill:none;stroke:#ffffff;stroke-linecap:round;stroke-width:0.8;"/>
     </g>
     <g id="line2d_70"/>
     <g id="text_52">
      <!-- PT_LPPT -->
      <g style="fill:#262626;" transform="translate(824.998698 636.320938)scale(0.14 -0.14)">
       <use xlink:href="#ArialMT-80"/>
       <use x="66.699219" xlink:href="#ArialMT-84"/>
       <use x="127.783203" xlink:href="#ArialMT-95"/>
       <use x="183.398438" xlink:href="#ArialMT-76"/>
       <use x="239.013672" xlink:href="#ArialMT-80"/>
       <use x="305.712891" xlink:href="#ArialMT-80"/>
       <use x="372.412109" xlink:href="#ArialMT-84"/>
      </g>
     </g>
    </g>
    <g id="text_53">
     <!-- Lotnisko -->
     <g style="fill:#262626;" transform="translate(667.668977 655.451094)scale(0.17 -0.17)">
      <use xlink:href="#ArialMT-76"/>
      <use x="55.615234" xlink:href="#ArialMT-111"/>
      <use x="111.230469" xlink:href="#ArialMT-116"/>
      <use x="139.013672" xlink:href="#ArialMT-110"/>
      <use x="194.628906" xlink:href="#ArialMT-105"/>
      <use x="216.845703" xlink:href="#ArialMT-115"/>
      <use x="266.845703" xlink:href="#ArialMT-107"/>
      <use x="316.845703" xlink:href="#ArialMT-111"/>
     </g>
    </g>
   </g>
   <g id="matplotlib.axis_8">
    <g id="ytick_16">
     <g id="line2d_71">
      <path clip-path="url(#p832204cb15)" d="M 509.098892 622.8 
L 889.553437 622.8 
" style="fill:none;stroke:#ffffff;stroke-linecap:round;stroke-width:0.8;"/>
     </g>
     <g id="line2d_72"/>
     <g id="text_54">
      <!-- 0.0 -->
      <g style="fill:#262626;" transform="translate(483.358892 628.52625)scale(0.16 -0.16)">
       <use xlink:href="#ArialMT-48"/>
       <use x="55.615234" xlink:href="#ArialMT-46"/>
       <use x="83.398438" xlink:href="#ArialMT-48"/>
      </g>
     </g>
    </g>
    <g id="ytick_17">
     <g id="line2d_73">
      <path clip-path="url(#p832204cb15)" d="M 509.098892 563.713043 
L 889.553437 563.713043 
" style="fill:none;stroke:#ffffff;stroke-linecap:round;stroke-width:0.8;"/>
     </g>
     <g id="line2d_74"/>
     <g id="text_55">
      <!-- 0.5 -->
      <g style="fill:#262626;" transform="translate(483.358892 569.439293)scale(0.16 -0.16)">
       <use xlink:href="#ArialMT-48"/>
       <use x="55.615234" xlink:href="#ArialMT-46"/>
       <use x="83.398438" xlink:href="#ArialMT-53"/>
      </g>
     </g>
    </g>
    <g id="ytick_18">
     <g id="line2d_75">
      <path clip-path="url(#p832204cb15)" d="M 509.098892 504.626087 
L 889.553437 504.626087 
" style="fill:none;stroke:#ffffff;stroke-linecap:round;stroke-width:0.8;"/>
     </g>
     <g id="line2d_76"/>
     <g id="text_56">
      <!-- 1.0 -->
      <g style="fill:#262626;" transform="translate(483.358892 510.352337)scale(0.16 -0.16)">
       <use xlink:href="#ArialMT-49"/>
       <use x="55.615234" xlink:href="#ArialMT-46"/>
       <use x="83.398438" xlink:href="#ArialMT-48"/>
      </g>
     </g>
    </g>
    <g id="ytick_19">
     <g id="line2d_77">
      <path clip-path="url(#p832204cb15)" d="M 509.098892 445.53913 
L 889.553437 445.53913 
" style="fill:none;stroke:#ffffff;stroke-linecap:round;stroke-width:0.8;"/>
     </g>
     <g id="line2d_78"/>
     <g id="text_57">
      <!-- 1.5 -->
      <g style="fill:#262626;" transform="translate(483.358892 451.26538)scale(0.16 -0.16)">
       <use xlink:href="#ArialMT-49"/>
       <use x="55.615234" xlink:href="#ArialMT-46"/>
       <use x="83.398438" xlink:href="#ArialMT-53"/>
      </g>
     </g>
    </g>
    <g id="ytick_20">
     <g id="line2d_79">
      <path clip-path="url(#p832204cb15)" d="M 509.098892 386.452174 
L 889.553437 386.452174 
" style="fill:none;stroke:#ffffff;stroke-linecap:round;stroke-width:0.8;"/>
     </g>
     <g id="line2d_80"/>
     <g id="text_58">
      <!-- 2.0 -->
      <g style="fill:#262626;" transform="translate(483.358892 392.178424)scale(0.16 -0.16)">
       <use xlink:href="#ArialMT-50"/>
       <use x="55.615234" xlink:href="#ArialMT-46"/>
       <use x="83.398438" xlink:href="#ArialMT-48"/>
      </g>
     </g>
    </g>
    <g id="text_59">
     <!-- Liczba pasażerów -->
     <g style="fill:#262626;" transform="translate(475.980142 572.65929)rotate(-90)scale(0.17 -0.17)">
      <use xlink:href="#ArialMT-76"/>
      <use x="55.615234" xlink:href="#ArialMT-105"/>
      <use x="77.832031" xlink:href="#ArialMT-99"/>
      <use x="127.832031" xlink:href="#ArialMT-122"/>
      <use x="177.832031" xlink:href="#ArialMT-98"/>
      <use x="233.447266" xlink:href="#ArialMT-97"/>
      <use x="289.0625" xlink:href="#ArialMT-32"/>
      <use x="316.845703" xlink:href="#ArialMT-112"/>
      <use x="372.460938" xlink:href="#ArialMT-97"/>
      <use x="428.076172" xlink:href="#ArialMT-115"/>
      <use x="478.076172" xlink:href="#ArialMT-97"/>
      <use x="533.691406" xlink:href="#ArialMT-380"/>
      <use x="583.691406" xlink:href="#ArialMT-101"/>
      <use x="639.306641" xlink:href="#ArialMT-114"/>
      <use x="672.607422" xlink:href="#ArialMT-243"/>
      <use x="728.222656" xlink:href="#ArialMT-119"/>
     </g>
    </g>
    <g id="text_60">
     <!-- 1e7 -->
     <g style="fill:#262626;" transform="translate(509.098892 383.452174)scale(0.1 -0.1)">
      <use xlink:href="#ArialMT-49"/>
      <use x="55.615234" xlink:href="#ArialMT-101"/>
      <use x="111.230469" xlink:href="#ArialMT-55"/>
     </g>
    </g>
   </g>
   <g id="patch_82">
    <path clip-path="url(#p832204cb15)" d="M 526.39228 622.8 
L 537.670577 622.8 
L 537.670577 533.117628 
L 526.39228 533.117628 
z
" style="fill:#00bfff;stroke:#000000;stroke-linejoin:miter;"/>
   </g>
   <g id="patch_83">
    <path clip-path="url(#p832204cb15)" d="M 601.580926 622.8 
L 612.859223 622.8 
L 612.859223 451.031074 
L 601.580926 451.031074 
z
" style="fill:#00bfff;stroke:#000000;stroke-linejoin:miter;"/>
   </g>
   <g id="patch_84">
    <path clip-path="url(#p832204cb15)" d="M 676.769571 622.8 
L 688.047868 622.8 
L 688.047868 578.678198 
L 676.769571 578.678198 
z
" style="fill:#00bfff;stroke:#000000;stroke-linejoin:miter;"/>
   </g>
   <g id="patch_85">
    <path clip-path="url(#p832204cb15)" d="M 751.958217 622.8 
L 763.236513 622.8 
L 763.236513 574.82073 
L 751.958217 574.82073 
z
" style="fill:#00bfff;stroke:#000000;stroke-linejoin:miter;"/>
   </g>
   <g id="patch_86">
    <path clip-path="url(#p832204cb15)" d="M 827.146862 622.8 
L 838.425159 622.8 
L 838.425159 544.98106 
L 827.146862 544.98106 
z
" style="fill:#00bfff;stroke:#000000;stroke-linejoin:miter;"/>
   </g>
   <g id="patch_87">
    <path clip-path="url(#p832204cb15)" d="M 537.670577 622.8 
L 548.948874 622.8 
L 548.948874 613.685601 
L 537.670577 613.685601 
z
" style="fill:#dc143c;stroke:#000000;stroke-linejoin:miter;"/>
   </g>
   <g id="patch_88">
    <path clip-path="url(#p832204cb15)" d="M 612.859223 622.8 
L 624.137519 622.8 
L 624.137519 594.745785 
L 612.859223 594.745785 
z
" style="fill:#dc143c;stroke:#000000;stroke-linejoin:miter;"/>
   </g>
   <g id="patch_89">
    <path clip-path="url(#p832204cb15)" d="M 688.047868 622.8 
L 699.326165 622.8 
L 699.326165 619.582774 
L 688.047868 619.582774 
z
" style="fill:#dc143c;stroke:#000000;stroke-linejoin:miter;"/>
   </g>
   <g id="patch_90">
    <path clip-path="url(#p832204cb15)" d="M 763.236513 622.8 
L 774.51481 622.8 
L 774.51481 615.571124 
L 763.236513 615.571124 
z
" style="fill:#dc143c;stroke:#000000;stroke-linejoin:miter;"/>
   </g>
   <g id="patch_91">
    <path clip-path="url(#p832204cb15)" d="M 838.425159 622.8 
L 849.703455 622.8 
L 849.703455 608.04698 
L 838.425159 608.04698 
z
" style="fill:#dc143c;stroke:#000000;stroke-linejoin:miter;"/>
   </g>
   <g id="patch_92">
    <path clip-path="url(#p832204cb15)" d="M 548.948874 622.8 
L 560.227171 622.8 
L 560.227171 580.360333 
L 548.948874 580.360333 
z
" style="fill:#adff2f;stroke:#000000;stroke-linejoin:miter;"/>
   </g>
   <g id="patch_93">
    <path clip-path="url(#p832204cb15)" d="M 624.137519 622.8 
L 635.415816 622.8 
L 635.415816 525.805511 
L 624.137519 525.805511 
z
" style="fill:#adff2f;stroke:#000000;stroke-linejoin:miter;"/>
   </g>
   <g id="patch_94">
    <path clip-path="url(#p832204cb15)" d="M 699.326165 622.8 
L 710.604462 622.8 
L 710.604462 600.631673 
L 699.326165 600.631673 
z
" style="fill:#adff2f;stroke:#000000;stroke-linejoin:miter;"/>
   </g>
   <g id="patch_95">
    <path clip-path="url(#p832204cb15)" d="M 774.51481 622.8 
L 785.793107 622.8 
L 785.793107 597.795192 
L 774.51481 597.795192 
z
" style="fill:#adff2f;stroke:#000000;stroke-linejoin:miter;"/>
   </g>
   <g id="patch_96">
    <path clip-path="url(#p832204cb15)" d="M 849.703455 622.8 
L 860.981752 622.8 
L 860.981752 570.434457 
L 849.703455 570.434457 
z
" style="fill:#adff2f;stroke:#000000;stroke-linejoin:miter;"/>
   </g>
   <g id="patch_97">
    <path clip-path="url(#p832204cb15)" d="M 560.227171 622.8 
L 571.505468 622.8 
L 571.505468 549.335615 
L 560.227171 549.335615 
z
" style="fill:#ff69b4;stroke:#000000;stroke-linejoin:miter;"/>
   </g>
   <g id="patch_98">
    <path clip-path="url(#p832204cb15)" d="M 635.415816 622.8 
L 646.694113 622.8 
L 646.694113 483.553835 
L 635.415816 483.553835 
z
" style="fill:#ff69b4;stroke:#000000;stroke-linejoin:miter;"/>
   </g>
   <g id="patch_99">
    <path clip-path="url(#p832204cb15)" d="M 710.604462 622.8 
L 721.882758 622.8 
L 721.882758 586.344187 
L 710.604462 586.344187 
z
" style="fill:#ff69b4;stroke:#000000;stroke-linejoin:miter;"/>
   </g>
   <g id="patch_100">
    <path clip-path="url(#p832204cb15)" d="M 785.793107 622.8 
L 797.071404 622.8 
L 797.071404 583.416393 
L 785.793107 583.416393 
z
" style="fill:#ff69b4;stroke:#000000;stroke-linejoin:miter;"/>
   </g>
   <g id="patch_101">
    <path clip-path="url(#p832204cb15)" d="M 860.981752 622.8 
L 872.260049 622.8 
L 872.260049 530.701882 
L 860.981752 530.701882 
z
" style="fill:#ff69b4;stroke:#000000;stroke-linejoin:miter;"/>
   </g>
   <g id="patch_102">
    <path d="M 509.098892 622.8 
L 509.098892 386.452174 
" style="fill:none;"/>
   </g>
   <g id="patch_103">
    <path d="M 889.553437 622.8 
L 889.553437 386.452174 
" style="fill:none;"/>
   </g>
   <g id="patch_104">
    <path d="M 509.098892 622.8 
L 889.553437 622.8 
" style="fill:none;"/>
   </g>
   <g id="patch_105">
    <path d="M 509.098892 386.452174 
L 889.553437 386.452174 
" style="fill:none;"/>
   </g>
   <g id="text_61">
    <!-- Liczba pasażerów w czwartym kwartale -->
    <g style="fill:#262626;" transform="translate(550.533665 380.452174)scale(0.17 -0.17)">
     <use xlink:href="#ArialMT-76"/>
     <use x="55.615234" xlink:href="#ArialMT-105"/>
     <use x="77.832031" xlink:href="#ArialMT-99"/>
     <use x="127.832031" xlink:href="#ArialMT-122"/>
     <use x="177.832031" xlink:href="#ArialMT-98"/>
     <use x="233.447266" xlink:href="#ArialMT-97"/>
     <use x="289.0625" xlink:href="#ArialMT-32"/>
     <use x="316.845703" xlink:href="#ArialMT-112"/>
     <use x="372.460938" xlink:href="#ArialMT-97"/>
     <use x="428.076172" xlink:href="#ArialMT-115"/>
     <use x="478.076172" xlink:href="#ArialMT-97"/>
     <use x="533.691406" xlink:href="#ArialMT-380"/>
     <use x="583.691406" xlink:href="#ArialMT-101"/>
     <use x="639.306641" xlink:href="#ArialMT-114"/>
     <use x="672.607422" xlink:href="#ArialMT-243"/>
     <use x="728.222656" xlink:href="#ArialMT-119"/>
     <use x="800.439453" xlink:href="#ArialMT-32"/>
     <use x="828.222656" xlink:href="#ArialMT-119"/>
     <use x="900.439453" xlink:href="#ArialMT-32"/>
     <use x="928.222656" xlink:href="#ArialMT-99"/>
     <use x="978.222656" xlink:href="#ArialMT-122"/>
     <use x="1028.222656" xlink:href="#ArialMT-119"/>
     <use x="1100.439453" xlink:href="#ArialMT-97"/>
     <use x="1156.054688" xlink:href="#ArialMT-114"/>
     <use x="1189.355469" xlink:href="#ArialMT-116"/>
     <use x="1217.138672" xlink:href="#ArialMT-121"/>
     <use x="1267.138672" xlink:href="#ArialMT-109"/>
     <use x="1350.439453" xlink:href="#ArialMT-32"/>
     <use x="1378.222656" xlink:href="#ArialMT-107"/>
     <use x="1428.222656" xlink:href="#ArialMT-119"/>
     <use x="1500.439453" xlink:href="#ArialMT-97"/>
     <use x="1556.054688" xlink:href="#ArialMT-114"/>
     <use x="1589.355469" xlink:href="#ArialMT-116"/>
     <use x="1617.138672" xlink:href="#ArialMT-97"/>
     <use x="1672.753906" xlink:href="#ArialMT-108"/>
     <use x="1694.970703" xlink:href="#ArialMT-101"/>
    </g>
   </g>
  </g>
  <g id="text_62">
   <!-- Liczba pasażerów w latach 2019-2022 -->
   <defs>
    <path d="M 6.59375 0 
L 6.59375 71.578125 
L 15.375 71.578125 
L 15.375 45.90625 
Q 21.53125 53.03125 30.90625 53.03125 
Q 36.671875 53.03125 40.921875 50.75 
Q 45.171875 48.484375 47 44.484375 
Q 48.828125 40.484375 48.828125 32.859375 
L 48.828125 0 
L 40.046875 0 
L 40.046875 32.859375 
Q 40.046875 39.453125 37.1875 42.453125 
Q 34.328125 45.453125 29.109375 45.453125 
Q 25.203125 45.453125 21.75 43.421875 
Q 18.3125 41.40625 16.84375 37.9375 
Q 15.375 34.46875 15.375 28.375 
L 15.375 0 
z
" id="ArialMT-104"/>
    <path d="M 3.171875 21.484375 
L 3.171875 30.328125 
L 30.171875 30.328125 
L 30.171875 21.484375 
z
" id="ArialMT-45"/>
   </defs>
   <g style="fill:#262626;" transform="translate(287.458125 21.59375)scale(0.2 -0.2)">
    <use xlink:href="#ArialMT-76"/>
    <use x="55.615234" xlink:href="#ArialMT-105"/>
    <use x="77.832031" xlink:href="#ArialMT-99"/>
    <use x="127.832031" xlink:href="#ArialMT-122"/>
    <use x="177.832031" xlink:href="#ArialMT-98"/>
    <use x="233.447266" xlink:href="#ArialMT-97"/>
    <use x="289.0625" xlink:href="#ArialMT-32"/>
    <use x="316.845703" xlink:href="#ArialMT-112"/>
    <use x="372.460938" xlink:href="#ArialMT-97"/>
    <use x="428.076172" xlink:href="#ArialMT-115"/>
    <use x="478.076172" xlink:href="#ArialMT-97"/>
    <use x="533.691406" xlink:href="#ArialMT-380"/>
    <use x="583.691406" xlink:href="#ArialMT-101"/>
    <use x="639.306641" xlink:href="#ArialMT-114"/>
    <use x="672.607422" xlink:href="#ArialMT-243"/>
    <use x="728.222656" xlink:href="#ArialMT-119"/>
    <use x="800.439453" xlink:href="#ArialMT-32"/>
    <use x="828.222656" xlink:href="#ArialMT-119"/>
    <use x="900.439453" xlink:href="#ArialMT-32"/>
    <use x="928.222656" xlink:href="#ArialMT-108"/>
    <use x="950.439453" xlink:href="#ArialMT-97"/>
    <use x="1006.054688" xlink:href="#ArialMT-116"/>
    <use x="1033.837891" xlink:href="#ArialMT-97"/>
    <use x="1089.453125" xlink:href="#ArialMT-99"/>
    <use x="1139.453125" xlink:href="#ArialMT-104"/>
    <use x="1195.068359" xlink:href="#ArialMT-32"/>
    <use x="1222.851562" xlink:href="#ArialMT-50"/>
    <use x="1278.466797" xlink:href="#ArialMT-48"/>
    <use x="1334.082031" xlink:href="#ArialMT-49"/>
    <use x="1389.697266" xlink:href="#ArialMT-57"/>
    <use x="1445.3125" xlink:href="#ArialMT-45"/>
    <use x="1478.613281" xlink:href="#ArialMT-50"/>
    <use x="1534.228516" xlink:href="#ArialMT-48"/>
    <use x="1589.84375" xlink:href="#ArialMT-50"/>
    <use x="1645.458984" xlink:href="#ArialMT-50"/>
   </g>
  </g>
 </g>
 <defs>
  <clipPath id="p4df4b73782">
   <rect height="236.347826" width="380.454545" x="52.553438" y="79.2"/>
  </clipPath>
  <clipPath id="pee968e7e62">
   <rect height="236.347826" width="380.454545" x="509.098892" y="79.2"/>
  </clipPath>
  <clipPath id="p7370b71b04">
   <rect height="236.347826" width="380.454545" x="52.553438" y="386.452174"/>
  </clipPath>
  <clipPath id="p832204cb15">
   <rect height="236.347826" width="380.454545" x="509.098892" y="386.452174"/>
  </clipPath>
 </defs>
</svg>
