<?xml version="1.0" encoding="utf-8" standalone="no"?>
<!DOCTYPE svg PUBLIC "-//W3C//DTD SVG 1.1//EN"
  "http://www.w3.org/Graphics/SVG/1.1/DTD/svg11.dtd">
<!-- Created with matplotlib (https://matplotlib.org/) -->
<svg height="2020.919531pt" version="1.1" viewBox="0 0 1529.542187 2020.919531" width="1529.542187pt" xmlns="http://www.w3.org/2000/svg" xmlns:xlink="http://www.w3.org/1999/xlink">
 <defs>
  <style type="text/css">
*{stroke-linecap:butt;stroke-linejoin:round;}
  </style>
 </defs>
 <g id="figure_1">
  <g id="patch_1">
   <path d="M 0 2020.919531 
L 1529.542187 2020.919531 
L 1529.542187 0 
L 0 0 
z
" style="fill:#ffffff;"/>
  </g>
  <g id="axes_1">
   <g id="patch_2">
    <path d="M 127.342188 275.80564 
L 1522.342187 275.80564 
L 1522.342187 43.78125 
L 127.342188 43.78125 
z
" style="fill:#eaeaf2;"/>
   </g>
   <g id="matplotlib.axis_1">
    <g id="xtick_1">
     <g id="line2d_1">
      <path clip-path="url(#p29245a6eef)" d="M 233.740493 275.80564 
L 233.740493 43.78125 
" style="fill:none;stroke:#ffffff;stroke-linecap:round;stroke-width:0.8;"/>
     </g>
     <g id="line2d_2"/>
     <g id="text_1">
      <!-- 1 -->
      <defs>
       <path d="M 37.25 0 
L 28.46875 0 
L 28.46875 56 
Q 25.296875 52.984375 20.140625 49.953125 
Q 14.984375 46.921875 10.890625 45.40625 
L 10.890625 53.90625 
Q 18.265625 57.375 23.78125 62.296875 
Q 29.296875 67.234375 31.59375 71.875 
L 37.25 71.875 
z
" id="ArialMT-49"/>
      </defs>
      <g style="fill:#262626;" transform="translate(225.399086 300.779078)scale(0.3 -0.3)">
       <use xlink:href="#ArialMT-49"/>
      </g>
     </g>
    </g>
    <g id="xtick_2">
     <g id="line2d_3">
      <path clip-path="url(#p29245a6eef)" d="M 341.213528 275.80564 
L 341.213528 43.78125 
" style="fill:none;stroke:#ffffff;stroke-linecap:round;stroke-width:0.8;"/>
     </g>
     <g id="line2d_4"/>
     <g id="text_2">
      <!-- 2 -->
      <defs>
       <path d="M 50.34375 8.453125 
L 50.34375 0 
L 3.03125 0 
Q 2.9375 3.171875 4.046875 6.109375 
Q 5.859375 10.9375 9.828125 15.625 
Q 13.8125 20.3125 21.34375 26.46875 
Q 33.015625 36.03125 37.109375 41.625 
Q 41.21875 47.21875 41.21875 52.203125 
Q 41.21875 57.421875 37.46875 61 
Q 33.734375 64.59375 27.734375 64.59375 
Q 21.390625 64.59375 17.578125 60.78125 
Q 13.765625 56.984375 13.71875 50.25 
L 4.6875 51.171875 
Q 5.609375 61.28125 11.65625 66.578125 
Q 17.71875 71.875 27.9375 71.875 
Q 38.234375 71.875 44.234375 66.15625 
Q 50.25 60.453125 50.25 52 
Q 50.25 47.703125 48.484375 43.546875 
Q 46.734375 39.40625 42.65625 34.8125 
Q 38.578125 30.21875 29.109375 22.21875 
Q 21.1875 15.578125 18.9375 13.203125 
Q 16.703125 10.84375 15.234375 8.453125 
z
" id="ArialMT-50"/>
      </defs>
      <g style="fill:#262626;" transform="translate(332.872122 300.779078)scale(0.3 -0.3)">
       <use xlink:href="#ArialMT-50"/>
      </g>
     </g>
    </g>
    <g id="xtick_3">
     <g id="line2d_5">
      <path clip-path="url(#p29245a6eef)" d="M 448.686563 275.80564 
L 448.686563 43.78125 
" style="fill:none;stroke:#ffffff;stroke-linecap:round;stroke-width:0.8;"/>
     </g>
     <g id="line2d_6"/>
     <g id="text_3">
      <!-- 3 -->
      <defs>
       <path d="M 4.203125 18.890625 
L 12.984375 20.0625 
Q 14.5 12.59375 18.140625 9.296875 
Q 21.78125 6 27 6 
Q 33.203125 6 37.46875 10.296875 
Q 41.75 14.59375 41.75 20.953125 
Q 41.75 27 37.796875 30.921875 
Q 33.84375 34.859375 27.734375 34.859375 
Q 25.25 34.859375 21.53125 33.890625 
L 22.515625 41.609375 
Q 23.390625 41.5 23.921875 41.5 
Q 29.546875 41.5 34.03125 44.421875 
Q 38.53125 47.359375 38.53125 53.46875 
Q 38.53125 58.296875 35.25 61.46875 
Q 31.984375 64.65625 26.8125 64.65625 
Q 21.6875 64.65625 18.265625 61.421875 
Q 14.84375 58.203125 13.875 51.765625 
L 5.078125 53.328125 
Q 6.6875 62.15625 12.390625 67.015625 
Q 18.109375 71.875 26.609375 71.875 
Q 32.46875 71.875 37.390625 69.359375 
Q 42.328125 66.84375 44.9375 62.5 
Q 47.5625 58.15625 47.5625 53.265625 
Q 47.5625 48.640625 45.0625 44.828125 
Q 42.578125 41.015625 37.703125 38.765625 
Q 44.046875 37.3125 47.5625 32.6875 
Q 51.078125 28.078125 51.078125 21.140625 
Q 51.078125 11.765625 44.234375 5.25 
Q 37.40625 -1.265625 26.953125 -1.265625 
Q 17.53125 -1.265625 11.296875 4.34375 
Q 5.078125 9.96875 4.203125 18.890625 
z
" id="ArialMT-51"/>
      </defs>
      <g style="fill:#262626;" transform="translate(440.345157 300.779078)scale(0.3 -0.3)">
       <use xlink:href="#ArialMT-51"/>
      </g>
     </g>
    </g>
    <g id="xtick_4">
     <g id="line2d_7">
      <path clip-path="url(#p29245a6eef)" d="M 556.159599 275.80564 
L 556.159599 43.78125 
" style="fill:none;stroke:#ffffff;stroke-linecap:round;stroke-width:0.8;"/>
     </g>
     <g id="line2d_8"/>
     <g id="text_4">
      <!-- 4 -->
      <defs>
       <path d="M 32.328125 0 
L 32.328125 17.140625 
L 1.265625 17.140625 
L 1.265625 25.203125 
L 33.9375 71.578125 
L 41.109375 71.578125 
L 41.109375 25.203125 
L 50.78125 25.203125 
L 50.78125 17.140625 
L 41.109375 17.140625 
L 41.109375 0 
z
M 32.328125 25.203125 
L 32.328125 57.46875 
L 9.90625 25.203125 
z
" id="ArialMT-52"/>
      </defs>
      <g style="fill:#262626;" transform="translate(547.818193 300.779078)scale(0.3 -0.3)">
       <use xlink:href="#ArialMT-52"/>
      </g>
     </g>
    </g>
    <g id="xtick_5">
     <g id="line2d_9">
      <path clip-path="url(#p29245a6eef)" d="M 663.632634 275.80564 
L 663.632634 43.78125 
" style="fill:none;stroke:#ffffff;stroke-linecap:round;stroke-width:0.8;"/>
     </g>
     <g id="line2d_10"/>
     <g id="text_5">
      <!-- 5 -->
      <defs>
       <path d="M 4.15625 18.75 
L 13.375 19.53125 
Q 14.40625 12.796875 18.140625 9.390625 
Q 21.875 6 27.15625 6 
Q 33.5 6 37.890625 10.78125 
Q 42.28125 15.578125 42.28125 23.484375 
Q 42.28125 31 38.0625 35.34375 
Q 33.84375 39.703125 27 39.703125 
Q 22.75 39.703125 19.328125 37.765625 
Q 15.921875 35.84375 13.96875 32.765625 
L 5.71875 33.84375 
L 12.640625 70.609375 
L 48.25 70.609375 
L 48.25 62.203125 
L 19.671875 62.203125 
L 15.828125 42.96875 
Q 22.265625 47.46875 29.34375 47.46875 
Q 38.71875 47.46875 45.15625 40.96875 
Q 51.609375 34.46875 51.609375 24.265625 
Q 51.609375 14.546875 45.953125 7.46875 
Q 39.0625 -1.21875 27.15625 -1.21875 
Q 17.390625 -1.21875 11.203125 4.25 
Q 5.03125 9.71875 4.15625 18.75 
z
" id="ArialMT-53"/>
      </defs>
      <g style="fill:#262626;" transform="translate(655.291228 300.779078)scale(0.3 -0.3)">
       <use xlink:href="#ArialMT-53"/>
      </g>
     </g>
    </g>
    <g id="xtick_6">
     <g id="line2d_11">
      <path clip-path="url(#p29245a6eef)" d="M 771.10567 275.80564 
L 771.10567 43.78125 
" style="fill:none;stroke:#ffffff;stroke-linecap:round;stroke-width:0.8;"/>
     </g>
     <g id="line2d_12"/>
     <g id="text_6">
      <!-- 6 -->
      <defs>
       <path d="M 49.75 54.046875 
L 41.015625 53.375 
Q 39.84375 58.546875 37.703125 60.890625 
Q 34.125 64.65625 28.90625 64.65625 
Q 24.703125 64.65625 21.53125 62.3125 
Q 17.390625 59.28125 14.984375 53.46875 
Q 12.59375 47.65625 12.5 36.921875 
Q 15.671875 41.75 20.265625 44.09375 
Q 24.859375 46.4375 29.890625 46.4375 
Q 38.671875 46.4375 44.84375 39.96875 
Q 51.03125 33.5 51.03125 23.25 
Q 51.03125 16.5 48.125 10.71875 
Q 45.21875 4.9375 40.140625 1.859375 
Q 35.0625 -1.21875 28.609375 -1.21875 
Q 17.625 -1.21875 10.6875 6.859375 
Q 3.765625 14.9375 3.765625 33.5 
Q 3.765625 54.25 11.421875 63.671875 
Q 18.109375 71.875 29.4375 71.875 
Q 37.890625 71.875 43.28125 67.140625 
Q 48.6875 62.40625 49.75 54.046875 
z
M 13.875 23.1875 
Q 13.875 18.65625 15.796875 14.5 
Q 17.71875 10.359375 21.1875 8.171875 
Q 24.65625 6 28.46875 6 
Q 34.03125 6 38.03125 10.484375 
Q 42.046875 14.984375 42.046875 22.703125 
Q 42.046875 30.125 38.078125 34.390625 
Q 34.125 38.671875 28.125 38.671875 
Q 22.171875 38.671875 18.015625 34.390625 
Q 13.875 30.125 13.875 23.1875 
z
" id="ArialMT-54"/>
      </defs>
      <g style="fill:#262626;" transform="translate(762.764264 300.779078)scale(0.3 -0.3)">
       <use xlink:href="#ArialMT-54"/>
      </g>
     </g>
    </g>
    <g id="xtick_7">
     <g id="line2d_13">
      <path clip-path="url(#p29245a6eef)" d="M 878.578705 275.80564 
L 878.578705 43.78125 
" style="fill:none;stroke:#ffffff;stroke-linecap:round;stroke-width:0.8;"/>
     </g>
     <g id="line2d_14"/>
     <g id="text_7">
      <!-- 7 -->
      <defs>
       <path d="M 4.734375 62.203125 
L 4.734375 70.65625 
L 51.078125 70.65625 
L 51.078125 63.8125 
Q 44.234375 56.546875 37.515625 44.484375 
Q 30.8125 32.421875 27.15625 19.671875 
Q 24.515625 10.6875 23.78125 0 
L 14.75 0 
Q 14.890625 8.453125 18.0625 20.40625 
Q 21.234375 32.375 27.171875 43.484375 
Q 33.109375 54.59375 39.796875 62.203125 
z
" id="ArialMT-55"/>
      </defs>
      <g style="fill:#262626;" transform="translate(870.237299 300.779078)scale(0.3 -0.3)">
       <use xlink:href="#ArialMT-55"/>
      </g>
     </g>
    </g>
    <g id="xtick_8">
     <g id="line2d_15">
      <path clip-path="url(#p29245a6eef)" d="M 986.051741 275.80564 
L 986.051741 43.78125 
" style="fill:none;stroke:#ffffff;stroke-linecap:round;stroke-width:0.8;"/>
     </g>
     <g id="line2d_16"/>
     <g id="text_8">
      <!-- 8 -->
      <defs>
       <path d="M 17.671875 38.8125 
Q 12.203125 40.828125 9.5625 44.53125 
Q 6.9375 48.25 6.9375 53.421875 
Q 6.9375 61.234375 12.546875 66.546875 
Q 18.171875 71.875 27.484375 71.875 
Q 36.859375 71.875 42.578125 66.421875 
Q 48.296875 60.984375 48.296875 53.171875 
Q 48.296875 48.1875 45.671875 44.5 
Q 43.0625 40.828125 37.75 38.8125 
Q 44.34375 36.671875 47.78125 31.875 
Q 51.21875 27.09375 51.21875 20.453125 
Q 51.21875 11.28125 44.71875 5.03125 
Q 38.234375 -1.21875 27.640625 -1.21875 
Q 17.046875 -1.21875 10.546875 5.046875 
Q 4.046875 11.328125 4.046875 20.703125 
Q 4.046875 27.6875 7.59375 32.390625 
Q 11.140625 37.109375 17.671875 38.8125 
z
M 15.921875 53.71875 
Q 15.921875 48.640625 19.1875 45.40625 
Q 22.46875 42.1875 27.6875 42.1875 
Q 32.765625 42.1875 36.015625 45.375 
Q 39.265625 48.578125 39.265625 53.21875 
Q 39.265625 58.0625 35.90625 61.359375 
Q 32.5625 64.65625 27.59375 64.65625 
Q 22.5625 64.65625 19.234375 61.421875 
Q 15.921875 58.203125 15.921875 53.71875 
z
M 13.09375 20.65625 
Q 13.09375 16.890625 14.875 13.375 
Q 16.65625 9.859375 20.171875 7.921875 
Q 23.6875 6 27.734375 6 
Q 34.03125 6 38.125 10.046875 
Q 42.234375 14.109375 42.234375 20.359375 
Q 42.234375 26.703125 38.015625 30.859375 
Q 33.796875 35.015625 27.4375 35.015625 
Q 21.234375 35.015625 17.15625 30.90625 
Q 13.09375 26.8125 13.09375 20.65625 
z
" id="ArialMT-56"/>
      </defs>
      <g style="fill:#262626;" transform="translate(977.710334 300.779078)scale(0.3 -0.3)">
       <use xlink:href="#ArialMT-56"/>
      </g>
     </g>
    </g>
    <g id="xtick_9">
     <g id="line2d_17">
      <path clip-path="url(#p29245a6eef)" d="M 1093.524776 275.80564 
L 1093.524776 43.78125 
" style="fill:none;stroke:#ffffff;stroke-linecap:round;stroke-width:0.8;"/>
     </g>
     <g id="line2d_18"/>
     <g id="text_9">
      <!-- 9 -->
      <defs>
       <path d="M 5.46875 16.546875 
L 13.921875 17.328125 
Q 14.984375 11.375 18.015625 8.6875 
Q 21.046875 6 25.78125 6 
Q 29.828125 6 32.875 7.859375 
Q 35.9375 9.71875 37.890625 12.8125 
Q 39.84375 15.921875 41.15625 21.1875 
Q 42.484375 26.46875 42.484375 31.9375 
Q 42.484375 32.515625 42.4375 33.6875 
Q 39.796875 29.5 35.234375 26.875 
Q 30.671875 24.265625 25.34375 24.265625 
Q 16.453125 24.265625 10.296875 30.703125 
Q 4.15625 37.15625 4.15625 47.703125 
Q 4.15625 58.59375 10.578125 65.234375 
Q 17 71.875 26.65625 71.875 
Q 33.640625 71.875 39.421875 68.109375 
Q 45.21875 64.359375 48.21875 57.390625 
Q 51.21875 50.4375 51.21875 37.25 
Q 51.21875 23.53125 48.234375 15.40625 
Q 45.265625 7.28125 39.375 3.03125 
Q 33.5 -1.21875 25.59375 -1.21875 
Q 17.1875 -1.21875 11.859375 3.4375 
Q 6.546875 8.109375 5.46875 16.546875 
z
M 41.453125 48.140625 
Q 41.453125 55.71875 37.421875 60.15625 
Q 33.40625 64.59375 27.734375 64.59375 
Q 21.875 64.59375 17.53125 59.8125 
Q 13.1875 55.03125 13.1875 47.40625 
Q 13.1875 40.578125 17.3125 36.296875 
Q 21.4375 32.03125 27.484375 32.03125 
Q 33.59375 32.03125 37.515625 36.296875 
Q 41.453125 40.578125 41.453125 48.140625 
z
" id="ArialMT-57"/>
      </defs>
      <g style="fill:#262626;" transform="translate(1085.18337 300.779078)scale(0.3 -0.3)">
       <use xlink:href="#ArialMT-57"/>
      </g>
     </g>
    </g>
    <g id="xtick_10">
     <g id="line2d_19">
      <path clip-path="url(#p29245a6eef)" d="M 1200.997812 275.80564 
L 1200.997812 43.78125 
" style="fill:none;stroke:#ffffff;stroke-linecap:round;stroke-width:0.8;"/>
     </g>
     <g id="line2d_20"/>
     <g id="text_10">
      <!-- 10 -->
      <defs>
       <path d="M 4.15625 35.296875 
Q 4.15625 48 6.765625 55.734375 
Q 9.375 63.484375 14.515625 67.671875 
Q 19.671875 71.875 27.484375 71.875 
Q 33.25 71.875 37.59375 69.546875 
Q 41.9375 67.234375 44.765625 62.859375 
Q 47.609375 58.5 49.21875 52.21875 
Q 50.828125 45.953125 50.828125 35.296875 
Q 50.828125 22.703125 48.234375 14.96875 
Q 45.65625 7.234375 40.5 3 
Q 35.359375 -1.21875 27.484375 -1.21875 
Q 17.140625 -1.21875 11.234375 6.203125 
Q 4.15625 15.140625 4.15625 35.296875 
z
M 13.1875 35.296875 
Q 13.1875 17.671875 17.3125 11.828125 
Q 21.4375 6 27.484375 6 
Q 33.546875 6 37.671875 11.859375 
Q 41.796875 17.71875 41.796875 35.296875 
Q 41.796875 52.984375 37.671875 58.78125 
Q 33.546875 64.59375 27.390625 64.59375 
Q 21.34375 64.59375 17.71875 59.46875 
Q 13.1875 52.9375 13.1875 35.296875 
z
" id="ArialMT-48"/>
      </defs>
      <g style="fill:#262626;" transform="translate(1184.314999 300.779078)scale(0.3 -0.3)">
       <use xlink:href="#ArialMT-49"/>
       <use x="55.615234" xlink:href="#ArialMT-48"/>
      </g>
     </g>
    </g>
    <g id="xtick_11">
     <g id="line2d_21">
      <path clip-path="url(#p29245a6eef)" d="M 1308.470847 275.80564 
L 1308.470847 43.78125 
" style="fill:none;stroke:#ffffff;stroke-linecap:round;stroke-width:0.8;"/>
     </g>
     <g id="line2d_22"/>
     <g id="text_11">
      <!-- 11 -->
      <g style="fill:#262626;" transform="translate(1292.894284 300.779078)scale(0.3 -0.3)">
       <use xlink:href="#ArialMT-49"/>
       <use x="48.240234" xlink:href="#ArialMT-49"/>
      </g>
     </g>
    </g>
    <g id="xtick_12">
     <g id="line2d_23">
      <path clip-path="url(#p29245a6eef)" d="M 1415.943882 275.80564 
L 1415.943882 43.78125 
" style="fill:none;stroke:#ffffff;stroke-linecap:round;stroke-width:0.8;"/>
     </g>
     <g id="line2d_24"/>
     <g id="text_12">
      <!-- 12 -->
      <g style="fill:#262626;" transform="translate(1399.26107 300.779078)scale(0.3 -0.3)">
       <use xlink:href="#ArialMT-49"/>
       <use x="55.615234" xlink:href="#ArialMT-50"/>
      </g>
     </g>
    </g>
    <g id="text_13">
     <!-- Miesiąc -->
     <defs>
      <path d="M 7.421875 0 
L 7.421875 71.578125 
L 21.6875 71.578125 
L 38.625 20.90625 
Q 40.96875 13.8125 42.046875 10.296875 
Q 43.265625 14.203125 45.84375 21.78125 
L 62.984375 71.578125 
L 75.734375 71.578125 
L 75.734375 0 
L 66.609375 0 
L 66.609375 59.90625 
L 45.796875 0 
L 37.25 0 
L 16.546875 60.9375 
L 16.546875 0 
z
" id="ArialMT-77"/>
      <path d="M 6.640625 61.46875 
L 6.640625 71.578125 
L 15.4375 71.578125 
L 15.4375 61.46875 
z
M 6.640625 0 
L 6.640625 51.859375 
L 15.4375 51.859375 
L 15.4375 0 
z
" id="ArialMT-105"/>
      <path d="M 42.09375 16.703125 
L 51.171875 15.578125 
Q 49.03125 7.625 43.21875 3.21875 
Q 37.40625 -1.171875 28.375 -1.171875 
Q 17 -1.171875 10.328125 5.828125 
Q 3.65625 12.84375 3.65625 25.484375 
Q 3.65625 38.578125 10.390625 45.796875 
Q 17.140625 53.03125 27.875 53.03125 
Q 38.28125 53.03125 44.875 45.953125 
Q 51.46875 38.875 51.46875 26.03125 
Q 51.46875 25.25 51.421875 23.6875 
L 12.75 23.6875 
Q 13.234375 15.140625 17.578125 10.59375 
Q 21.921875 6.0625 28.421875 6.0625 
Q 33.25 6.0625 36.671875 8.59375 
Q 40.09375 11.140625 42.09375 16.703125 
z
M 13.234375 30.90625 
L 42.1875 30.90625 
Q 41.609375 37.453125 38.875 40.71875 
Q 34.671875 45.796875 27.984375 45.796875 
Q 21.921875 45.796875 17.796875 41.75 
Q 13.671875 37.703125 13.234375 30.90625 
z
" id="ArialMT-101"/>
      <path d="M 3.078125 15.484375 
L 11.765625 16.84375 
Q 12.5 11.625 15.84375 8.84375 
Q 19.1875 6.0625 25.203125 6.0625 
Q 31.25 6.0625 34.171875 8.515625 
Q 37.109375 10.984375 37.109375 14.3125 
Q 37.109375 17.28125 34.515625 19 
Q 32.71875 20.171875 25.53125 21.96875 
Q 15.875 24.421875 12.140625 26.203125 
Q 8.40625 27.984375 6.46875 31.125 
Q 4.546875 34.28125 4.546875 38.09375 
Q 4.546875 41.546875 6.125 44.5 
Q 7.71875 47.46875 10.453125 49.421875 
Q 12.5 50.921875 16.03125 51.96875 
Q 19.578125 53.03125 23.640625 53.03125 
Q 29.734375 53.03125 34.34375 51.265625 
Q 38.96875 49.515625 41.15625 46.5 
Q 43.359375 43.5 44.1875 38.484375 
L 35.59375 37.3125 
Q 35.015625 41.3125 32.203125 43.546875 
Q 29.390625 45.796875 24.265625 45.796875 
Q 18.21875 45.796875 15.625 43.796875 
Q 13.03125 41.796875 13.03125 39.109375 
Q 13.03125 37.40625 14.109375 36.03125 
Q 15.1875 34.625 17.484375 33.6875 
Q 18.796875 33.203125 25.25 31.453125 
Q 34.578125 28.953125 38.25 27.359375 
Q 41.9375 25.78125 44.03125 22.75 
Q 46.140625 19.734375 46.140625 15.234375 
Q 46.140625 10.84375 43.578125 6.953125 
Q 41.015625 3.078125 36.171875 0.953125 
Q 31.34375 -1.171875 25.25 -1.171875 
Q 15.140625 -1.171875 9.84375 3.03125 
Q 4.546875 7.234375 3.078125 15.484375 
z
" id="ArialMT-115"/>
      <path d="M 40.4375 6.390625 
Q 35.546875 2.25 31.03125 0.53125 
Q 26.515625 -1.171875 21.34375 -1.171875 
Q 12.796875 -1.171875 8.203125 3 
Q 3.609375 7.171875 3.609375 13.671875 
Q 3.609375 17.484375 5.34375 20.625 
Q 7.078125 23.78125 9.890625 25.6875 
Q 12.703125 27.59375 16.21875 28.5625 
Q 18.796875 29.25 24.03125 29.890625 
Q 34.671875 31.15625 39.703125 32.90625 
Q 39.75 34.71875 39.75 35.203125 
Q 39.75 40.578125 37.25 42.78125 
Q 33.890625 45.75 27.25 45.75 
Q 21.046875 45.75 18.09375 43.578125 
Q 15.140625 41.40625 13.71875 35.890625 
L 5.125 37.0625 
Q 6.296875 42.578125 8.984375 45.96875 
Q 11.671875 49.359375 16.75 51.1875 
Q 21.828125 53.03125 28.515625 53.03125 
Q 35.15625 53.03125 39.296875 51.46875 
Q 43.453125 49.90625 45.40625 47.53125 
Q 47.359375 45.171875 48.140625 41.546875 
Q 48.578125 39.3125 48.578125 33.453125 
L 48.578125 21.734375 
Q 48.578125 9.46875 49.140625 6.21875 
Q 49.703125 2.984375 51.375 0 
L 42.1875 0 
Q 40.828125 2.734375 40.4375 6.390625 
z
M 39.703125 26.03125 
Q 34.90625 24.078125 25.34375 22.703125 
Q 19.921875 21.921875 17.671875 20.9375 
Q 15.4375 19.96875 14.203125 18.09375 
Q 12.984375 16.21875 12.984375 13.921875 
Q 12.984375 10.40625 15.640625 8.0625 
Q 18.3125 5.71875 23.4375 5.71875 
Q 28.515625 5.71875 32.46875 7.9375 
Q 36.421875 10.15625 38.28125 14.015625 
Q 39.703125 17 39.703125 22.796875 
z
M 49.5625 0 
Q 46.78125 -1.703125 45.234375 -4.21875 
Q 43.703125 -6.734375 43.703125 -9.328125 
Q 43.703125 -11.375 44.828125 -12.78125 
Q 45.953125 -14.203125 48.484375 -14.203125 
Q 49.609375 -14.203125 50.78125 -13.890625 
Q 51.953125 -13.578125 52.9375 -13.03125 
L 52.9375 -19.28125 
Q 49.359375 -21 46.296875 -21 
Q 43.796875 -21 41.9375 -20.28125 
Q 40.09375 -19.578125 38.84375 -18.328125 
Q 37.59375 -17.09375 36.984375 -15.484375 
Q 36.375 -13.875 36.375 -12.015625 
Q 36.375 -8.890625 38.125 -5.734375 
Q 39.890625 -2.59375 43.109375 0 
z
" id="ArialMT-261"/>
      <path d="M 40.4375 19 
L 49.078125 17.875 
Q 47.65625 8.9375 41.8125 3.875 
Q 35.984375 -1.171875 27.484375 -1.171875 
Q 16.84375 -1.171875 10.375 5.78125 
Q 3.90625 12.75 3.90625 25.734375 
Q 3.90625 34.125 6.6875 40.421875 
Q 9.46875 46.734375 15.15625 49.875 
Q 20.84375 53.03125 27.546875 53.03125 
Q 35.984375 53.03125 41.359375 48.75 
Q 46.734375 44.484375 48.25 36.625 
L 39.703125 35.296875 
Q 38.484375 40.53125 35.375 43.15625 
Q 32.28125 45.796875 27.875 45.796875 
Q 21.234375 45.796875 17.078125 41.03125 
Q 12.9375 36.28125 12.9375 25.984375 
Q 12.9375 15.53125 16.9375 10.796875 
Q 20.953125 6.0625 27.390625 6.0625 
Q 32.5625 6.0625 36.03125 9.234375 
Q 39.5 12.40625 40.4375 19 
z
" id="ArialMT-99"/>
     </defs>
     <g style="fill:#262626;" transform="translate(765.525391 335.793921)scale(0.35 -0.35)">
      <use xlink:href="#ArialMT-77"/>
      <use x="83.300781" xlink:href="#ArialMT-105"/>
      <use x="105.517578" xlink:href="#ArialMT-101"/>
      <use x="161.132812" xlink:href="#ArialMT-115"/>
      <use x="211.132812" xlink:href="#ArialMT-105"/>
      <use x="233.349609" xlink:href="#ArialMT-261"/>
      <use x="288.964844" xlink:href="#ArialMT-99"/>
     </g>
    </g>
   </g>
   <g id="matplotlib.axis_2">
    <g id="ytick_1">
     <g id="line2d_25">
      <path clip-path="url(#p29245a6eef)" d="M 127.342188 275.80564 
L 1522.342187 275.80564 
" style="fill:none;stroke:#ffffff;stroke-linecap:round;stroke-width:0.8;"/>
     </g>
     <g id="line2d_26"/>
     <g id="text_14">
      <!-- 0 -->
      <g style="fill:#262626;" transform="translate(107.715469 286.184468)scale(0.29 -0.29)">
       <use xlink:href="#ArialMT-48"/>
      </g>
     </g>
    </g>
    <g id="ytick_2">
     <g id="line2d_27">
      <path clip-path="url(#p29245a6eef)" d="M 127.342188 207.563173 
L 1522.342187 207.563173 
" style="fill:none;stroke:#ffffff;stroke-linecap:round;stroke-width:0.8;"/>
     </g>
     <g id="line2d_28"/>
     <g id="text_15">
      <!-- 5000 -->
      <g style="fill:#262626;" transform="translate(59.335313 217.942001)scale(0.29 -0.29)">
       <use xlink:href="#ArialMT-53"/>
       <use x="55.615234" xlink:href="#ArialMT-48"/>
       <use x="111.230469" xlink:href="#ArialMT-48"/>
       <use x="166.845703" xlink:href="#ArialMT-48"/>
      </g>
     </g>
    </g>
    <g id="ytick_3">
     <g id="line2d_29">
      <path clip-path="url(#p29245a6eef)" d="M 127.342188 139.320705 
L 1522.342187 139.320705 
" style="fill:none;stroke:#ffffff;stroke-linecap:round;stroke-width:0.8;"/>
     </g>
     <g id="line2d_30"/>
     <g id="text_16">
      <!-- 10000 -->
      <g style="fill:#262626;" transform="translate(43.208594 149.699533)scale(0.29 -0.29)">
       <use xlink:href="#ArialMT-49"/>
       <use x="55.615234" xlink:href="#ArialMT-48"/>
       <use x="111.230469" xlink:href="#ArialMT-48"/>
       <use x="166.845703" xlink:href="#ArialMT-48"/>
       <use x="222.460938" xlink:href="#ArialMT-48"/>
      </g>
     </g>
    </g>
    <g id="ytick_4">
     <g id="line2d_31">
      <path clip-path="url(#p29245a6eef)" d="M 127.342188 71.078237 
L 1522.342187 71.078237 
" style="fill:none;stroke:#ffffff;stroke-linecap:round;stroke-width:0.8;"/>
     </g>
     <g id="line2d_32"/>
     <g id="text_17">
      <!-- 15000 -->
      <g style="fill:#262626;" transform="translate(43.208594 81.457065)scale(0.29 -0.29)">
       <use xlink:href="#ArialMT-49"/>
       <use x="55.615234" xlink:href="#ArialMT-53"/>
       <use x="111.230469" xlink:href="#ArialMT-48"/>
       <use x="166.845703" xlink:href="#ArialMT-48"/>
       <use x="222.460938" xlink:href="#ArialMT-48"/>
      </g>
     </g>
    </g>
    <g id="text_18">
     <!-- Liczba lotów -->
     <defs>
      <path d="M 7.328125 0 
L 7.328125 71.578125 
L 16.796875 71.578125 
L 16.796875 8.453125 
L 52.046875 8.453125 
L 52.046875 0 
z
" id="ArialMT-76"/>
      <path d="M 1.953125 0 
L 1.953125 7.125 
L 34.96875 45.015625 
Q 29.34375 44.734375 25.046875 44.734375 
L 3.90625 44.734375 
L 3.90625 51.859375 
L 46.296875 51.859375 
L 46.296875 46.046875 
L 18.21875 13.140625 
L 12.796875 7.125 
Q 18.703125 7.5625 23.875 7.5625 
L 47.859375 7.5625 
L 47.859375 0 
z
" id="ArialMT-122"/>
      <path d="M 14.703125 0 
L 6.546875 0 
L 6.546875 71.578125 
L 15.328125 71.578125 
L 15.328125 46.046875 
Q 20.90625 53.03125 29.546875 53.03125 
Q 34.328125 53.03125 38.59375 51.09375 
Q 42.875 49.171875 45.625 45.671875 
Q 48.390625 42.1875 49.953125 37.25 
Q 51.515625 32.328125 51.515625 26.703125 
Q 51.515625 13.375 44.921875 6.09375 
Q 38.328125 -1.171875 29.109375 -1.171875 
Q 19.921875 -1.171875 14.703125 6.5 
z
M 14.59375 26.3125 
Q 14.59375 17 17.140625 12.84375 
Q 21.296875 6.0625 28.375 6.0625 
Q 34.125 6.0625 38.328125 11.0625 
Q 42.53125 16.0625 42.53125 25.984375 
Q 42.53125 36.140625 38.5 40.96875 
Q 34.46875 45.796875 28.765625 45.796875 
Q 23 45.796875 18.796875 40.796875 
Q 14.59375 35.796875 14.59375 26.3125 
z
" id="ArialMT-98"/>
      <path d="M 40.4375 6.390625 
Q 35.546875 2.25 31.03125 0.53125 
Q 26.515625 -1.171875 21.34375 -1.171875 
Q 12.796875 -1.171875 8.203125 3 
Q 3.609375 7.171875 3.609375 13.671875 
Q 3.609375 17.484375 5.34375 20.625 
Q 7.078125 23.78125 9.890625 25.6875 
Q 12.703125 27.59375 16.21875 28.5625 
Q 18.796875 29.25 24.03125 29.890625 
Q 34.671875 31.15625 39.703125 32.90625 
Q 39.75 34.71875 39.75 35.203125 
Q 39.75 40.578125 37.25 42.78125 
Q 33.890625 45.75 27.25 45.75 
Q 21.046875 45.75 18.09375 43.578125 
Q 15.140625 41.40625 13.71875 35.890625 
L 5.125 37.0625 
Q 6.296875 42.578125 8.984375 45.96875 
Q 11.671875 49.359375 16.75 51.1875 
Q 21.828125 53.03125 28.515625 53.03125 
Q 35.15625 53.03125 39.296875 51.46875 
Q 43.453125 49.90625 45.40625 47.53125 
Q 47.359375 45.171875 48.140625 41.546875 
Q 48.578125 39.3125 48.578125 33.453125 
L 48.578125 21.734375 
Q 48.578125 9.46875 49.140625 6.21875 
Q 49.703125 2.984375 51.375 0 
L 42.1875 0 
Q 40.828125 2.734375 40.4375 6.390625 
z
M 39.703125 26.03125 
Q 34.90625 24.078125 25.34375 22.703125 
Q 19.921875 21.921875 17.671875 20.9375 
Q 15.4375 19.96875 14.203125 18.09375 
Q 12.984375 16.21875 12.984375 13.921875 
Q 12.984375 10.40625 15.640625 8.0625 
Q 18.3125 5.71875 23.4375 5.71875 
Q 28.515625 5.71875 32.46875 7.9375 
Q 36.421875 10.15625 38.28125 14.015625 
Q 39.703125 17 39.703125 22.796875 
z
" id="ArialMT-97"/>
      <path id="ArialMT-32"/>
      <path d="M 6.390625 0 
L 6.390625 71.578125 
L 15.1875 71.578125 
L 15.1875 0 
z
" id="ArialMT-108"/>
      <path d="M 3.328125 25.921875 
Q 3.328125 40.328125 11.328125 47.265625 
Q 18.015625 53.03125 27.640625 53.03125 
Q 38.328125 53.03125 45.109375 46.015625 
Q 51.90625 39.015625 51.90625 26.65625 
Q 51.90625 16.65625 48.90625 10.90625 
Q 45.90625 5.171875 40.15625 2 
Q 34.421875 -1.171875 27.640625 -1.171875 
Q 16.75 -1.171875 10.03125 5.8125 
Q 3.328125 12.796875 3.328125 25.921875 
z
M 12.359375 25.921875 
Q 12.359375 15.96875 16.703125 11.015625 
Q 21.046875 6.0625 27.640625 6.0625 
Q 34.1875 6.0625 38.53125 11.03125 
Q 42.875 16.015625 42.875 26.21875 
Q 42.875 35.84375 38.5 40.796875 
Q 34.125 45.75 27.640625 45.75 
Q 21.046875 45.75 16.703125 40.8125 
Q 12.359375 35.890625 12.359375 25.921875 
z
" id="ArialMT-111"/>
      <path d="M 25.78125 7.859375 
L 27.046875 0.09375 
Q 23.34375 -0.6875 20.40625 -0.6875 
Q 15.625 -0.6875 12.984375 0.828125 
Q 10.359375 2.34375 9.28125 4.8125 
Q 8.203125 7.28125 8.203125 15.1875 
L 8.203125 45.015625 
L 1.765625 45.015625 
L 1.765625 51.859375 
L 8.203125 51.859375 
L 8.203125 64.703125 
L 16.9375 69.96875 
L 16.9375 51.859375 
L 25.78125 51.859375 
L 25.78125 45.015625 
L 16.9375 45.015625 
L 16.9375 14.703125 
Q 16.9375 10.9375 17.40625 9.859375 
Q 17.875 8.796875 18.921875 8.15625 
Q 19.96875 7.515625 21.921875 7.515625 
Q 23.390625 7.515625 25.78125 7.859375 
z
" id="ArialMT-116"/>
      <path d="M 3.328125 25.921875 
Q 3.328125 40.328125 11.328125 47.265625 
Q 18.015625 53.03125 27.640625 53.03125 
Q 38.328125 53.03125 45.109375 46.015625 
Q 51.90625 39.015625 51.90625 26.65625 
Q 51.90625 16.65625 48.90625 10.90625 
Q 45.90625 5.171875 40.15625 2 
Q 34.421875 -1.171875 27.640625 -1.171875 
Q 16.75 -1.171875 10.03125 5.8125 
Q 3.328125 12.796875 3.328125 25.921875 
z
M 12.359375 25.921875 
Q 12.359375 15.96875 16.703125 11.015625 
Q 21.046875 6.0625 27.640625 6.0625 
Q 34.1875 6.0625 38.53125 11.03125 
Q 42.875 16.015625 42.875 26.21875 
Q 42.875 35.84375 38.5 40.796875 
Q 34.125 45.75 27.640625 45.75 
Q 21.046875 45.75 16.703125 40.8125 
Q 12.359375 35.890625 12.359375 25.921875 
z
M 22.75 58.296875 
L 29.25 71.96875 
L 40.765625 71.96875 
L 30.03125 58.296875 
z
" id="ArialMT-243"/>
      <path d="M 16.15625 0 
L 0.296875 51.859375 
L 9.375 51.859375 
L 17.625 21.921875 
L 20.703125 10.796875 
Q 20.90625 11.625 23.390625 21.484375 
L 31.640625 51.859375 
L 40.671875 51.859375 
L 48.4375 21.78125 
L 51.03125 11.859375 
L 54 21.875 
L 62.890625 51.859375 
L 71.4375 51.859375 
L 55.21875 0 
L 46.09375 0 
L 37.84375 31.0625 
L 35.84375 39.890625 
L 25.34375 0 
z
" id="ArialMT-119"/>
     </defs>
     <g style="fill:#262626;" transform="translate(32.252344 256.089929)rotate(-90)scale(0.35 -0.35)">
      <use xlink:href="#ArialMT-76"/>
      <use x="55.615234" xlink:href="#ArialMT-105"/>
      <use x="77.832031" xlink:href="#ArialMT-99"/>
      <use x="127.832031" xlink:href="#ArialMT-122"/>
      <use x="177.832031" xlink:href="#ArialMT-98"/>
      <use x="233.447266" xlink:href="#ArialMT-97"/>
      <use x="289.0625" xlink:href="#ArialMT-32"/>
      <use x="316.845703" xlink:href="#ArialMT-108"/>
      <use x="339.0625" xlink:href="#ArialMT-111"/>
      <use x="394.677734" xlink:href="#ArialMT-116"/>
      <use x="422.460938" xlink:href="#ArialMT-243"/>
      <use x="478.076172" xlink:href="#ArialMT-119"/>
     </g>
    </g>
   </g>
   <g id="patch_3">
    <path clip-path="url(#p29245a6eef)" d="M 190.751278 275.80564 
L 276.729707 275.80564 
L 276.729707 126.218151 
L 190.751278 126.218151 
z
" style="fill:#1e90ff;stroke:#000000;stroke-linejoin:miter;"/>
   </g>
   <g id="patch_4">
    <path clip-path="url(#p29245a6eef)" d="M 298.224314 275.80564 
L 384.202742 275.80564 
L 384.202742 118.61594 
L 298.224314 118.61594 
z
" style="fill:#00bfff;stroke:#000000;stroke-linejoin:miter;"/>
   </g>
   <g id="patch_5">
    <path clip-path="url(#p29245a6eef)" d="M 405.697349 275.80564 
L 491.675778 275.80564 
L 491.675778 93.325282 
L 405.697349 93.325282 
z
" style="fill:#006400;stroke:#000000;stroke-linejoin:miter;"/>
   </g>
   <g id="patch_6">
    <path clip-path="url(#p29245a6eef)" d="M 513.170385 275.80564 
L 599.148813 275.80564 
L 599.148813 120.799699 
L 513.170385 120.799699 
z
" style="fill:#228b22;stroke:#000000;stroke-linejoin:miter;"/>
   </g>
   <g id="patch_7">
    <path clip-path="url(#p29245a6eef)" d="M 620.64342 275.80564 
L 706.621849 275.80564 
L 706.621849 102.087614 
L 620.64342 102.087614 
z
" style="fill:#2e8b57;stroke:#000000;stroke-linejoin:miter;"/>
   </g>
   <g id="patch_8">
    <path clip-path="url(#p29245a6eef)" d="M 728.116456 275.80564 
L 814.094884 275.80564 
L 814.094884 73.657802 
L 728.116456 73.657802 
z
" style="fill:#dc143c;stroke:#000000;stroke-linejoin:miter;"/>
   </g>
   <g id="patch_9">
    <path clip-path="url(#p29245a6eef)" d="M 835.589491 275.80564 
L 921.567919 275.80564 
L 921.567919 107.574309 
L 835.589491 107.574309 
z
" style="fill:#cd5c5c;stroke:#000000;stroke-linejoin:miter;"/>
   </g>
   <g id="patch_10">
    <path clip-path="url(#p29245a6eef)" d="M 943.062526 275.80564 
L 1029.040955 275.80564 
L 1029.040955 90.145183 
L 943.062526 90.145183 
z
" style="fill:#fa8072;stroke:#000000;stroke-linejoin:miter;"/>
   </g>
   <g id="patch_11">
    <path clip-path="url(#p29245a6eef)" d="M 1050.535562 275.80564 
L 1136.51399 275.80564 
L 1136.51399 93.420821 
L 1050.535562 93.420821 
z
" style="fill:#ffa500;stroke:#000000;stroke-linejoin:miter;"/>
   </g>
   <g id="patch_12">
    <path clip-path="url(#p29245a6eef)" d="M 1158.008597 275.80564 
L 1243.987026 275.80564 
L 1243.987026 84.5493 
L 1158.008597 84.5493 
z
" style="fill:#ffd700;stroke:#000000;stroke-linejoin:miter;"/>
   </g>
   <g id="patch_13">
    <path clip-path="url(#p29245a6eef)" d="M 1265.481633 275.80564 
L 1351.460061 275.80564 
L 1351.460061 108.816322 
L 1265.481633 108.816322 
z
" style="fill:#ffff00;stroke:#000000;stroke-linejoin:miter;"/>
   </g>
   <g id="patch_14">
    <path clip-path="url(#p29245a6eef)" d="M 1372.954668 275.80564 
L 1458.933097 275.80564 
L 1458.933097 144.193217 
L 1372.954668 144.193217 
z
" style="fill:#4169e1;stroke:#000000;stroke-linejoin:miter;"/>
   </g>
   <g id="patch_15">
    <path d="M 127.342188 275.80564 
L 127.342188 43.78125 
" style="fill:none;"/>
   </g>
   <g id="patch_16">
    <path d="M 1522.342187 275.80564 
L 1522.342187 43.78125 
" style="fill:none;"/>
   </g>
   <g id="patch_17">
    <path d="M 127.342188 275.80564 
L 1522.342187 275.80564 
" style="fill:none;"/>
   </g>
   <g id="patch_18">
    <path d="M 127.342188 43.78125 
L 1522.342187 43.78125 
" style="fill:none;"/>
   </g>
   <g id="text_19">
    <!-- Rok 2019 -->
    <defs>
     <path d="M 7.859375 0 
L 7.859375 71.578125 
L 39.59375 71.578125 
Q 49.171875 71.578125 54.140625 69.640625 
Q 59.125 67.71875 62.109375 62.828125 
Q 65.09375 57.953125 65.09375 52.046875 
Q 65.09375 44.4375 60.15625 39.203125 
Q 55.21875 33.984375 44.921875 32.5625 
Q 48.6875 30.765625 50.640625 29 
Q 54.78125 25.203125 58.5 19.484375 
L 70.953125 0 
L 59.03125 0 
L 49.5625 14.890625 
Q 45.40625 21.34375 42.71875 24.75 
Q 40.046875 28.171875 37.921875 29.53125 
Q 35.796875 30.90625 33.59375 31.453125 
Q 31.984375 31.78125 28.328125 31.78125 
L 17.328125 31.78125 
L 17.328125 0 
z
M 17.328125 39.984375 
L 37.703125 39.984375 
Q 44.1875 39.984375 47.84375 41.328125 
Q 51.515625 42.671875 53.421875 45.625 
Q 55.328125 48.578125 55.328125 52.046875 
Q 55.328125 57.125 51.640625 60.390625 
Q 47.953125 63.671875 39.984375 63.671875 
L 17.328125 63.671875 
z
" id="ArialMT-82"/>
     <path d="M 6.640625 0 
L 6.640625 71.578125 
L 15.4375 71.578125 
L 15.4375 30.765625 
L 36.234375 51.859375 
L 47.609375 51.859375 
L 27.78125 32.625 
L 49.609375 0 
L 38.765625 0 
L 21.625 26.515625 
L 15.4375 20.5625 
L 15.4375 0 
z
" id="ArialMT-107"/>
    </defs>
    <g style="fill:#262626;" transform="translate(739.232813 35.83125)scale(0.4 -0.4)">
     <use xlink:href="#ArialMT-82"/>
     <use x="72.216797" xlink:href="#ArialMT-111"/>
     <use x="127.832031" xlink:href="#ArialMT-107"/>
     <use x="177.832031" xlink:href="#ArialMT-32"/>
     <use x="205.615234" xlink:href="#ArialMT-50"/>
     <use x="261.230469" xlink:href="#ArialMT-48"/>
     <use x="316.845703" xlink:href="#ArialMT-49"/>
     <use x="372.460938" xlink:href="#ArialMT-57"/>
    </g>
   </g>
  </g>
  <g id="axes_2">
   <g id="patch_19">
    <path d="M 127.342188 693.449543 
L 1522.342187 693.449543 
L 1522.342187 461.425152 
L 127.342188 461.425152 
z
" style="fill:#eaeaf2;"/>
   </g>
   <g id="matplotlib.axis_3">
    <g id="xtick_13">
     <g id="line2d_33">
      <path clip-path="url(#pdfb8ffa76f)" d="M 233.740493 693.449543 
L 233.740493 461.425152 
" style="fill:none;stroke:#ffffff;stroke-linecap:round;stroke-width:0.8;"/>
     </g>
     <g id="line2d_34"/>
     <g id="text_20">
      <!-- 1 -->
      <g style="fill:#262626;" transform="translate(225.399086 718.42298)scale(0.3 -0.3)">
       <use xlink:href="#ArialMT-49"/>
      </g>
     </g>
    </g>
    <g id="xtick_14">
     <g id="line2d_35">
      <path clip-path="url(#pdfb8ffa76f)" d="M 341.213528 693.449543 
L 341.213528 461.425152 
" style="fill:none;stroke:#ffffff;stroke-linecap:round;stroke-width:0.8;"/>
     </g>
     <g id="line2d_36"/>
     <g id="text_21">
      <!-- 2 -->
      <g style="fill:#262626;" transform="translate(332.872122 718.42298)scale(0.3 -0.3)">
       <use xlink:href="#ArialMT-50"/>
      </g>
     </g>
    </g>
    <g id="xtick_15">
     <g id="line2d_37">
      <path clip-path="url(#pdfb8ffa76f)" d="M 448.686563 693.449543 
L 448.686563 461.425152 
" style="fill:none;stroke:#ffffff;stroke-linecap:round;stroke-width:0.8;"/>
     </g>
     <g id="line2d_38"/>
     <g id="text_22">
      <!-- 3 -->
      <g style="fill:#262626;" transform="translate(440.345157 718.42298)scale(0.3 -0.3)">
       <use xlink:href="#ArialMT-51"/>
      </g>
     </g>
    </g>
    <g id="xtick_16">
     <g id="line2d_39">
      <path clip-path="url(#pdfb8ffa76f)" d="M 556.159599 693.449543 
L 556.159599 461.425152 
" style="fill:none;stroke:#ffffff;stroke-linecap:round;stroke-width:0.8;"/>
     </g>
     <g id="line2d_40"/>
     <g id="text_23">
      <!-- 4 -->
      <g style="fill:#262626;" transform="translate(547.818193 718.42298)scale(0.3 -0.3)">
       <use xlink:href="#ArialMT-52"/>
      </g>
     </g>
    </g>
    <g id="xtick_17">
     <g id="line2d_41">
      <path clip-path="url(#pdfb8ffa76f)" d="M 663.632634 693.449543 
L 663.632634 461.425152 
" style="fill:none;stroke:#ffffff;stroke-linecap:round;stroke-width:0.8;"/>
     </g>
     <g id="line2d_42"/>
     <g id="text_24">
      <!-- 5 -->
      <g style="fill:#262626;" transform="translate(655.291228 718.42298)scale(0.3 -0.3)">
       <use xlink:href="#ArialMT-53"/>
      </g>
     </g>
    </g>
    <g id="xtick_18">
     <g id="line2d_43">
      <path clip-path="url(#pdfb8ffa76f)" d="M 771.10567 693.449543 
L 771.10567 461.425152 
" style="fill:none;stroke:#ffffff;stroke-linecap:round;stroke-width:0.8;"/>
     </g>
     <g id="line2d_44"/>
     <g id="text_25">
      <!-- 6 -->
      <g style="fill:#262626;" transform="translate(762.764264 718.42298)scale(0.3 -0.3)">
       <use xlink:href="#ArialMT-54"/>
      </g>
     </g>
    </g>
    <g id="xtick_19">
     <g id="line2d_45">
      <path clip-path="url(#pdfb8ffa76f)" d="M 878.578705 693.449543 
L 878.578705 461.425152 
" style="fill:none;stroke:#ffffff;stroke-linecap:round;stroke-width:0.8;"/>
     </g>
     <g id="line2d_46"/>
     <g id="text_26">
      <!-- 7 -->
      <g style="fill:#262626;" transform="translate(870.237299 718.42298)scale(0.3 -0.3)">
       <use xlink:href="#ArialMT-55"/>
      </g>
     </g>
    </g>
    <g id="xtick_20">
     <g id="line2d_47">
      <path clip-path="url(#pdfb8ffa76f)" d="M 986.051741 693.449543 
L 986.051741 461.425152 
" style="fill:none;stroke:#ffffff;stroke-linecap:round;stroke-width:0.8;"/>
     </g>
     <g id="line2d_48"/>
     <g id="text_27">
      <!-- 8 -->
      <g style="fill:#262626;" transform="translate(977.710334 718.42298)scale(0.3 -0.3)">
       <use xlink:href="#ArialMT-56"/>
      </g>
     </g>
    </g>
    <g id="xtick_21">
     <g id="line2d_49">
      <path clip-path="url(#pdfb8ffa76f)" d="M 1093.524776 693.449543 
L 1093.524776 461.425152 
" style="fill:none;stroke:#ffffff;stroke-linecap:round;stroke-width:0.8;"/>
     </g>
     <g id="line2d_50"/>
     <g id="text_28">
      <!-- 9 -->
      <g style="fill:#262626;" transform="translate(1085.18337 718.42298)scale(0.3 -0.3)">
       <use xlink:href="#ArialMT-57"/>
      </g>
     </g>
    </g>
    <g id="xtick_22">
     <g id="line2d_51">
      <path clip-path="url(#pdfb8ffa76f)" d="M 1200.997812 693.449543 
L 1200.997812 461.425152 
" style="fill:none;stroke:#ffffff;stroke-linecap:round;stroke-width:0.8;"/>
     </g>
     <g id="line2d_52"/>
     <g id="text_29">
      <!-- 10 -->
      <g style="fill:#262626;" transform="translate(1184.314999 718.42298)scale(0.3 -0.3)">
       <use xlink:href="#ArialMT-49"/>
       <use x="55.615234" xlink:href="#ArialMT-48"/>
      </g>
     </g>
    </g>
    <g id="xtick_23">
     <g id="line2d_53">
      <path clip-path="url(#pdfb8ffa76f)" d="M 1308.470847 693.449543 
L 1308.470847 461.425152 
" style="fill:none;stroke:#ffffff;stroke-linecap:round;stroke-width:0.8;"/>
     </g>
     <g id="line2d_54"/>
     <g id="text_30">
      <!-- 11 -->
      <g style="fill:#262626;" transform="translate(1292.894284 718.42298)scale(0.3 -0.3)">
       <use xlink:href="#ArialMT-49"/>
       <use x="48.240234" xlink:href="#ArialMT-49"/>
      </g>
     </g>
    </g>
    <g id="xtick_24">
     <g id="line2d_55">
      <path clip-path="url(#pdfb8ffa76f)" d="M 1415.943882 693.449543 
L 1415.943882 461.425152 
" style="fill:none;stroke:#ffffff;stroke-linecap:round;stroke-width:0.8;"/>
     </g>
     <g id="line2d_56"/>
     <g id="text_31">
      <!-- 12 -->
      <g style="fill:#262626;" transform="translate(1399.26107 718.42298)scale(0.3 -0.3)">
       <use xlink:href="#ArialMT-49"/>
       <use x="55.615234" xlink:href="#ArialMT-50"/>
      </g>
     </g>
    </g>
    <g id="text_32">
     <!-- Miesiąc -->
     <g style="fill:#262626;" transform="translate(765.525391 753.437824)scale(0.35 -0.35)">
      <use xlink:href="#ArialMT-77"/>
      <use x="83.300781" xlink:href="#ArialMT-105"/>
      <use x="105.517578" xlink:href="#ArialMT-101"/>
      <use x="161.132812" xlink:href="#ArialMT-115"/>
      <use x="211.132812" xlink:href="#ArialMT-105"/>
      <use x="233.349609" xlink:href="#ArialMT-261"/>
      <use x="288.964844" xlink:href="#ArialMT-99"/>
     </g>
    </g>
   </g>
   <g id="matplotlib.axis_4">
    <g id="ytick_5">
     <g id="line2d_57">
      <path clip-path="url(#pdfb8ffa76f)" d="M 127.342188 693.449543 
L 1522.342187 693.449543 
" style="fill:none;stroke:#ffffff;stroke-linecap:round;stroke-width:0.8;"/>
     </g>
     <g id="line2d_58"/>
     <g id="text_33">
      <!-- 0 -->
      <g style="fill:#262626;" transform="translate(107.715469 703.828371)scale(0.29 -0.29)">
       <use xlink:href="#ArialMT-48"/>
      </g>
     </g>
    </g>
    <g id="ytick_6">
     <g id="line2d_59">
      <path clip-path="url(#pdfb8ffa76f)" d="M 127.342188 625.207075 
L 1522.342187 625.207075 
" style="fill:none;stroke:#ffffff;stroke-linecap:round;stroke-width:0.8;"/>
     </g>
     <g id="line2d_60"/>
     <g id="text_34">
      <!-- 5000 -->
      <g style="fill:#262626;" transform="translate(59.335313 635.585903)scale(0.29 -0.29)">
       <use xlink:href="#ArialMT-53"/>
       <use x="55.615234" xlink:href="#ArialMT-48"/>
       <use x="111.230469" xlink:href="#ArialMT-48"/>
       <use x="166.845703" xlink:href="#ArialMT-48"/>
      </g>
     </g>
    </g>
    <g id="ytick_7">
     <g id="line2d_61">
      <path clip-path="url(#pdfb8ffa76f)" d="M 127.342188 556.964607 
L 1522.342187 556.964607 
" style="fill:none;stroke:#ffffff;stroke-linecap:round;stroke-width:0.8;"/>
     </g>
     <g id="line2d_62"/>
     <g id="text_35">
      <!-- 10000 -->
      <g style="fill:#262626;" transform="translate(43.208594 567.343435)scale(0.29 -0.29)">
       <use xlink:href="#ArialMT-49"/>
       <use x="55.615234" xlink:href="#ArialMT-48"/>
       <use x="111.230469" xlink:href="#ArialMT-48"/>
       <use x="166.845703" xlink:href="#ArialMT-48"/>
       <use x="222.460938" xlink:href="#ArialMT-48"/>
      </g>
     </g>
    </g>
    <g id="ytick_8">
     <g id="line2d_63">
      <path clip-path="url(#pdfb8ffa76f)" d="M 127.342188 488.72214 
L 1522.342187 488.72214 
" style="fill:none;stroke:#ffffff;stroke-linecap:round;stroke-width:0.8;"/>
     </g>
     <g id="line2d_64"/>
     <g id="text_36">
      <!-- 15000 -->
      <g style="fill:#262626;" transform="translate(43.208594 499.100968)scale(0.29 -0.29)">
       <use xlink:href="#ArialMT-49"/>
       <use x="55.615234" xlink:href="#ArialMT-53"/>
       <use x="111.230469" xlink:href="#ArialMT-48"/>
       <use x="166.845703" xlink:href="#ArialMT-48"/>
       <use x="222.460938" xlink:href="#ArialMT-48"/>
      </g>
     </g>
    </g>
    <g id="text_37">
     <!-- Liczba lotów -->
     <g style="fill:#262626;" transform="translate(32.252344 673.733832)rotate(-90)scale(0.35 -0.35)">
      <use xlink:href="#ArialMT-76"/>
      <use x="55.615234" xlink:href="#ArialMT-105"/>
      <use x="77.832031" xlink:href="#ArialMT-99"/>
      <use x="127.832031" xlink:href="#ArialMT-122"/>
      <use x="177.832031" xlink:href="#ArialMT-98"/>
      <use x="233.447266" xlink:href="#ArialMT-97"/>
      <use x="289.0625" xlink:href="#ArialMT-32"/>
      <use x="316.845703" xlink:href="#ArialMT-108"/>
      <use x="339.0625" xlink:href="#ArialMT-111"/>
      <use x="394.677734" xlink:href="#ArialMT-116"/>
      <use x="422.460938" xlink:href="#ArialMT-243"/>
      <use x="478.076172" xlink:href="#ArialMT-119"/>
     </g>
    </g>
   </g>
   <g id="patch_20">
    <path clip-path="url(#pdfb8ffa76f)" d="M 190.751278 693.449543 
L 276.729707 693.449543 
L 276.729707 583.893085 
L 190.751278 583.893085 
z
" style="fill:#1e90ff;stroke:#000000;stroke-linejoin:miter;"/>
   </g>
   <g id="patch_21">
    <path clip-path="url(#pdfb8ffa76f)" d="M 298.224314 693.449543 
L 384.202742 693.449543 
L 384.202742 492.571015 
L 298.224314 492.571015 
z
" style="fill:#00bfff;stroke:#000000;stroke-linejoin:miter;"/>
   </g>
   <g id="patch_22">
    <path clip-path="url(#pdfb8ffa76f)" d="M 405.697349 693.449543 
L 491.675778 693.449543 
L 491.675778 537.788474 
L 405.697349 537.788474 
z
" style="fill:#006400;stroke:#000000;stroke-linejoin:miter;"/>
   </g>
   <g id="patch_23">
    <path clip-path="url(#pdfb8ffa76f)" d="M 513.170385 693.449543 
L 599.148813 693.449543 
L 599.148813 592.368799 
L 513.170385 592.368799 
z
" style="fill:#228b22;stroke:#000000;stroke-linejoin:miter;"/>
   </g>
   <g id="patch_24">
    <path clip-path="url(#pdfb8ffa76f)" d="M 620.64342 693.449543 
L 706.621849 693.449543 
L 706.621849 655.69781 
L 620.64342 655.69781 
z
" style="fill:#2e8b57;stroke:#000000;stroke-linejoin:miter;"/>
   </g>
   <g id="patch_25">
    <path clip-path="url(#pdfb8ffa76f)" d="M 728.116456 693.449543 
L 814.094884 693.449543 
L 814.094884 574.093467 
L 728.116456 574.093467 
z
" style="fill:#dc143c;stroke:#000000;stroke-linejoin:miter;"/>
   </g>
   <g id="patch_26">
    <path clip-path="url(#pdfb8ffa76f)" d="M 835.589491 693.449543 
L 921.567919 693.449543 
L 921.567919 569.330142 
L 835.589491 569.330142 
z
" style="fill:#cd5c5c;stroke:#000000;stroke-linejoin:miter;"/>
   </g>
   <g id="patch_27">
    <path clip-path="url(#pdfb8ffa76f)" d="M 943.062526 693.449543 
L 1029.040955 693.449543 
L 1029.040955 527.852371 
L 943.062526 527.852371 
z
" style="fill:#fa8072;stroke:#000000;stroke-linejoin:miter;"/>
   </g>
   <g id="patch_28">
    <path clip-path="url(#pdfb8ffa76f)" d="M 1050.535562 693.449543 
L 1136.51399 693.449543 
L 1136.51399 542.565447 
L 1050.535562 542.565447 
z
" style="fill:#ffa500;stroke:#000000;stroke-linejoin:miter;"/>
   </g>
   <g id="patch_29">
    <path clip-path="url(#pdfb8ffa76f)" d="M 1158.008597 693.449543 
L 1243.987026 693.449543 
L 1243.987026 551.177646 
L 1158.008597 551.177646 
z
" style="fill:#ffd700;stroke:#000000;stroke-linejoin:miter;"/>
   </g>
   <g id="patch_30">
    <path clip-path="url(#pdfb8ffa76f)" d="M 1265.481633 693.449543 
L 1351.460061 693.449543 
L 1351.460061 602.919085 
L 1265.481633 602.919085 
z
" style="fill:#ffff00;stroke:#000000;stroke-linejoin:miter;"/>
   </g>
   <g id="patch_31">
    <path clip-path="url(#pdfb8ffa76f)" d="M 1372.954668 693.449543 
L 1458.933097 693.449543 
L 1458.933097 601.035593 
L 1372.954668 601.035593 
z
" style="fill:#4169e1;stroke:#000000;stroke-linejoin:miter;"/>
   </g>
   <g id="patch_32">
    <path d="M 127.342188 693.449543 
L 127.342188 461.425152 
" style="fill:none;"/>
   </g>
   <g id="patch_33">
    <path d="M 1522.342187 693.449543 
L 1522.342187 461.425152 
" style="fill:none;"/>
   </g>
   <g id="patch_34">
    <path d="M 127.342188 693.449543 
L 1522.342187 693.449543 
" style="fill:none;"/>
   </g>
   <g id="patch_35">
    <path d="M 127.342188 461.425152 
L 1522.342187 461.425152 
" style="fill:none;"/>
   </g>
   <g id="text_38">
    <!-- Rok 2020 -->
    <g style="fill:#262626;" transform="translate(739.232813 453.475152)scale(0.4 -0.4)">
     <use xlink:href="#ArialMT-82"/>
     <use x="72.216797" xlink:href="#ArialMT-111"/>
     <use x="127.832031" xlink:href="#ArialMT-107"/>
     <use x="177.832031" xlink:href="#ArialMT-32"/>
     <use x="205.615234" xlink:href="#ArialMT-50"/>
     <use x="261.230469" xlink:href="#ArialMT-48"/>
     <use x="316.845703" xlink:href="#ArialMT-50"/>
     <use x="372.460938" xlink:href="#ArialMT-48"/>
    </g>
   </g>
  </g>
  <g id="axes_3">
   <g id="patch_36">
    <path d="M 127.342188 1111.093445 
L 1522.342187 1111.093445 
L 1522.342187 879.069055 
L 127.342188 879.069055 
z
" style="fill:#eaeaf2;"/>
   </g>
   <g id="matplotlib.axis_5">
    <g id="xtick_25">
     <g id="line2d_65">
      <path clip-path="url(#pe40526f53d)" d="M 233.740493 1111.093445 
L 233.740493 879.069055 
" style="fill:none;stroke:#ffffff;stroke-linecap:round;stroke-width:0.8;"/>
     </g>
     <g id="line2d_66"/>
     <g id="text_39">
      <!-- 1 -->
      <g style="fill:#262626;" transform="translate(225.399086 1136.066883)scale(0.3 -0.3)">
       <use xlink:href="#ArialMT-49"/>
      </g>
     </g>
    </g>
    <g id="xtick_26">
     <g id="line2d_67">
      <path clip-path="url(#pe40526f53d)" d="M 341.213528 1111.093445 
L 341.213528 879.069055 
" style="fill:none;stroke:#ffffff;stroke-linecap:round;stroke-width:0.8;"/>
     </g>
     <g id="line2d_68"/>
     <g id="text_40">
      <!-- 2 -->
      <g style="fill:#262626;" transform="translate(332.872122 1136.066883)scale(0.3 -0.3)">
       <use xlink:href="#ArialMT-50"/>
      </g>
     </g>
    </g>
    <g id="xtick_27">
     <g id="line2d_69">
      <path clip-path="url(#pe40526f53d)" d="M 448.686563 1111.093445 
L 448.686563 879.069055 
" style="fill:none;stroke:#ffffff;stroke-linecap:round;stroke-width:0.8;"/>
     </g>
     <g id="line2d_70"/>
     <g id="text_41">
      <!-- 3 -->
      <g style="fill:#262626;" transform="translate(440.345157 1136.066883)scale(0.3 -0.3)">
       <use xlink:href="#ArialMT-51"/>
      </g>
     </g>
    </g>
    <g id="xtick_28">
     <g id="line2d_71">
      <path clip-path="url(#pe40526f53d)" d="M 556.159599 1111.093445 
L 556.159599 879.069055 
" style="fill:none;stroke:#ffffff;stroke-linecap:round;stroke-width:0.8;"/>
     </g>
     <g id="line2d_72"/>
     <g id="text_42">
      <!-- 4 -->
      <g style="fill:#262626;" transform="translate(547.818193 1136.066883)scale(0.3 -0.3)">
       <use xlink:href="#ArialMT-52"/>
      </g>
     </g>
    </g>
    <g id="xtick_29">
     <g id="line2d_73">
      <path clip-path="url(#pe40526f53d)" d="M 663.632634 1111.093445 
L 663.632634 879.069055 
" style="fill:none;stroke:#ffffff;stroke-linecap:round;stroke-width:0.8;"/>
     </g>
     <g id="line2d_74"/>
     <g id="text_43">
      <!-- 5 -->
      <g style="fill:#262626;" transform="translate(655.291228 1136.066883)scale(0.3 -0.3)">
       <use xlink:href="#ArialMT-53"/>
      </g>
     </g>
    </g>
    <g id="xtick_30">
     <g id="line2d_75">
      <path clip-path="url(#pe40526f53d)" d="M 771.10567 1111.093445 
L 771.10567 879.069055 
" style="fill:none;stroke:#ffffff;stroke-linecap:round;stroke-width:0.8;"/>
     </g>
     <g id="line2d_76"/>
     <g id="text_44">
      <!-- 6 -->
      <g style="fill:#262626;" transform="translate(762.764264 1136.066883)scale(0.3 -0.3)">
       <use xlink:href="#ArialMT-54"/>
      </g>
     </g>
    </g>
    <g id="xtick_31">
     <g id="line2d_77">
      <path clip-path="url(#pe40526f53d)" d="M 878.578705 1111.093445 
L 878.578705 879.069055 
" style="fill:none;stroke:#ffffff;stroke-linecap:round;stroke-width:0.8;"/>
     </g>
     <g id="line2d_78"/>
     <g id="text_45">
      <!-- 7 -->
      <g style="fill:#262626;" transform="translate(870.237299 1136.066883)scale(0.3 -0.3)">
       <use xlink:href="#ArialMT-55"/>
      </g>
     </g>
    </g>
    <g id="xtick_32">
     <g id="line2d_79">
      <path clip-path="url(#pe40526f53d)" d="M 986.051741 1111.093445 
L 986.051741 879.069055 
" style="fill:none;stroke:#ffffff;stroke-linecap:round;stroke-width:0.8;"/>
     </g>
     <g id="line2d_80"/>
     <g id="text_46">
      <!-- 8 -->
      <g style="fill:#262626;" transform="translate(977.710334 1136.066883)scale(0.3 -0.3)">
       <use xlink:href="#ArialMT-56"/>
      </g>
     </g>
    </g>
    <g id="xtick_33">
     <g id="line2d_81">
      <path clip-path="url(#pe40526f53d)" d="M 1093.524776 1111.093445 
L 1093.524776 879.069055 
" style="fill:none;stroke:#ffffff;stroke-linecap:round;stroke-width:0.8;"/>
     </g>
     <g id="line2d_82"/>
     <g id="text_47">
      <!-- 9 -->
      <g style="fill:#262626;" transform="translate(1085.18337 1136.066883)scale(0.3 -0.3)">
       <use xlink:href="#ArialMT-57"/>
      </g>
     </g>
    </g>
    <g id="xtick_34">
     <g id="line2d_83">
      <path clip-path="url(#pe40526f53d)" d="M 1200.997812 1111.093445 
L 1200.997812 879.069055 
" style="fill:none;stroke:#ffffff;stroke-linecap:round;stroke-width:0.8;"/>
     </g>
     <g id="line2d_84"/>
     <g id="text_48">
      <!-- 10 -->
      <g style="fill:#262626;" transform="translate(1184.314999 1136.066883)scale(0.3 -0.3)">
       <use xlink:href="#ArialMT-49"/>
       <use x="55.615234" xlink:href="#ArialMT-48"/>
      </g>
     </g>
    </g>
    <g id="xtick_35">
     <g id="line2d_85">
      <path clip-path="url(#pe40526f53d)" d="M 1308.470847 1111.093445 
L 1308.470847 879.069055 
" style="fill:none;stroke:#ffffff;stroke-linecap:round;stroke-width:0.8;"/>
     </g>
     <g id="line2d_86"/>
     <g id="text_49">
      <!-- 11 -->
      <g style="fill:#262626;" transform="translate(1292.894284 1136.066883)scale(0.3 -0.3)">
       <use xlink:href="#ArialMT-49"/>
       <use x="48.240234" xlink:href="#ArialMT-49"/>
      </g>
     </g>
    </g>
    <g id="xtick_36">
     <g id="line2d_87">
      <path clip-path="url(#pe40526f53d)" d="M 1415.943882 1111.093445 
L 1415.943882 879.069055 
" style="fill:none;stroke:#ffffff;stroke-linecap:round;stroke-width:0.8;"/>
     </g>
     <g id="line2d_88"/>
     <g id="text_50">
      <!-- 12 -->
      <g style="fill:#262626;" transform="translate(1399.26107 1136.066883)scale(0.3 -0.3)">
       <use xlink:href="#ArialMT-49"/>
       <use x="55.615234" xlink:href="#ArialMT-50"/>
      </g>
     </g>
    </g>
    <g id="text_51">
     <!-- Miesiąc -->
     <g style="fill:#262626;" transform="translate(765.525391 1171.081726)scale(0.35 -0.35)">
      <use xlink:href="#ArialMT-77"/>
      <use x="83.300781" xlink:href="#ArialMT-105"/>
      <use x="105.517578" xlink:href="#ArialMT-101"/>
      <use x="161.132812" xlink:href="#ArialMT-115"/>
      <use x="211.132812" xlink:href="#ArialMT-105"/>
      <use x="233.349609" xlink:href="#ArialMT-261"/>
      <use x="288.964844" xlink:href="#ArialMT-99"/>
     </g>
    </g>
   </g>
   <g id="matplotlib.axis_6">
    <g id="ytick_9">
     <g id="line2d_89">
      <path clip-path="url(#pe40526f53d)" d="M 127.342188 1111.093445 
L 1522.342187 1111.093445 
" style="fill:none;stroke:#ffffff;stroke-linecap:round;stroke-width:0.8;"/>
     </g>
     <g id="line2d_90"/>
     <g id="text_52">
      <!-- 0 -->
      <g style="fill:#262626;" transform="translate(107.715469 1121.472273)scale(0.29 -0.29)">
       <use xlink:href="#ArialMT-48"/>
      </g>
     </g>
    </g>
    <g id="ytick_10">
     <g id="line2d_91">
      <path clip-path="url(#pe40526f53d)" d="M 127.342188 1042.850977 
L 1522.342187 1042.850977 
" style="fill:none;stroke:#ffffff;stroke-linecap:round;stroke-width:0.8;"/>
     </g>
     <g id="line2d_92"/>
     <g id="text_53">
      <!-- 5000 -->
      <g style="fill:#262626;" transform="translate(59.335313 1053.229806)scale(0.29 -0.29)">
       <use xlink:href="#ArialMT-53"/>
       <use x="55.615234" xlink:href="#ArialMT-48"/>
       <use x="111.230469" xlink:href="#ArialMT-48"/>
       <use x="166.845703" xlink:href="#ArialMT-48"/>
      </g>
     </g>
    </g>
    <g id="ytick_11">
     <g id="line2d_93">
      <path clip-path="url(#pe40526f53d)" d="M 127.342188 974.60851 
L 1522.342187 974.60851 
" style="fill:none;stroke:#ffffff;stroke-linecap:round;stroke-width:0.8;"/>
     </g>
     <g id="line2d_94"/>
     <g id="text_54">
      <!-- 10000 -->
      <g style="fill:#262626;" transform="translate(43.208594 984.987338)scale(0.29 -0.29)">
       <use xlink:href="#ArialMT-49"/>
       <use x="55.615234" xlink:href="#ArialMT-48"/>
       <use x="111.230469" xlink:href="#ArialMT-48"/>
       <use x="166.845703" xlink:href="#ArialMT-48"/>
       <use x="222.460938" xlink:href="#ArialMT-48"/>
      </g>
     </g>
    </g>
    <g id="ytick_12">
     <g id="line2d_95">
      <path clip-path="url(#pe40526f53d)" d="M 127.342188 906.366042 
L 1522.342187 906.366042 
" style="fill:none;stroke:#ffffff;stroke-linecap:round;stroke-width:0.8;"/>
     </g>
     <g id="line2d_96"/>
     <g id="text_55">
      <!-- 15000 -->
      <g style="fill:#262626;" transform="translate(43.208594 916.74487)scale(0.29 -0.29)">
       <use xlink:href="#ArialMT-49"/>
       <use x="55.615234" xlink:href="#ArialMT-53"/>
       <use x="111.230469" xlink:href="#ArialMT-48"/>
       <use x="166.845703" xlink:href="#ArialMT-48"/>
       <use x="222.460938" xlink:href="#ArialMT-48"/>
      </g>
     </g>
    </g>
    <g id="text_56">
     <!-- Liczba lotów -->
     <g style="fill:#262626;" transform="translate(32.252344 1091.377734)rotate(-90)scale(0.35 -0.35)">
      <use xlink:href="#ArialMT-76"/>
      <use x="55.615234" xlink:href="#ArialMT-105"/>
      <use x="77.832031" xlink:href="#ArialMT-99"/>
      <use x="127.832031" xlink:href="#ArialMT-122"/>
      <use x="177.832031" xlink:href="#ArialMT-98"/>
      <use x="233.447266" xlink:href="#ArialMT-97"/>
      <use x="289.0625" xlink:href="#ArialMT-32"/>
      <use x="316.845703" xlink:href="#ArialMT-108"/>
      <use x="339.0625" xlink:href="#ArialMT-111"/>
      <use x="394.677734" xlink:href="#ArialMT-116"/>
      <use x="422.460938" xlink:href="#ArialMT-243"/>
      <use x="478.076172" xlink:href="#ArialMT-119"/>
     </g>
    </g>
   </g>
   <g id="patch_37">
    <path clip-path="url(#pe40526f53d)" d="M 190.751278 1111.093445 
L 276.729707 1111.093445 
L 276.729707 1058.806066 
L 190.751278 1058.806066 
z
" style="fill:#1e90ff;stroke:#000000;stroke-linejoin:miter;"/>
   </g>
   <g id="patch_38">
    <path clip-path="url(#pe40526f53d)" d="M 298.224314 1111.093445 
L 384.202742 1111.093445 
L 384.202742 1028.15155 
L 298.224314 1028.15155 
z
" style="fill:#00bfff;stroke:#000000;stroke-linejoin:miter;"/>
   </g>
   <g id="patch_39">
    <path clip-path="url(#pe40526f53d)" d="M 405.697349 1111.093445 
L 491.675778 1111.093445 
L 491.675778 1000.199435 
L 405.697349 1000.199435 
z
" style="fill:#006400;stroke:#000000;stroke-linejoin:miter;"/>
   </g>
   <g id="patch_40">
    <path clip-path="url(#pe40526f53d)" d="M 513.170385 1111.093445 
L 599.148813 1111.093445 
L 599.148813 957.943699 
L 513.170385 957.943699 
z
" style="fill:#228b22;stroke:#000000;stroke-linejoin:miter;"/>
   </g>
   <g id="patch_41">
    <path clip-path="url(#pe40526f53d)" d="M 620.64342 1111.093445 
L 706.621849 1111.093445 
L 706.621849 975.632147 
L 620.64342 975.632147 
z
" style="fill:#2e8b57;stroke:#000000;stroke-linejoin:miter;"/>
   </g>
   <g id="patch_42">
    <path clip-path="url(#pe40526f53d)" d="M 728.116456 1111.093445 
L 814.094884 1111.093445 
L 814.094884 926.456624 
L 728.116456 926.456624 
z
" style="fill:#dc143c;stroke:#000000;stroke-linejoin:miter;"/>
   </g>
   <g id="patch_43">
    <path clip-path="url(#pe40526f53d)" d="M 835.589491 1111.093445 
L 921.567919 1111.093445 
L 921.567919 940.896731 
L 835.589491 940.896731 
z
" style="fill:#cd5c5c;stroke:#000000;stroke-linejoin:miter;"/>
   </g>
   <g id="patch_44">
    <path clip-path="url(#pe40526f53d)" d="M 943.062526 1111.093445 
L 1029.040955 1111.093445 
L 1029.040955 959.213009 
L 943.062526 959.213009 
z
" style="fill:#fa8072;stroke:#000000;stroke-linejoin:miter;"/>
   </g>
   <g id="patch_45">
    <path clip-path="url(#pe40526f53d)" d="M 1050.535562 1111.093445 
L 1136.51399 1111.093445 
L 1136.51399 916.411333 
L 1050.535562 916.411333 
z
" style="fill:#ffa500;stroke:#000000;stroke-linejoin:miter;"/>
   </g>
   <g id="patch_46">
    <path clip-path="url(#pe40526f53d)" d="M 1158.008597 1111.093445 
L 1243.987026 1111.093445 
L 1243.987026 924.081787 
L 1158.008597 924.081787 
z
" style="fill:#ffd700;stroke:#000000;stroke-linejoin:miter;"/>
   </g>
   <g id="patch_47">
    <path clip-path="url(#pe40526f53d)" d="M 1265.481633 1111.093445 
L 1351.460061 1111.093445 
L 1351.460061 980.095204 
L 1265.481633 980.095204 
z
" style="fill:#ffff00;stroke:#000000;stroke-linejoin:miter;"/>
   </g>
   <g id="patch_48">
    <path clip-path="url(#pe40526f53d)" d="M 1372.954668 1111.093445 
L 1458.933097 1111.093445 
L 1458.933097 987.806603 
L 1372.954668 987.806603 
z
" style="fill:#4169e1;stroke:#000000;stroke-linejoin:miter;"/>
   </g>
   <g id="patch_49">
    <path d="M 127.342188 1111.093445 
L 127.342188 879.069055 
" style="fill:none;"/>
   </g>
   <g id="patch_50">
    <path d="M 1522.342187 1111.093445 
L 1522.342187 879.069055 
" style="fill:none;"/>
   </g>
   <g id="patch_51">
    <path d="M 127.342188 1111.093445 
L 1522.342187 1111.093445 
" style="fill:none;"/>
   </g>
   <g id="patch_52">
    <path d="M 127.342188 879.069055 
L 1522.342187 879.069055 
" style="fill:none;"/>
   </g>
   <g id="text_57">
    <!-- Rok 2021 -->
    <g style="fill:#262626;" transform="translate(739.232813 871.119055)scale(0.4 -0.4)">
     <use xlink:href="#ArialMT-82"/>
     <use x="72.216797" xlink:href="#ArialMT-111"/>
     <use x="127.832031" xlink:href="#ArialMT-107"/>
     <use x="177.832031" xlink:href="#ArialMT-32"/>
     <use x="205.615234" xlink:href="#ArialMT-50"/>
     <use x="261.230469" xlink:href="#ArialMT-48"/>
     <use x="316.845703" xlink:href="#ArialMT-50"/>
     <use x="372.460938" xlink:href="#ArialMT-49"/>
    </g>
   </g>
  </g>
  <g id="axes_4">
   <g id="patch_53">
    <path d="M 127.342188 1528.737348 
L 1522.342187 1528.737348 
L 1522.342187 1296.712957 
L 127.342188 1296.712957 
z
" style="fill:#eaeaf2;"/>
   </g>
   <g id="matplotlib.axis_7">
    <g id="xtick_37">
     <g id="line2d_97">
      <path clip-path="url(#pa211a0171c)" d="M 233.740493 1528.737348 
L 233.740493 1296.712957 
" style="fill:none;stroke:#ffffff;stroke-linecap:round;stroke-width:0.8;"/>
     </g>
     <g id="line2d_98"/>
     <g id="text_58">
      <!-- 1 -->
      <g style="fill:#262626;" transform="translate(225.399086 1553.710785)scale(0.3 -0.3)">
       <use xlink:href="#ArialMT-49"/>
      </g>
     </g>
    </g>
    <g id="xtick_38">
     <g id="line2d_99">
      <path clip-path="url(#pa211a0171c)" d="M 341.213528 1528.737348 
L 341.213528 1296.712957 
" style="fill:none;stroke:#ffffff;stroke-linecap:round;stroke-width:0.8;"/>
     </g>
     <g id="line2d_100"/>
     <g id="text_59">
      <!-- 2 -->
      <g style="fill:#262626;" transform="translate(332.872122 1553.710785)scale(0.3 -0.3)">
       <use xlink:href="#ArialMT-50"/>
      </g>
     </g>
    </g>
    <g id="xtick_39">
     <g id="line2d_101">
      <path clip-path="url(#pa211a0171c)" d="M 448.686563 1528.737348 
L 448.686563 1296.712957 
" style="fill:none;stroke:#ffffff;stroke-linecap:round;stroke-width:0.8;"/>
     </g>
     <g id="line2d_102"/>
     <g id="text_60">
      <!-- 3 -->
      <g style="fill:#262626;" transform="translate(440.345157 1553.710785)scale(0.3 -0.3)">
       <use xlink:href="#ArialMT-51"/>
      </g>
     </g>
    </g>
    <g id="xtick_40">
     <g id="line2d_103">
      <path clip-path="url(#pa211a0171c)" d="M 556.159599 1528.737348 
L 556.159599 1296.712957 
" style="fill:none;stroke:#ffffff;stroke-linecap:round;stroke-width:0.8;"/>
     </g>
     <g id="line2d_104"/>
     <g id="text_61">
      <!-- 4 -->
      <g style="fill:#262626;" transform="translate(547.818193 1553.710785)scale(0.3 -0.3)">
       <use xlink:href="#ArialMT-52"/>
      </g>
     </g>
    </g>
    <g id="xtick_41">
     <g id="line2d_105">
      <path clip-path="url(#pa211a0171c)" d="M 663.632634 1528.737348 
L 663.632634 1296.712957 
" style="fill:none;stroke:#ffffff;stroke-linecap:round;stroke-width:0.8;"/>
     </g>
     <g id="line2d_106"/>
     <g id="text_62">
      <!-- 5 -->
      <g style="fill:#262626;" transform="translate(655.291228 1553.710785)scale(0.3 -0.3)">
       <use xlink:href="#ArialMT-53"/>
      </g>
     </g>
    </g>
    <g id="xtick_42">
     <g id="line2d_107">
      <path clip-path="url(#pa211a0171c)" d="M 771.10567 1528.737348 
L 771.10567 1296.712957 
" style="fill:none;stroke:#ffffff;stroke-linecap:round;stroke-width:0.8;"/>
     </g>
     <g id="line2d_108"/>
     <g id="text_63">
      <!-- 6 -->
      <g style="fill:#262626;" transform="translate(762.764264 1553.710785)scale(0.3 -0.3)">
       <use xlink:href="#ArialMT-54"/>
      </g>
     </g>
    </g>
    <g id="xtick_43">
     <g id="line2d_109">
      <path clip-path="url(#pa211a0171c)" d="M 878.578705 1528.737348 
L 878.578705 1296.712957 
" style="fill:none;stroke:#ffffff;stroke-linecap:round;stroke-width:0.8;"/>
     </g>
     <g id="line2d_110"/>
     <g id="text_64">
      <!-- 7 -->
      <g style="fill:#262626;" transform="translate(870.237299 1553.710785)scale(0.3 -0.3)">
       <use xlink:href="#ArialMT-55"/>
      </g>
     </g>
    </g>
    <g id="xtick_44">
     <g id="line2d_111">
      <path clip-path="url(#pa211a0171c)" d="M 986.051741 1528.737348 
L 986.051741 1296.712957 
" style="fill:none;stroke:#ffffff;stroke-linecap:round;stroke-width:0.8;"/>
     </g>
     <g id="line2d_112"/>
     <g id="text_65">
      <!-- 8 -->
      <g style="fill:#262626;" transform="translate(977.710334 1553.710785)scale(0.3 -0.3)">
       <use xlink:href="#ArialMT-56"/>
      </g>
     </g>
    </g>
    <g id="xtick_45">
     <g id="line2d_113">
      <path clip-path="url(#pa211a0171c)" d="M 1093.524776 1528.737348 
L 1093.524776 1296.712957 
" style="fill:none;stroke:#ffffff;stroke-linecap:round;stroke-width:0.8;"/>
     </g>
     <g id="line2d_114"/>
     <g id="text_66">
      <!-- 9 -->
      <g style="fill:#262626;" transform="translate(1085.18337 1553.710785)scale(0.3 -0.3)">
       <use xlink:href="#ArialMT-57"/>
      </g>
     </g>
    </g>
    <g id="xtick_46">
     <g id="line2d_115">
      <path clip-path="url(#pa211a0171c)" d="M 1200.997812 1528.737348 
L 1200.997812 1296.712957 
" style="fill:none;stroke:#ffffff;stroke-linecap:round;stroke-width:0.8;"/>
     </g>
     <g id="line2d_116"/>
     <g id="text_67">
      <!-- 10 -->
      <g style="fill:#262626;" transform="translate(1184.314999 1553.710785)scale(0.3 -0.3)">
       <use xlink:href="#ArialMT-49"/>
       <use x="55.615234" xlink:href="#ArialMT-48"/>
      </g>
     </g>
    </g>
    <g id="xtick_47">
     <g id="line2d_117">
      <path clip-path="url(#pa211a0171c)" d="M 1308.470847 1528.737348 
L 1308.470847 1296.712957 
" style="fill:none;stroke:#ffffff;stroke-linecap:round;stroke-width:0.8;"/>
     </g>
     <g id="line2d_118"/>
     <g id="text_68">
      <!-- 11 -->
      <g style="fill:#262626;" transform="translate(1292.894284 1553.710785)scale(0.3 -0.3)">
       <use xlink:href="#ArialMT-49"/>
       <use x="48.240234" xlink:href="#ArialMT-49"/>
      </g>
     </g>
    </g>
    <g id="xtick_48">
     <g id="line2d_119">
      <path clip-path="url(#pa211a0171c)" d="M 1415.943882 1528.737348 
L 1415.943882 1296.712957 
" style="fill:none;stroke:#ffffff;stroke-linecap:round;stroke-width:0.8;"/>
     </g>
     <g id="line2d_120"/>
     <g id="text_69">
      <!-- 12 -->
      <g style="fill:#262626;" transform="translate(1399.26107 1553.710785)scale(0.3 -0.3)">
       <use xlink:href="#ArialMT-49"/>
       <use x="55.615234" xlink:href="#ArialMT-50"/>
      </g>
     </g>
    </g>
    <g id="text_70">
     <!-- Miesiąc -->
     <g style="fill:#262626;" transform="translate(765.525391 1588.725629)scale(0.35 -0.35)">
      <use xlink:href="#ArialMT-77"/>
      <use x="83.300781" xlink:href="#ArialMT-105"/>
      <use x="105.517578" xlink:href="#ArialMT-101"/>
      <use x="161.132812" xlink:href="#ArialMT-115"/>
      <use x="211.132812" xlink:href="#ArialMT-105"/>
      <use x="233.349609" xlink:href="#ArialMT-261"/>
      <use x="288.964844" xlink:href="#ArialMT-99"/>
     </g>
    </g>
   </g>
   <g id="matplotlib.axis_8">
    <g id="ytick_13">
     <g id="line2d_121">
      <path clip-path="url(#pa211a0171c)" d="M 127.342188 1528.737348 
L 1522.342187 1528.737348 
" style="fill:none;stroke:#ffffff;stroke-linecap:round;stroke-width:0.8;"/>
     </g>
     <g id="line2d_122"/>
     <g id="text_71">
      <!-- 0 -->
      <g style="fill:#262626;" transform="translate(107.715469 1539.116176)scale(0.29 -0.29)">
       <use xlink:href="#ArialMT-48"/>
      </g>
     </g>
    </g>
    <g id="ytick_14">
     <g id="line2d_123">
      <path clip-path="url(#pa211a0171c)" d="M 127.342188 1460.49488 
L 1522.342187 1460.49488 
" style="fill:none;stroke:#ffffff;stroke-linecap:round;stroke-width:0.8;"/>
     </g>
     <g id="line2d_124"/>
     <g id="text_72">
      <!-- 5000 -->
      <g style="fill:#262626;" transform="translate(59.335313 1470.873708)scale(0.29 -0.29)">
       <use xlink:href="#ArialMT-53"/>
       <use x="55.615234" xlink:href="#ArialMT-48"/>
       <use x="111.230469" xlink:href="#ArialMT-48"/>
       <use x="166.845703" xlink:href="#ArialMT-48"/>
      </g>
     </g>
    </g>
    <g id="ytick_15">
     <g id="line2d_125">
      <path clip-path="url(#pa211a0171c)" d="M 127.342188 1392.252412 
L 1522.342187 1392.252412 
" style="fill:none;stroke:#ffffff;stroke-linecap:round;stroke-width:0.8;"/>
     </g>
     <g id="line2d_126"/>
     <g id="text_73">
      <!-- 10000 -->
      <g style="fill:#262626;" transform="translate(43.208594 1402.63124)scale(0.29 -0.29)">
       <use xlink:href="#ArialMT-49"/>
       <use x="55.615234" xlink:href="#ArialMT-48"/>
       <use x="111.230469" xlink:href="#ArialMT-48"/>
       <use x="166.845703" xlink:href="#ArialMT-48"/>
       <use x="222.460938" xlink:href="#ArialMT-48"/>
      </g>
     </g>
    </g>
    <g id="ytick_16">
     <g id="line2d_127">
      <path clip-path="url(#pa211a0171c)" d="M 127.342188 1324.009944 
L 1522.342187 1324.009944 
" style="fill:none;stroke:#ffffff;stroke-linecap:round;stroke-width:0.8;"/>
     </g>
     <g id="line2d_128"/>
     <g id="text_74">
      <!-- 15000 -->
      <g style="fill:#262626;" transform="translate(43.208594 1334.388773)scale(0.29 -0.29)">
       <use xlink:href="#ArialMT-49"/>
       <use x="55.615234" xlink:href="#ArialMT-53"/>
       <use x="111.230469" xlink:href="#ArialMT-48"/>
       <use x="166.845703" xlink:href="#ArialMT-48"/>
       <use x="222.460938" xlink:href="#ArialMT-48"/>
      </g>
     </g>
    </g>
    <g id="text_75">
     <!-- Liczba lotów -->
     <g style="fill:#262626;" transform="translate(32.252344 1509.021637)rotate(-90)scale(0.35 -0.35)">
      <use xlink:href="#ArialMT-76"/>
      <use x="55.615234" xlink:href="#ArialMT-105"/>
      <use x="77.832031" xlink:href="#ArialMT-99"/>
      <use x="127.832031" xlink:href="#ArialMT-122"/>
      <use x="177.832031" xlink:href="#ArialMT-98"/>
      <use x="233.447266" xlink:href="#ArialMT-97"/>
      <use x="289.0625" xlink:href="#ArialMT-32"/>
      <use x="316.845703" xlink:href="#ArialMT-108"/>
      <use x="339.0625" xlink:href="#ArialMT-111"/>
      <use x="394.677734" xlink:href="#ArialMT-116"/>
      <use x="422.460938" xlink:href="#ArialMT-243"/>
      <use x="478.076172" xlink:href="#ArialMT-119"/>
     </g>
    </g>
   </g>
   <g id="patch_54">
    <path clip-path="url(#pa211a0171c)" d="M 190.751278 1528.737348 
L 276.729707 1528.737348 
L 276.729707 1429.23983 
L 190.751278 1429.23983 
z
" style="fill:#1e90ff;stroke:#000000;stroke-linejoin:miter;"/>
   </g>
   <g id="patch_55">
    <path clip-path="url(#pa211a0171c)" d="M 298.224314 1528.737348 
L 384.202742 1528.737348 
L 384.202742 1420.027096 
L 298.224314 1420.027096 
z
" style="fill:#00bfff;stroke:#000000;stroke-linejoin:miter;"/>
   </g>
   <g id="patch_56">
    <path clip-path="url(#pa211a0171c)" d="M 405.697349 1528.737348 
L 491.675778 1528.737348 
L 491.675778 1368.749706 
L 405.697349 1368.749706 
z
" style="fill:#006400;stroke:#000000;stroke-linejoin:miter;"/>
   </g>
   <g id="patch_57">
    <path clip-path="url(#pa211a0171c)" d="M 513.170385 1528.737348 
L 599.148813 1528.737348 
L 599.148813 1396.824657 
L 513.170385 1396.824657 
z
" style="fill:#228b22;stroke:#000000;stroke-linejoin:miter;"/>
   </g>
   <g id="patch_58">
    <path clip-path="url(#pa211a0171c)" d="M 620.64342 1528.737348 
L 706.621849 1528.737348 
L 706.621849 1346.830226 
L 620.64342 1346.830226 
z
" style="fill:#2e8b57;stroke:#000000;stroke-linejoin:miter;"/>
   </g>
   <g id="patch_59">
    <path clip-path="url(#pa211a0171c)" d="M 728.116456 1528.737348 
L 814.094884 1528.737348 
L 814.094884 1326.616807 
L 728.116456 1326.616807 
z
" style="fill:#dc143c;stroke:#000000;stroke-linejoin:miter;"/>
   </g>
   <g id="patch_60">
    <path clip-path="url(#pa211a0171c)" d="M 835.589491 1528.737348 
L 921.567919 1528.737348 
L 921.567919 1329.005293 
L 835.589491 1329.005293 
z
" style="fill:#cd5c5c;stroke:#000000;stroke-linejoin:miter;"/>
   </g>
   <g id="patch_61">
    <path clip-path="url(#pa211a0171c)" d="M 943.062526 1528.737348 
L 1029.040955 1528.737348 
L 1029.040955 1331.229997 
L 943.062526 1331.229997 
z
" style="fill:#fa8072;stroke:#000000;stroke-linejoin:miter;"/>
   </g>
   <g id="patch_62">
    <path clip-path="url(#pa211a0171c)" d="M 1050.535562 1528.737348 
L 1136.51399 1528.737348 
L 1136.51399 1324.310211 
L 1050.535562 1324.310211 
z
" style="fill:#ffa500;stroke:#000000;stroke-linejoin:miter;"/>
   </g>
   <g id="patch_63">
    <path clip-path="url(#pa211a0171c)" d="M 1158.008597 1528.737348 
L 1243.987026 1528.737348 
L 1243.987026 1382.67117 
L 1158.008597 1382.67117 
z
" style="fill:#ffd700;stroke:#000000;stroke-linejoin:miter;"/>
   </g>
   <g id="patch_64">
    <path clip-path="url(#pa211a0171c)" d="M 1265.481633 1528.737348 
L 1351.460061 1528.737348 
L 1351.460061 1384.199801 
L 1265.481633 1384.199801 
z
" style="fill:#ffff00;stroke:#000000;stroke-linejoin:miter;"/>
   </g>
   <g id="patch_65">
    <path clip-path="url(#pa211a0171c)" d="M 1372.954668 1528.737348 
L 1458.933097 1528.737348 
L 1458.933097 1389.236095 
L 1372.954668 1389.236095 
z
" style="fill:#4169e1;stroke:#000000;stroke-linejoin:miter;"/>
   </g>
   <g id="patch_66">
    <path d="M 127.342188 1528.737348 
L 127.342188 1296.712957 
" style="fill:none;"/>
   </g>
   <g id="patch_67">
    <path d="M 1522.342187 1528.737348 
L 1522.342187 1296.712957 
" style="fill:none;"/>
   </g>
   <g id="patch_68">
    <path d="M 127.342188 1528.737348 
L 1522.342187 1528.737348 
" style="fill:none;"/>
   </g>
   <g id="patch_69">
    <path d="M 127.342188 1296.712957 
L 1522.342187 1296.712957 
" style="fill:none;"/>
   </g>
   <g id="text_76">
    <!-- Rok 2022 -->
    <g style="fill:#262626;" transform="translate(739.232813 1288.762957)scale(0.4 -0.4)">
     <use xlink:href="#ArialMT-82"/>
     <use x="72.216797" xlink:href="#ArialMT-111"/>
     <use x="127.832031" xlink:href="#ArialMT-107"/>
     <use x="177.832031" xlink:href="#ArialMT-32"/>
     <use x="205.615234" xlink:href="#ArialMT-50"/>
     <use x="261.230469" xlink:href="#ArialMT-48"/>
     <use x="316.845703" xlink:href="#ArialMT-50"/>
     <use x="372.460938" xlink:href="#ArialMT-50"/>
    </g>
   </g>
  </g>
  <g id="axes_5">
   <g id="patch_70">
    <path d="M 127.342188 1946.38125 
L 1522.342187 1946.38125 
L 1522.342187 1714.35686 
L 127.342188 1714.35686 
z
" style="fill:#eaeaf2;"/>
   </g>
   <g id="matplotlib.axis_9">
    <g id="xtick_49">
     <g id="line2d_129">
      <path clip-path="url(#p9096873d94)" d="M 233.740493 1946.38125 
L 233.740493 1714.35686 
" style="fill:none;stroke:#ffffff;stroke-linecap:round;stroke-width:0.8;"/>
     </g>
     <g id="line2d_130"/>
     <g id="text_77">
      <!-- 1 -->
      <g style="fill:#262626;" transform="translate(225.399086 1971.354688)scale(0.3 -0.3)">
       <use xlink:href="#ArialMT-49"/>
      </g>
     </g>
    </g>
    <g id="xtick_50">
     <g id="line2d_131">
      <path clip-path="url(#p9096873d94)" d="M 341.213528 1946.38125 
L 341.213528 1714.35686 
" style="fill:none;stroke:#ffffff;stroke-linecap:round;stroke-width:0.8;"/>
     </g>
     <g id="line2d_132"/>
     <g id="text_78">
      <!-- 2 -->
      <g style="fill:#262626;" transform="translate(332.872122 1971.354688)scale(0.3 -0.3)">
       <use xlink:href="#ArialMT-50"/>
      </g>
     </g>
    </g>
    <g id="xtick_51">
     <g id="line2d_133">
      <path clip-path="url(#p9096873d94)" d="M 448.686563 1946.38125 
L 448.686563 1714.35686 
" style="fill:none;stroke:#ffffff;stroke-linecap:round;stroke-width:0.8;"/>
     </g>
     <g id="line2d_134"/>
     <g id="text_79">
      <!-- 3 -->
      <g style="fill:#262626;" transform="translate(440.345157 1971.354688)scale(0.3 -0.3)">
       <use xlink:href="#ArialMT-51"/>
      </g>
     </g>
    </g>
    <g id="xtick_52">
     <g id="line2d_135">
      <path clip-path="url(#p9096873d94)" d="M 556.159599 1946.38125 
L 556.159599 1714.35686 
" style="fill:none;stroke:#ffffff;stroke-linecap:round;stroke-width:0.8;"/>
     </g>
     <g id="line2d_136"/>
     <g id="text_80">
      <!-- 4 -->
      <g style="fill:#262626;" transform="translate(547.818193 1971.354688)scale(0.3 -0.3)">
       <use xlink:href="#ArialMT-52"/>
      </g>
     </g>
    </g>
    <g id="xtick_53">
     <g id="line2d_137">
      <path clip-path="url(#p9096873d94)" d="M 663.632634 1946.38125 
L 663.632634 1714.35686 
" style="fill:none;stroke:#ffffff;stroke-linecap:round;stroke-width:0.8;"/>
     </g>
     <g id="line2d_138"/>
     <g id="text_81">
      <!-- 5 -->
      <g style="fill:#262626;" transform="translate(655.291228 1971.354688)scale(0.3 -0.3)">
       <use xlink:href="#ArialMT-53"/>
      </g>
     </g>
    </g>
    <g id="xtick_54">
     <g id="line2d_139">
      <path clip-path="url(#p9096873d94)" d="M 771.10567 1946.38125 
L 771.10567 1714.35686 
" style="fill:none;stroke:#ffffff;stroke-linecap:round;stroke-width:0.8;"/>
     </g>
     <g id="line2d_140"/>
     <g id="text_82">
      <!-- 6 -->
      <g style="fill:#262626;" transform="translate(762.764264 1971.354688)scale(0.3 -0.3)">
       <use xlink:href="#ArialMT-54"/>
      </g>
     </g>
    </g>
    <g id="xtick_55">
     <g id="line2d_141">
      <path clip-path="url(#p9096873d94)" d="M 878.578705 1946.38125 
L 878.578705 1714.35686 
" style="fill:none;stroke:#ffffff;stroke-linecap:round;stroke-width:0.8;"/>
     </g>
     <g id="line2d_142"/>
     <g id="text_83">
      <!-- 7 -->
      <g style="fill:#262626;" transform="translate(870.237299 1971.354688)scale(0.3 -0.3)">
       <use xlink:href="#ArialMT-55"/>
      </g>
     </g>
    </g>
    <g id="xtick_56">
     <g id="line2d_143">
      <path clip-path="url(#p9096873d94)" d="M 986.051741 1946.38125 
L 986.051741 1714.35686 
" style="fill:none;stroke:#ffffff;stroke-linecap:round;stroke-width:0.8;"/>
     </g>
     <g id="line2d_144"/>
     <g id="text_84">
      <!-- 8 -->
      <g style="fill:#262626;" transform="translate(977.710334 1971.354688)scale(0.3 -0.3)">
       <use xlink:href="#ArialMT-56"/>
      </g>
     </g>
    </g>
    <g id="xtick_57">
     <g id="line2d_145">
      <path clip-path="url(#p9096873d94)" d="M 1093.524776 1946.38125 
L 1093.524776 1714.35686 
" style="fill:none;stroke:#ffffff;stroke-linecap:round;stroke-width:0.8;"/>
     </g>
     <g id="line2d_146"/>
     <g id="text_85">
      <!-- 9 -->
      <g style="fill:#262626;" transform="translate(1085.18337 1971.354688)scale(0.3 -0.3)">
       <use xlink:href="#ArialMT-57"/>
      </g>
     </g>
    </g>
    <g id="xtick_58">
     <g id="line2d_147">
      <path clip-path="url(#p9096873d94)" d="M 1200.997812 1946.38125 
L 1200.997812 1714.35686 
" style="fill:none;stroke:#ffffff;stroke-linecap:round;stroke-width:0.8;"/>
     </g>
     <g id="line2d_148"/>
     <g id="text_86">
      <!-- 10 -->
      <g style="fill:#262626;" transform="translate(1184.314999 1971.354688)scale(0.3 -0.3)">
       <use xlink:href="#ArialMT-49"/>
       <use x="55.615234" xlink:href="#ArialMT-48"/>
      </g>
     </g>
    </g>
    <g id="xtick_59">
     <g id="line2d_149">
      <path clip-path="url(#p9096873d94)" d="M 1308.470847 1946.38125 
L 1308.470847 1714.35686 
" style="fill:none;stroke:#ffffff;stroke-linecap:round;stroke-width:0.8;"/>
     </g>
     <g id="line2d_150"/>
     <g id="text_87">
      <!-- 11 -->
      <g style="fill:#262626;" transform="translate(1292.894284 1971.354688)scale(0.3 -0.3)">
       <use xlink:href="#ArialMT-49"/>
       <use x="48.240234" xlink:href="#ArialMT-49"/>
      </g>
     </g>
    </g>
    <g id="xtick_60">
     <g id="line2d_151">
      <path clip-path="url(#p9096873d94)" d="M 1415.943882 1946.38125 
L 1415.943882 1714.35686 
" style="fill:none;stroke:#ffffff;stroke-linecap:round;stroke-width:0.8;"/>
     </g>
     <g id="line2d_152"/>
     <g id="text_88">
      <!-- 12 -->
      <g style="fill:#262626;" transform="translate(1399.26107 1971.354688)scale(0.3 -0.3)">
       <use xlink:href="#ArialMT-49"/>
       <use x="55.615234" xlink:href="#ArialMT-50"/>
      </g>
     </g>
    </g>
    <g id="text_89">
     <!-- Miesiąc -->
     <g style="fill:#262626;" transform="translate(765.525391 2006.369531)scale(0.35 -0.35)">
      <use xlink:href="#ArialMT-77"/>
      <use x="83.300781" xlink:href="#ArialMT-105"/>
      <use x="105.517578" xlink:href="#ArialMT-101"/>
      <use x="161.132812" xlink:href="#ArialMT-115"/>
      <use x="211.132812" xlink:href="#ArialMT-105"/>
      <use x="233.349609" xlink:href="#ArialMT-261"/>
      <use x="288.964844" xlink:href="#ArialMT-99"/>
     </g>
    </g>
   </g>
   <g id="matplotlib.axis_10">
    <g id="ytick_17">
     <g id="line2d_153">
      <path clip-path="url(#p9096873d94)" d="M 127.342188 1946.38125 
L 1522.342187 1946.38125 
" style="fill:none;stroke:#ffffff;stroke-linecap:round;stroke-width:0.8;"/>
     </g>
     <g id="line2d_154"/>
     <g id="text_90">
      <!-- 0 -->
      <g style="fill:#262626;" transform="translate(107.715469 1956.760078)scale(0.29 -0.29)">
       <use xlink:href="#ArialMT-48"/>
      </g>
     </g>
    </g>
    <g id="ytick_18">
     <g id="line2d_155">
      <path clip-path="url(#p9096873d94)" d="M 127.342188 1878.138782 
L 1522.342187 1878.138782 
" style="fill:none;stroke:#ffffff;stroke-linecap:round;stroke-width:0.8;"/>
     </g>
     <g id="line2d_156"/>
     <g id="text_91">
      <!-- 5000 -->
      <g style="fill:#262626;" transform="translate(59.335313 1888.51761)scale(0.29 -0.29)">
       <use xlink:href="#ArialMT-53"/>
       <use x="55.615234" xlink:href="#ArialMT-48"/>
       <use x="111.230469" xlink:href="#ArialMT-48"/>
       <use x="166.845703" xlink:href="#ArialMT-48"/>
      </g>
     </g>
    </g>
    <g id="ytick_19">
     <g id="line2d_157">
      <path clip-path="url(#p9096873d94)" d="M 127.342188 1809.896315 
L 1522.342187 1809.896315 
" style="fill:none;stroke:#ffffff;stroke-linecap:round;stroke-width:0.8;"/>
     </g>
     <g id="line2d_158"/>
     <g id="text_92">
      <!-- 10000 -->
      <g style="fill:#262626;" transform="translate(43.208594 1820.275143)scale(0.29 -0.29)">
       <use xlink:href="#ArialMT-49"/>
       <use x="55.615234" xlink:href="#ArialMT-48"/>
       <use x="111.230469" xlink:href="#ArialMT-48"/>
       <use x="166.845703" xlink:href="#ArialMT-48"/>
       <use x="222.460938" xlink:href="#ArialMT-48"/>
      </g>
     </g>
    </g>
    <g id="ytick_20">
     <g id="line2d_159">
      <path clip-path="url(#p9096873d94)" d="M 127.342188 1741.653847 
L 1522.342187 1741.653847 
" style="fill:none;stroke:#ffffff;stroke-linecap:round;stroke-width:0.8;"/>
     </g>
     <g id="line2d_160"/>
     <g id="text_93">
      <!-- 15000 -->
      <g style="fill:#262626;" transform="translate(43.208594 1752.032675)scale(0.29 -0.29)">
       <use xlink:href="#ArialMT-49"/>
       <use x="55.615234" xlink:href="#ArialMT-53"/>
       <use x="111.230469" xlink:href="#ArialMT-48"/>
       <use x="166.845703" xlink:href="#ArialMT-48"/>
       <use x="222.460938" xlink:href="#ArialMT-48"/>
      </g>
     </g>
    </g>
    <g id="text_94">
     <!-- Liczba lotów -->
     <g style="fill:#262626;" transform="translate(32.252344 1926.665539)rotate(-90)scale(0.35 -0.35)">
      <use xlink:href="#ArialMT-76"/>
      <use x="55.615234" xlink:href="#ArialMT-105"/>
      <use x="77.832031" xlink:href="#ArialMT-99"/>
      <use x="127.832031" xlink:href="#ArialMT-122"/>
      <use x="177.832031" xlink:href="#ArialMT-98"/>
      <use x="233.447266" xlink:href="#ArialMT-97"/>
      <use x="289.0625" xlink:href="#ArialMT-32"/>
      <use x="316.845703" xlink:href="#ArialMT-108"/>
      <use x="339.0625" xlink:href="#ArialMT-111"/>
      <use x="394.677734" xlink:href="#ArialMT-116"/>
      <use x="422.460938" xlink:href="#ArialMT-243"/>
      <use x="478.076172" xlink:href="#ArialMT-119"/>
     </g>
    </g>
   </g>
   <g id="patch_71">
    <path clip-path="url(#p9096873d94)" d="M 190.751278 1946.38125 
L 276.729707 1946.38125 
L 276.729707 1838.380721 
L 190.751278 1838.380721 
z
" style="fill:#1e90ff;stroke:#000000;stroke-linejoin:miter;"/>
   </g>
   <g id="patch_72">
    <path clip-path="url(#p9096873d94)" d="M 298.224314 1946.38125 
L 384.202742 1946.38125 
L 384.202742 1805.829063 
L 298.224314 1805.829063 
z
" style="fill:#00bfff;stroke:#000000;stroke-linejoin:miter;"/>
   </g>
   <g id="patch_73">
    <path clip-path="url(#p9096873d94)" d="M 405.697349 1946.38125 
L 491.675778 1946.38125 
L 491.675778 1769.524071 
L 405.697349 1769.524071 
z
" style="fill:#006400;stroke:#000000;stroke-linejoin:miter;"/>
   </g>
   <g id="patch_74">
    <path clip-path="url(#p9096873d94)" d="M 513.170385 1946.38125 
L 599.148813 1946.38125 
L 599.148813 1819.982551 
L 513.170385 1819.982551 
z
" style="fill:#228b22;stroke:#000000;stroke-linejoin:miter;"/>
   </g>
   <g id="patch_75">
    <path clip-path="url(#p9096873d94)" d="M 620.64342 1946.38125 
L 706.621849 1946.38125 
L 706.621849 1762.126587 
L 620.64342 1762.126587 
z
" style="fill:#2e8b57;stroke:#000000;stroke-linejoin:miter;"/>
   </g>
   <g id="patch_76">
    <path clip-path="url(#p9096873d94)" d="M 728.116456 1946.38125 
L 814.094884 1946.38125 
L 814.094884 1727.391171 
L 728.116456 1727.391171 
z
" style="fill:#dc143c;stroke:#000000;stroke-linejoin:miter;"/>
   </g>
   <g id="patch_77">
    <path clip-path="url(#p9096873d94)" d="M 835.589491 1946.38125 
L 921.567919 1946.38125 
L 921.567919 1767.940845 
L 835.589491 1767.940845 
z
" style="fill:#cd5c5c;stroke:#000000;stroke-linejoin:miter;"/>
   </g>
   <g id="patch_78">
    <path clip-path="url(#p9096873d94)" d="M 943.062526 1946.38125 
L 1029.040955 1946.38125 
L 1029.040955 1761.635241 
L 943.062526 1761.635241 
z
" style="fill:#fa8072;stroke:#000000;stroke-linejoin:miter;"/>
   </g>
   <g id="patch_79">
    <path clip-path="url(#p9096873d94)" d="M 1050.535562 1946.38125 
L 1136.51399 1946.38125 
L 1136.51399 1726.517668 
L 1050.535562 1726.517668 
z
" style="fill:#ffa500;stroke:#000000;stroke-linejoin:miter;"/>
   </g>
   <g id="patch_80">
    <path clip-path="url(#p9096873d94)" d="M 1158.008597 1946.38125 
L 1243.987026 1946.38125 
L 1243.987026 1730.12087 
L 1158.008597 1730.12087 
z
" style="fill:#ffd700;stroke:#000000;stroke-linejoin:miter;"/>
   </g>
   <g id="patch_81">
    <path clip-path="url(#p9096873d94)" d="M 1265.481633 1946.38125 
L 1351.460061 1946.38125 
L 1351.460061 1781.602987 
L 1265.481633 1781.602987 
z
" style="fill:#ffff00;stroke:#000000;stroke-linejoin:miter;"/>
   </g>
   <g id="patch_82">
    <path clip-path="url(#p9096873d94)" d="M 1372.954668 1946.38125 
L 1458.933097 1946.38125 
L 1458.933097 1801.461546 
L 1372.954668 1801.461546 
z
" style="fill:#4169e1;stroke:#000000;stroke-linejoin:miter;"/>
   </g>
   <g id="patch_83">
    <path d="M 127.342188 1946.38125 
L 127.342188 1714.35686 
" style="fill:none;"/>
   </g>
   <g id="patch_84">
    <path d="M 1522.342187 1946.38125 
L 1522.342187 1714.35686 
" style="fill:none;"/>
   </g>
   <g id="patch_85">
    <path d="M 127.342188 1946.38125 
L 1522.342187 1946.38125 
" style="fill:none;"/>
   </g>
   <g id="patch_86">
    <path d="M 127.342188 1714.35686 
L 1522.342187 1714.35686 
" style="fill:none;"/>
   </g>
   <g id="text_95">
    <!-- Rok 2023 -->
    <g style="fill:#262626;" transform="translate(739.232813 1706.40686)scale(0.4 -0.4)">
     <use xlink:href="#ArialMT-82"/>
     <use x="72.216797" xlink:href="#ArialMT-111"/>
     <use x="127.832031" xlink:href="#ArialMT-107"/>
     <use x="177.832031" xlink:href="#ArialMT-32"/>
     <use x="205.615234" xlink:href="#ArialMT-50"/>
     <use x="261.230469" xlink:href="#ArialMT-48"/>
     <use x="316.845703" xlink:href="#ArialMT-50"/>
     <use x="372.460938" xlink:href="#ArialMT-51"/>
    </g>
   </g>
  </g>
 </g>
 <defs>
  <clipPath id="p29245a6eef">
   <rect height="232.02439" width="1395" x="127.342188" y="43.78125"/>
  </clipPath>
  <clipPath id="pdfb8ffa76f">
   <rect height="232.02439" width="1395" x="127.342188" y="461.425152"/>
  </clipPath>
  <clipPath id="pe40526f53d">
   <rect height="232.02439" width="1395" x="127.342188" y="879.069055"/>
  </clipPath>
  <clipPath id="pa211a0171c">
   <rect height="232.02439" width="1395" x="127.342188" y="1296.712957"/>
  </clipPath>
  <clipPath id="p9096873d94">
   <rect height="232.02439" width="1395" x="127.342188" y="1714.35686"/>
  </clipPath>
 </defs>
</svg>
