<?xml version="1.0" encoding="utf-8" standalone="no"?>
<!DOCTYPE svg PUBLIC "-//W3C//DTD SVG 1.1//EN"
  "http://www.w3.org/Graphics/SVG/1.1/DTD/svg11.dtd">
<!-- Created with matplotlib (https://matplotlib.org/) -->
<svg height="727.146236pt" version="1.1" viewBox="0 0 918.934531 727.146236" width="918.934531pt" xmlns="http://www.w3.org/2000/svg" xmlns:xlink="http://www.w3.org/1999/xlink">
 <defs>
  <style type="text/css">
*{stroke-linecap:butt;stroke-linejoin:round;}
  </style>
 </defs>
 <g id="figure_1">
  <g id="patch_1">
   <path d="M 0 727.146236 
L 918.934531 727.146236 
L 918.934531 0 
L 0 0 
z
" style="fill:#ffffff;"/>
  </g>
  <g id="axes_1">
   <g id="patch_2">
    <path d="M 74.734531 315.547826 
L 455.189077 315.547826 
L 455.189077 79.2 
L 74.734531 79.2 
z
" style="fill:#eaeaf2;"/>
   </g>
   <g id="matplotlib.axis_1">
    <g id="xtick_1">
     <g id="line2d_1">
      <path clip-path="url(#pc44642f017)" d="M 120.223662 315.547826 
L 120.223662 79.2 
" style="fill:none;stroke:#ffffff;stroke-linecap:round;stroke-width:0.8;"/>
     </g>
     <g id="line2d_2"/>
     <g id="text_1">
      <!-- AT_LOWW -->
      <defs>
       <path d="M -0.140625 0 
L 27.34375 71.578125 
L 37.546875 71.578125 
L 66.84375 0 
L 56.0625 0 
L 47.703125 21.6875 
L 17.78125 21.6875 
L 9.90625 0 
z
M 20.515625 29.390625 
L 44.78125 29.390625 
L 37.3125 49.21875 
Q 33.890625 58.25 32.234375 64.0625 
Q 30.859375 57.171875 28.375 50.390625 
z
" id="ArialMT-65"/>
       <path d="M 25.921875 0 
L 25.921875 63.140625 
L 2.34375 63.140625 
L 2.34375 71.578125 
L 59.078125 71.578125 
L 59.078125 63.140625 
L 35.40625 63.140625 
L 35.40625 0 
z
" id="ArialMT-84"/>
       <path d="M -1.515625 -19.875 
L -1.515625 -13.53125 
L 56.734375 -13.53125 
L 56.734375 -19.875 
z
" id="ArialMT-95"/>
       <path d="M 7.328125 0 
L 7.328125 71.578125 
L 16.796875 71.578125 
L 16.796875 8.453125 
L 52.046875 8.453125 
L 52.046875 0 
z
" id="ArialMT-76"/>
       <path d="M 4.828125 34.859375 
Q 4.828125 52.6875 14.390625 62.765625 
Q 23.96875 72.859375 39.109375 72.859375 
Q 49.03125 72.859375 56.984375 68.109375 
Q 64.9375 63.375 69.109375 54.90625 
Q 73.296875 46.4375 73.296875 35.6875 
Q 73.296875 24.8125 68.890625 16.21875 
Q 64.5 7.625 56.4375 3.203125 
Q 48.390625 -1.21875 39.0625 -1.21875 
Q 28.953125 -1.21875 20.984375 3.65625 
Q 13.03125 8.546875 8.921875 16.984375 
Q 4.828125 25.4375 4.828125 34.859375 
z
M 14.59375 34.71875 
Q 14.59375 21.78125 21.546875 14.328125 
Q 28.515625 6.890625 39.015625 6.890625 
Q 49.703125 6.890625 56.609375 14.40625 
Q 63.53125 21.921875 63.53125 35.75 
Q 63.53125 44.484375 60.578125 51 
Q 57.625 57.515625 51.921875 61.109375 
Q 46.234375 64.703125 39.15625 64.703125 
Q 29.109375 64.703125 21.84375 57.78125 
Q 14.59375 50.875 14.59375 34.71875 
z
" id="ArialMT-79"/>
       <path d="M 20.21875 0 
L 1.21875 71.578125 
L 10.9375 71.578125 
L 21.828125 24.65625 
Q 23.578125 17.28125 24.859375 10.015625 
Q 27.59375 21.484375 28.078125 23.25 
L 41.703125 71.578125 
L 53.125 71.578125 
L 63.375 35.359375 
Q 67.234375 21.875 68.953125 10.015625 
Q 70.3125 16.796875 72.515625 25.59375 
L 83.734375 71.578125 
L 93.265625 71.578125 
L 73.640625 0 
L 64.5 0 
L 49.421875 54.546875 
Q 47.515625 61.375 47.171875 62.9375 
Q 46.046875 58.015625 45.0625 54.546875 
L 29.890625 0 
z
" id="ArialMT-87"/>
      </defs>
      <g style="fill:#262626;" transform="translate(85.350537 329.248139)scale(0.14 -0.14)">
       <use xlink:href="#ArialMT-65"/>
       <use x="59.324219" xlink:href="#ArialMT-84"/>
       <use x="120.408203" xlink:href="#ArialMT-95"/>
       <use x="176.023438" xlink:href="#ArialMT-76"/>
       <use x="231.638672" xlink:href="#ArialMT-79"/>
       <use x="309.421875" xlink:href="#ArialMT-87"/>
       <use x="403.806641" xlink:href="#ArialMT-87"/>
      </g>
     </g>
    </g>
    <g id="xtick_2">
     <g id="line2d_3">
      <path clip-path="url(#pc44642f017)" d="M 195.412307 315.547826 
L 195.412307 79.2 
" style="fill:none;stroke:#ffffff;stroke-linecap:round;stroke-width:0.8;"/>
     </g>
     <g id="line2d_4"/>
     <g id="text_2">
      <!-- DE_EDDF -->
      <defs>
       <path d="M 7.71875 0 
L 7.71875 71.578125 
L 32.375 71.578125 
Q 40.71875 71.578125 45.125 70.5625 
Q 51.265625 69.140625 55.609375 65.4375 
Q 61.28125 60.640625 64.078125 53.1875 
Q 66.890625 45.75 66.890625 36.1875 
Q 66.890625 28.03125 64.984375 21.734375 
Q 63.09375 15.4375 60.109375 11.296875 
Q 57.125 7.171875 53.578125 4.796875 
Q 50.046875 2.4375 45.046875 1.21875 
Q 40.046875 0 33.546875 0 
z
M 17.1875 8.453125 
L 32.46875 8.453125 
Q 39.546875 8.453125 43.578125 9.765625 
Q 47.609375 11.078125 50 13.484375 
Q 53.375 16.84375 55.25 22.53125 
Q 57.125 28.21875 57.125 36.328125 
Q 57.125 47.5625 53.4375 53.59375 
Q 49.75 59.625 44.484375 61.671875 
Q 40.671875 63.140625 32.234375 63.140625 
L 17.1875 63.140625 
z
" id="ArialMT-68"/>
       <path d="M 7.90625 0 
L 7.90625 71.578125 
L 59.671875 71.578125 
L 59.671875 63.140625 
L 17.390625 63.140625 
L 17.390625 41.21875 
L 56.984375 41.21875 
L 56.984375 32.8125 
L 17.390625 32.8125 
L 17.390625 8.453125 
L 61.328125 8.453125 
L 61.328125 0 
z
" id="ArialMT-69"/>
       <path d="M 8.203125 0 
L 8.203125 71.578125 
L 56.5 71.578125 
L 56.5 63.140625 
L 17.671875 63.140625 
L 17.671875 40.96875 
L 51.265625 40.96875 
L 51.265625 32.515625 
L 17.671875 32.515625 
L 17.671875 0 
z
" id="ArialMT-70"/>
      </defs>
      <g style="fill:#262626;" transform="translate(162.739807 329.068764)scale(0.14 -0.14)">
       <use xlink:href="#ArialMT-68"/>
       <use x="72.216797" xlink:href="#ArialMT-69"/>
       <use x="138.916016" xlink:href="#ArialMT-95"/>
       <use x="194.53125" xlink:href="#ArialMT-69"/>
       <use x="261.230469" xlink:href="#ArialMT-68"/>
       <use x="333.447266" xlink:href="#ArialMT-68"/>
       <use x="405.664062" xlink:href="#ArialMT-70"/>
      </g>
     </g>
    </g>
    <g id="xtick_3">
     <g id="line2d_5">
      <path clip-path="url(#pc44642f017)" d="M 270.600952 315.547826 
L 270.600952 79.2 
" style="fill:none;stroke:#ffffff;stroke-linecap:round;stroke-width:0.8;"/>
     </g>
     <g id="line2d_6"/>
     <g id="text_3">
      <!-- NO_ENGM -->
      <defs>
       <path d="M 7.625 0 
L 7.625 71.578125 
L 17.328125 71.578125 
L 54.9375 15.375 
L 54.9375 71.578125 
L 64.015625 71.578125 
L 64.015625 0 
L 54.296875 0 
L 16.703125 56.25 
L 16.703125 0 
z
" id="ArialMT-78"/>
       <path d="M 41.21875 28.078125 
L 41.21875 36.46875 
L 71.53125 36.53125 
L 71.53125 9.96875 
Q 64.546875 4.390625 57.125 1.578125 
Q 49.703125 -1.21875 41.890625 -1.21875 
Q 31.34375 -1.21875 22.71875 3.296875 
Q 14.109375 7.8125 9.71875 16.359375 
Q 5.328125 24.90625 5.328125 35.453125 
Q 5.328125 45.90625 9.6875 54.953125 
Q 14.0625 64.015625 22.265625 68.40625 
Q 30.46875 72.796875 41.15625 72.796875 
Q 48.921875 72.796875 55.1875 70.28125 
Q 61.46875 67.78125 65.03125 63.28125 
Q 68.609375 58.796875 70.453125 51.5625 
L 61.921875 49.21875 
Q 60.296875 54.6875 57.90625 57.8125 
Q 55.515625 60.9375 51.0625 62.8125 
Q 46.625 64.703125 41.21875 64.703125 
Q 34.71875 64.703125 29.984375 62.71875 
Q 25.25 60.75 22.34375 57.515625 
Q 19.4375 54.296875 17.828125 50.4375 
Q 15.09375 43.796875 15.09375 36.03125 
Q 15.09375 26.46875 18.390625 20.015625 
Q 21.6875 13.578125 27.984375 10.453125 
Q 34.28125 7.328125 41.359375 7.328125 
Q 47.515625 7.328125 53.375 9.6875 
Q 59.234375 12.0625 62.25 14.75 
L 62.25 28.078125 
z
" id="ArialMT-71"/>
       <path d="M 7.421875 0 
L 7.421875 71.578125 
L 21.6875 71.578125 
L 38.625 20.90625 
Q 40.96875 13.8125 42.046875 10.296875 
Q 43.265625 14.203125 45.84375 21.78125 
L 62.984375 71.578125 
L 75.734375 71.578125 
L 75.734375 0 
L 66.609375 0 
L 66.609375 59.90625 
L 45.796875 0 
L 37.25 0 
L 16.546875 60.9375 
L 16.546875 0 
z
" id="ArialMT-77"/>
      </defs>
      <g style="fill:#262626;" transform="translate(235.208296 329.248139)scale(0.14 -0.14)">
       <use xlink:href="#ArialMT-78"/>
       <use x="72.216797" xlink:href="#ArialMT-79"/>
       <use x="150" xlink:href="#ArialMT-95"/>
       <use x="205.615234" xlink:href="#ArialMT-69"/>
       <use x="272.314453" xlink:href="#ArialMT-78"/>
       <use x="344.53125" xlink:href="#ArialMT-71"/>
       <use x="422.314453" xlink:href="#ArialMT-77"/>
      </g>
     </g>
    </g>
    <g id="xtick_4">
     <g id="line2d_7">
      <path clip-path="url(#pc44642f017)" d="M 345.789598 315.547826 
L 345.789598 79.2 
" style="fill:none;stroke:#ffffff;stroke-linecap:round;stroke-width:0.8;"/>
     </g>
     <g id="line2d_8"/>
     <g id="text_4">
      <!-- PL_EPWA -->
      <defs>
       <path d="M 7.71875 0 
L 7.71875 71.578125 
L 34.71875 71.578125 
Q 41.84375 71.578125 45.609375 70.90625 
Q 50.875 70.015625 54.4375 67.546875 
Q 58.015625 65.09375 60.1875 60.640625 
Q 62.359375 56.203125 62.359375 50.875 
Q 62.359375 41.75 56.546875 35.421875 
Q 50.734375 29.109375 35.546875 29.109375 
L 17.1875 29.109375 
L 17.1875 0 
z
M 17.1875 37.546875 
L 35.6875 37.546875 
Q 44.875 37.546875 48.734375 40.96875 
Q 52.59375 44.390625 52.59375 50.59375 
Q 52.59375 55.078125 50.3125 58.265625 
Q 48.046875 61.46875 44.34375 62.5 
Q 41.9375 63.140625 35.5 63.140625 
L 17.1875 63.140625 
z
" id="ArialMT-80"/>
      </defs>
      <g style="fill:#262626;" transform="translate(312.982566 329.068764)scale(0.14 -0.14)">
       <use xlink:href="#ArialMT-80"/>
       <use x="66.699219" xlink:href="#ArialMT-76"/>
       <use x="122.314453" xlink:href="#ArialMT-95"/>
       <use x="177.929688" xlink:href="#ArialMT-69"/>
       <use x="244.628906" xlink:href="#ArialMT-80"/>
       <use x="311.328125" xlink:href="#ArialMT-87"/>
       <use x="401.962891" xlink:href="#ArialMT-65"/>
      </g>
     </g>
    </g>
    <g id="xtick_5">
     <g id="line2d_9">
      <path clip-path="url(#pc44642f017)" d="M 420.978243 315.547826 
L 420.978243 79.2 
" style="fill:none;stroke:#ffffff;stroke-linecap:round;stroke-width:0.8;"/>
     </g>
     <g id="line2d_10"/>
     <g id="text_5">
      <!-- PT_LPPT -->
      <g style="fill:#262626;" transform="translate(390.634337 329.068764)scale(0.14 -0.14)">
       <use xlink:href="#ArialMT-80"/>
       <use x="66.699219" xlink:href="#ArialMT-84"/>
       <use x="127.783203" xlink:href="#ArialMT-95"/>
       <use x="183.398438" xlink:href="#ArialMT-76"/>
       <use x="239.013672" xlink:href="#ArialMT-80"/>
       <use x="305.712891" xlink:href="#ArialMT-80"/>
       <use x="372.412109" xlink:href="#ArialMT-84"/>
      </g>
     </g>
    </g>
    <g id="text_6">
     <!-- Lotnisko -->
     <defs>
      <path d="M 3.328125 25.921875 
Q 3.328125 40.328125 11.328125 47.265625 
Q 18.015625 53.03125 27.640625 53.03125 
Q 38.328125 53.03125 45.109375 46.015625 
Q 51.90625 39.015625 51.90625 26.65625 
Q 51.90625 16.65625 48.90625 10.90625 
Q 45.90625 5.171875 40.15625 2 
Q 34.421875 -1.171875 27.640625 -1.171875 
Q 16.75 -1.171875 10.03125 5.8125 
Q 3.328125 12.796875 3.328125 25.921875 
z
M 12.359375 25.921875 
Q 12.359375 15.96875 16.703125 11.015625 
Q 21.046875 6.0625 27.640625 6.0625 
Q 34.1875 6.0625 38.53125 11.03125 
Q 42.875 16.015625 42.875 26.21875 
Q 42.875 35.84375 38.5 40.796875 
Q 34.125 45.75 27.640625 45.75 
Q 21.046875 45.75 16.703125 40.8125 
Q 12.359375 35.890625 12.359375 25.921875 
z
" id="ArialMT-111"/>
      <path d="M 25.78125 7.859375 
L 27.046875 0.09375 
Q 23.34375 -0.6875 20.40625 -0.6875 
Q 15.625 -0.6875 12.984375 0.828125 
Q 10.359375 2.34375 9.28125 4.8125 
Q 8.203125 7.28125 8.203125 15.1875 
L 8.203125 45.015625 
L 1.765625 45.015625 
L 1.765625 51.859375 
L 8.203125 51.859375 
L 8.203125 64.703125 
L 16.9375 69.96875 
L 16.9375 51.859375 
L 25.78125 51.859375 
L 25.78125 45.015625 
L 16.9375 45.015625 
L 16.9375 14.703125 
Q 16.9375 10.9375 17.40625 9.859375 
Q 17.875 8.796875 18.921875 8.15625 
Q 19.96875 7.515625 21.921875 7.515625 
Q 23.390625 7.515625 25.78125 7.859375 
z
" id="ArialMT-116"/>
      <path d="M 6.59375 0 
L 6.59375 51.859375 
L 14.5 51.859375 
L 14.5 44.484375 
Q 20.21875 53.03125 31 53.03125 
Q 35.6875 53.03125 39.625 51.34375 
Q 43.5625 49.65625 45.515625 46.921875 
Q 47.46875 44.1875 48.25 40.4375 
Q 48.734375 37.984375 48.734375 31.890625 
L 48.734375 0 
L 39.9375 0 
L 39.9375 31.546875 
Q 39.9375 36.921875 38.90625 39.578125 
Q 37.890625 42.234375 35.28125 43.8125 
Q 32.671875 45.40625 29.15625 45.40625 
Q 23.53125 45.40625 19.453125 41.84375 
Q 15.375 38.28125 15.375 28.328125 
L 15.375 0 
z
" id="ArialMT-110"/>
      <path d="M 6.640625 61.46875 
L 6.640625 71.578125 
L 15.4375 71.578125 
L 15.4375 61.46875 
z
M 6.640625 0 
L 6.640625 51.859375 
L 15.4375 51.859375 
L 15.4375 0 
z
" id="ArialMT-105"/>
      <path d="M 3.078125 15.484375 
L 11.765625 16.84375 
Q 12.5 11.625 15.84375 8.84375 
Q 19.1875 6.0625 25.203125 6.0625 
Q 31.25 6.0625 34.171875 8.515625 
Q 37.109375 10.984375 37.109375 14.3125 
Q 37.109375 17.28125 34.515625 19 
Q 32.71875 20.171875 25.53125 21.96875 
Q 15.875 24.421875 12.140625 26.203125 
Q 8.40625 27.984375 6.46875 31.125 
Q 4.546875 34.28125 4.546875 38.09375 
Q 4.546875 41.546875 6.125 44.5 
Q 7.71875 47.46875 10.453125 49.421875 
Q 12.5 50.921875 16.03125 51.96875 
Q 19.578125 53.03125 23.640625 53.03125 
Q 29.734375 53.03125 34.34375 51.265625 
Q 38.96875 49.515625 41.15625 46.5 
Q 43.359375 43.5 44.1875 38.484375 
L 35.59375 37.3125 
Q 35.015625 41.3125 32.203125 43.546875 
Q 29.390625 45.796875 24.265625 45.796875 
Q 18.21875 45.796875 15.625 43.796875 
Q 13.03125 41.796875 13.03125 39.109375 
Q 13.03125 37.40625 14.109375 36.03125 
Q 15.1875 34.625 17.484375 33.6875 
Q 18.796875 33.203125 25.25 31.453125 
Q 34.578125 28.953125 38.25 27.359375 
Q 41.9375 25.78125 44.03125 22.75 
Q 46.140625 19.734375 46.140625 15.234375 
Q 46.140625 10.84375 43.578125 6.953125 
Q 41.015625 3.078125 36.171875 0.953125 
Q 31.34375 -1.171875 25.25 -1.171875 
Q 15.140625 -1.171875 9.84375 3.03125 
Q 4.546875 7.234375 3.078125 15.484375 
z
" id="ArialMT-115"/>
      <path d="M 6.640625 0 
L 6.640625 71.578125 
L 15.4375 71.578125 
L 15.4375 30.765625 
L 36.234375 51.859375 
L 47.609375 51.859375 
L 27.78125 32.625 
L 49.609375 0 
L 38.765625 0 
L 21.625 26.515625 
L 15.4375 20.5625 
L 15.4375 0 
z
" id="ArialMT-107"/>
     </defs>
     <g style="fill:#262626;" transform="translate(233.304616 348.19892)scale(0.17 -0.17)">
      <use xlink:href="#ArialMT-76"/>
      <use x="55.615234" xlink:href="#ArialMT-111"/>
      <use x="111.230469" xlink:href="#ArialMT-116"/>
      <use x="139.013672" xlink:href="#ArialMT-110"/>
      <use x="194.628906" xlink:href="#ArialMT-105"/>
      <use x="216.845703" xlink:href="#ArialMT-115"/>
      <use x="266.845703" xlink:href="#ArialMT-107"/>
      <use x="316.845703" xlink:href="#ArialMT-111"/>
     </g>
    </g>
   </g>
   <g id="matplotlib.axis_2">
    <g id="ytick_1">
     <g id="line2d_11">
      <path clip-path="url(#pc44642f017)" d="M 74.734531 315.547826 
L 455.189077 315.547826 
" style="fill:none;stroke:#ffffff;stroke-linecap:round;stroke-width:0.8;"/>
     </g>
     <g id="line2d_12"/>
     <g id="text_7">
      <!-- 0 -->
      <defs>
       <path d="M 4.15625 35.296875 
Q 4.15625 48 6.765625 55.734375 
Q 9.375 63.484375 14.515625 67.671875 
Q 19.671875 71.875 27.484375 71.875 
Q 33.25 71.875 37.59375 69.546875 
Q 41.9375 67.234375 44.765625 62.859375 
Q 47.609375 58.5 49.21875 52.21875 
Q 50.828125 45.953125 50.828125 35.296875 
Q 50.828125 22.703125 48.234375 14.96875 
Q 45.65625 7.234375 40.5 3 
Q 35.359375 -1.21875 27.484375 -1.21875 
Q 17.140625 -1.21875 11.234375 6.203125 
Q 4.15625 15.140625 4.15625 35.296875 
z
M 13.1875 35.296875 
Q 13.1875 17.671875 17.3125 11.828125 
Q 21.4375 6 27.484375 6 
Q 33.546875 6 37.671875 11.859375 
Q 41.796875 17.71875 41.796875 35.296875 
Q 41.796875 52.984375 37.671875 58.78125 
Q 33.546875 64.59375 27.390625 64.59375 
Q 21.34375 64.59375 17.71875 59.46875 
Q 13.1875 52.9375 13.1875 35.296875 
z
" id="ArialMT-48"/>
      </defs>
      <g style="fill:#262626;" transform="translate(62.337031 321.274076)scale(0.16 -0.16)">
       <use xlink:href="#ArialMT-48"/>
      </g>
     </g>
    </g>
    <g id="ytick_2">
     <g id="line2d_13">
      <path clip-path="url(#pc44642f017)" d="M 74.734531 276.156522 
L 455.189077 276.156522 
" style="fill:none;stroke:#ffffff;stroke-linecap:round;stroke-width:0.8;"/>
     </g>
     <g id="line2d_14"/>
     <g id="text_8">
      <!-- 5000 -->
      <defs>
       <path d="M 4.15625 18.75 
L 13.375 19.53125 
Q 14.40625 12.796875 18.140625 9.390625 
Q 21.875 6 27.15625 6 
Q 33.5 6 37.890625 10.78125 
Q 42.28125 15.578125 42.28125 23.484375 
Q 42.28125 31 38.0625 35.34375 
Q 33.84375 39.703125 27 39.703125 
Q 22.75 39.703125 19.328125 37.765625 
Q 15.921875 35.84375 13.96875 32.765625 
L 5.71875 33.84375 
L 12.640625 70.609375 
L 48.25 70.609375 
L 48.25 62.203125 
L 19.671875 62.203125 
L 15.828125 42.96875 
Q 22.265625 47.46875 29.34375 47.46875 
Q 38.71875 47.46875 45.15625 40.96875 
Q 51.609375 34.46875 51.609375 24.265625 
Q 51.609375 14.546875 45.953125 7.46875 
Q 39.0625 -1.21875 27.15625 -1.21875 
Q 17.390625 -1.21875 11.203125 4.25 
Q 5.03125 9.71875 4.15625 18.75 
z
" id="ArialMT-53"/>
      </defs>
      <g style="fill:#262626;" transform="translate(35.644531 281.882772)scale(0.16 -0.16)">
       <use xlink:href="#ArialMT-53"/>
       <use x="55.615234" xlink:href="#ArialMT-48"/>
       <use x="111.230469" xlink:href="#ArialMT-48"/>
       <use x="166.845703" xlink:href="#ArialMT-48"/>
      </g>
     </g>
    </g>
    <g id="ytick_3">
     <g id="line2d_15">
      <path clip-path="url(#pc44642f017)" d="M 74.734531 236.765217 
L 455.189077 236.765217 
" style="fill:none;stroke:#ffffff;stroke-linecap:round;stroke-width:0.8;"/>
     </g>
     <g id="line2d_16"/>
     <g id="text_9">
      <!-- 10000 -->
      <defs>
       <path d="M 37.25 0 
L 28.46875 0 
L 28.46875 56 
Q 25.296875 52.984375 20.140625 49.953125 
Q 14.984375 46.921875 10.890625 45.40625 
L 10.890625 53.90625 
Q 18.265625 57.375 23.78125 62.296875 
Q 29.296875 67.234375 31.59375 71.875 
L 37.25 71.875 
z
" id="ArialMT-49"/>
      </defs>
      <g style="fill:#262626;" transform="translate(26.747031 242.491467)scale(0.16 -0.16)">
       <use xlink:href="#ArialMT-49"/>
       <use x="55.615234" xlink:href="#ArialMT-48"/>
       <use x="111.230469" xlink:href="#ArialMT-48"/>
       <use x="166.845703" xlink:href="#ArialMT-48"/>
       <use x="222.460938" xlink:href="#ArialMT-48"/>
      </g>
     </g>
    </g>
    <g id="ytick_4">
     <g id="line2d_17">
      <path clip-path="url(#pc44642f017)" d="M 74.734531 197.373913 
L 455.189077 197.373913 
" style="fill:none;stroke:#ffffff;stroke-linecap:round;stroke-width:0.8;"/>
     </g>
     <g id="line2d_18"/>
     <g id="text_10">
      <!-- 15000 -->
      <g style="fill:#262626;" transform="translate(26.747031 203.100163)scale(0.16 -0.16)">
       <use xlink:href="#ArialMT-49"/>
       <use x="55.615234" xlink:href="#ArialMT-53"/>
       <use x="111.230469" xlink:href="#ArialMT-48"/>
       <use x="166.845703" xlink:href="#ArialMT-48"/>
       <use x="222.460938" xlink:href="#ArialMT-48"/>
      </g>
     </g>
    </g>
    <g id="ytick_5">
     <g id="line2d_19">
      <path clip-path="url(#pc44642f017)" d="M 74.734531 157.982609 
L 455.189077 157.982609 
" style="fill:none;stroke:#ffffff;stroke-linecap:round;stroke-width:0.8;"/>
     </g>
     <g id="line2d_20"/>
     <g id="text_11">
      <!-- 20000 -->
      <defs>
       <path d="M 50.34375 8.453125 
L 50.34375 0 
L 3.03125 0 
Q 2.9375 3.171875 4.046875 6.109375 
Q 5.859375 10.9375 9.828125 15.625 
Q 13.8125 20.3125 21.34375 26.46875 
Q 33.015625 36.03125 37.109375 41.625 
Q 41.21875 47.21875 41.21875 52.203125 
Q 41.21875 57.421875 37.46875 61 
Q 33.734375 64.59375 27.734375 64.59375 
Q 21.390625 64.59375 17.578125 60.78125 
Q 13.765625 56.984375 13.71875 50.25 
L 4.6875 51.171875 
Q 5.609375 61.28125 11.65625 66.578125 
Q 17.71875 71.875 27.9375 71.875 
Q 38.234375 71.875 44.234375 66.15625 
Q 50.25 60.453125 50.25 52 
Q 50.25 47.703125 48.484375 43.546875 
Q 46.734375 39.40625 42.65625 34.8125 
Q 38.578125 30.21875 29.109375 22.21875 
Q 21.1875 15.578125 18.9375 13.203125 
Q 16.703125 10.84375 15.234375 8.453125 
z
" id="ArialMT-50"/>
      </defs>
      <g style="fill:#262626;" transform="translate(26.747031 163.708859)scale(0.16 -0.16)">
       <use xlink:href="#ArialMT-50"/>
       <use x="55.615234" xlink:href="#ArialMT-48"/>
       <use x="111.230469" xlink:href="#ArialMT-48"/>
       <use x="166.845703" xlink:href="#ArialMT-48"/>
       <use x="222.460938" xlink:href="#ArialMT-48"/>
      </g>
     </g>
    </g>
    <g id="ytick_6">
     <g id="line2d_21">
      <path clip-path="url(#pc44642f017)" d="M 74.734531 118.591304 
L 455.189077 118.591304 
" style="fill:none;stroke:#ffffff;stroke-linecap:round;stroke-width:0.8;"/>
     </g>
     <g id="line2d_22"/>
     <g id="text_12">
      <!-- 25000 -->
      <g style="fill:#262626;" transform="translate(26.747031 124.317554)scale(0.16 -0.16)">
       <use xlink:href="#ArialMT-50"/>
       <use x="55.615234" xlink:href="#ArialMT-53"/>
       <use x="111.230469" xlink:href="#ArialMT-48"/>
       <use x="166.845703" xlink:href="#ArialMT-48"/>
       <use x="222.460938" xlink:href="#ArialMT-48"/>
      </g>
     </g>
    </g>
    <g id="ytick_7">
     <g id="line2d_23">
      <path clip-path="url(#pc44642f017)" d="M 74.734531 79.2 
L 455.189077 79.2 
" style="fill:none;stroke:#ffffff;stroke-linecap:round;stroke-width:0.8;"/>
     </g>
     <g id="line2d_24"/>
     <g id="text_13">
      <!-- 30000 -->
      <defs>
       <path d="M 4.203125 18.890625 
L 12.984375 20.0625 
Q 14.5 12.59375 18.140625 9.296875 
Q 21.78125 6 27 6 
Q 33.203125 6 37.46875 10.296875 
Q 41.75 14.59375 41.75 20.953125 
Q 41.75 27 37.796875 30.921875 
Q 33.84375 34.859375 27.734375 34.859375 
Q 25.25 34.859375 21.53125 33.890625 
L 22.515625 41.609375 
Q 23.390625 41.5 23.921875 41.5 
Q 29.546875 41.5 34.03125 44.421875 
Q 38.53125 47.359375 38.53125 53.46875 
Q 38.53125 58.296875 35.25 61.46875 
Q 31.984375 64.65625 26.8125 64.65625 
Q 21.6875 64.65625 18.265625 61.421875 
Q 14.84375 58.203125 13.875 51.765625 
L 5.078125 53.328125 
Q 6.6875 62.15625 12.390625 67.015625 
Q 18.109375 71.875 26.609375 71.875 
Q 32.46875 71.875 37.390625 69.359375 
Q 42.328125 66.84375 44.9375 62.5 
Q 47.5625 58.15625 47.5625 53.265625 
Q 47.5625 48.640625 45.0625 44.828125 
Q 42.578125 41.015625 37.703125 38.765625 
Q 44.046875 37.3125 47.5625 32.6875 
Q 51.078125 28.078125 51.078125 21.140625 
Q 51.078125 11.765625 44.234375 5.25 
Q 37.40625 -1.265625 26.953125 -1.265625 
Q 17.53125 -1.265625 11.296875 4.34375 
Q 5.078125 9.96875 4.203125 18.890625 
z
" id="ArialMT-51"/>
      </defs>
      <g style="fill:#262626;" transform="translate(26.747031 84.92625)scale(0.16 -0.16)">
       <use xlink:href="#ArialMT-51"/>
       <use x="55.615234" xlink:href="#ArialMT-48"/>
       <use x="111.230469" xlink:href="#ArialMT-48"/>
       <use x="166.845703" xlink:href="#ArialMT-48"/>
       <use x="222.460938" xlink:href="#ArialMT-48"/>
      </g>
     </g>
    </g>
    <g id="text_14">
     <!-- Liczba lotów -->
     <defs>
      <path d="M 40.4375 19 
L 49.078125 17.875 
Q 47.65625 8.9375 41.8125 3.875 
Q 35.984375 -1.171875 27.484375 -1.171875 
Q 16.84375 -1.171875 10.375 5.78125 
Q 3.90625 12.75 3.90625 25.734375 
Q 3.90625 34.125 6.6875 40.421875 
Q 9.46875 46.734375 15.15625 49.875 
Q 20.84375 53.03125 27.546875 53.03125 
Q 35.984375 53.03125 41.359375 48.75 
Q 46.734375 44.484375 48.25 36.625 
L 39.703125 35.296875 
Q 38.484375 40.53125 35.375 43.15625 
Q 32.28125 45.796875 27.875 45.796875 
Q 21.234375 45.796875 17.078125 41.03125 
Q 12.9375 36.28125 12.9375 25.984375 
Q 12.9375 15.53125 16.9375 10.796875 
Q 20.953125 6.0625 27.390625 6.0625 
Q 32.5625 6.0625 36.03125 9.234375 
Q 39.5 12.40625 40.4375 19 
z
" id="ArialMT-99"/>
      <path d="M 1.953125 0 
L 1.953125 7.125 
L 34.96875 45.015625 
Q 29.34375 44.734375 25.046875 44.734375 
L 3.90625 44.734375 
L 3.90625 51.859375 
L 46.296875 51.859375 
L 46.296875 46.046875 
L 18.21875 13.140625 
L 12.796875 7.125 
Q 18.703125 7.5625 23.875 7.5625 
L 47.859375 7.5625 
L 47.859375 0 
z
" id="ArialMT-122"/>
      <path d="M 14.703125 0 
L 6.546875 0 
L 6.546875 71.578125 
L 15.328125 71.578125 
L 15.328125 46.046875 
Q 20.90625 53.03125 29.546875 53.03125 
Q 34.328125 53.03125 38.59375 51.09375 
Q 42.875 49.171875 45.625 45.671875 
Q 48.390625 42.1875 49.953125 37.25 
Q 51.515625 32.328125 51.515625 26.703125 
Q 51.515625 13.375 44.921875 6.09375 
Q 38.328125 -1.171875 29.109375 -1.171875 
Q 19.921875 -1.171875 14.703125 6.5 
z
M 14.59375 26.3125 
Q 14.59375 17 17.140625 12.84375 
Q 21.296875 6.0625 28.375 6.0625 
Q 34.125 6.0625 38.328125 11.0625 
Q 42.53125 16.0625 42.53125 25.984375 
Q 42.53125 36.140625 38.5 40.96875 
Q 34.46875 45.796875 28.765625 45.796875 
Q 23 45.796875 18.796875 40.796875 
Q 14.59375 35.796875 14.59375 26.3125 
z
" id="ArialMT-98"/>
      <path d="M 40.4375 6.390625 
Q 35.546875 2.25 31.03125 0.53125 
Q 26.515625 -1.171875 21.34375 -1.171875 
Q 12.796875 -1.171875 8.203125 3 
Q 3.609375 7.171875 3.609375 13.671875 
Q 3.609375 17.484375 5.34375 20.625 
Q 7.078125 23.78125 9.890625 25.6875 
Q 12.703125 27.59375 16.21875 28.5625 
Q 18.796875 29.25 24.03125 29.890625 
Q 34.671875 31.15625 39.703125 32.90625 
Q 39.75 34.71875 39.75 35.203125 
Q 39.75 40.578125 37.25 42.78125 
Q 33.890625 45.75 27.25 45.75 
Q 21.046875 45.75 18.09375 43.578125 
Q 15.140625 41.40625 13.71875 35.890625 
L 5.125 37.0625 
Q 6.296875 42.578125 8.984375 45.96875 
Q 11.671875 49.359375 16.75 51.1875 
Q 21.828125 53.03125 28.515625 53.03125 
Q 35.15625 53.03125 39.296875 51.46875 
Q 43.453125 49.90625 45.40625 47.53125 
Q 47.359375 45.171875 48.140625 41.546875 
Q 48.578125 39.3125 48.578125 33.453125 
L 48.578125 21.734375 
Q 48.578125 9.46875 49.140625 6.21875 
Q 49.703125 2.984375 51.375 0 
L 42.1875 0 
Q 40.828125 2.734375 40.4375 6.390625 
z
M 39.703125 26.03125 
Q 34.90625 24.078125 25.34375 22.703125 
Q 19.921875 21.921875 17.671875 20.9375 
Q 15.4375 19.96875 14.203125 18.09375 
Q 12.984375 16.21875 12.984375 13.921875 
Q 12.984375 10.40625 15.640625 8.0625 
Q 18.3125 5.71875 23.4375 5.71875 
Q 28.515625 5.71875 32.46875 7.9375 
Q 36.421875 10.15625 38.28125 14.015625 
Q 39.703125 17 39.703125 22.796875 
z
" id="ArialMT-97"/>
      <path id="ArialMT-32"/>
      <path d="M 6.390625 0 
L 6.390625 71.578125 
L 15.1875 71.578125 
L 15.1875 0 
z
" id="ArialMT-108"/>
      <path d="M 3.328125 25.921875 
Q 3.328125 40.328125 11.328125 47.265625 
Q 18.015625 53.03125 27.640625 53.03125 
Q 38.328125 53.03125 45.109375 46.015625 
Q 51.90625 39.015625 51.90625 26.65625 
Q 51.90625 16.65625 48.90625 10.90625 
Q 45.90625 5.171875 40.15625 2 
Q 34.421875 -1.171875 27.640625 -1.171875 
Q 16.75 -1.171875 10.03125 5.8125 
Q 3.328125 12.796875 3.328125 25.921875 
z
M 12.359375 25.921875 
Q 12.359375 15.96875 16.703125 11.015625 
Q 21.046875 6.0625 27.640625 6.0625 
Q 34.1875 6.0625 38.53125 11.03125 
Q 42.875 16.015625 42.875 26.21875 
Q 42.875 35.84375 38.5 40.796875 
Q 34.125 45.75 27.640625 45.75 
Q 21.046875 45.75 16.703125 40.8125 
Q 12.359375 35.890625 12.359375 25.921875 
z
M 22.75 58.296875 
L 29.25 71.96875 
L 40.765625 71.96875 
L 30.03125 58.296875 
z
" id="ArialMT-243"/>
      <path d="M 16.15625 0 
L 0.296875 51.859375 
L 9.375 51.859375 
L 17.625 21.921875 
L 20.703125 10.796875 
Q 20.90625 11.625 23.390625 21.484375 
L 31.640625 51.859375 
L 40.671875 51.859375 
L 48.4375 21.78125 
L 51.03125 11.859375 
L 54 21.875 
L 62.890625 51.859375 
L 71.4375 51.859375 
L 55.21875 0 
L 46.09375 0 
L 37.84375 31.0625 
L 35.84375 39.890625 
L 25.34375 0 
z
" id="ArialMT-119"/>
     </defs>
     <g style="fill:#262626;" transform="translate(19.368281 244.146491)rotate(-90)scale(0.17 -0.17)">
      <use xlink:href="#ArialMT-76"/>
      <use x="55.615234" xlink:href="#ArialMT-105"/>
      <use x="77.832031" xlink:href="#ArialMT-99"/>
      <use x="127.832031" xlink:href="#ArialMT-122"/>
      <use x="177.832031" xlink:href="#ArialMT-98"/>
      <use x="233.447266" xlink:href="#ArialMT-97"/>
      <use x="289.0625" xlink:href="#ArialMT-32"/>
      <use x="316.845703" xlink:href="#ArialMT-108"/>
      <use x="339.0625" xlink:href="#ArialMT-111"/>
      <use x="394.677734" xlink:href="#ArialMT-116"/>
      <use x="422.460938" xlink:href="#ArialMT-243"/>
      <use x="478.076172" xlink:href="#ArialMT-119"/>
     </g>
    </g>
   </g>
   <g id="patch_3">
    <path clip-path="url(#pc44642f017)" d="M 92.02792 315.547826 
L 103.306216 315.547826 
L 103.306216 297.31753 
L 92.02792 297.31753 
z
" style="fill:#00bfff;stroke:#000000;stroke-linejoin:miter;"/>
   </g>
   <g id="patch_4">
    <path clip-path="url(#pc44642f017)" d="M 167.216565 315.547826 
L 178.494862 315.547826 
L 178.494862 183.972991 
L 167.216565 183.972991 
z
" style="fill:#00bfff;stroke:#000000;stroke-linejoin:miter;"/>
   </g>
   <g id="patch_5">
    <path clip-path="url(#pc44642f017)" d="M 242.40521 315.547826 
L 253.683507 315.547826 
L 253.683507 96.91033 
L 242.40521 96.91033 
z
" style="fill:#00bfff;stroke:#000000;stroke-linejoin:miter;"/>
   </g>
   <g id="patch_6">
    <path clip-path="url(#pc44642f017)" d="M 317.593856 315.547826 
L 328.872153 315.547826 
L 328.872153 265.300278 
L 317.593856 265.300278 
z
" style="fill:#00bfff;stroke:#000000;stroke-linejoin:miter;"/>
   </g>
   <g id="patch_7">
    <path clip-path="url(#pc44642f017)" d="M 392.782501 315.547826 
L 404.060798 315.547826 
L 404.060798 262.401078 
L 392.782501 262.401078 
z
" style="fill:#00bfff;stroke:#000000;stroke-linejoin:miter;"/>
   </g>
   <g id="patch_8">
    <path clip-path="url(#pc44642f017)" d="M 103.306216 315.547826 
L 114.584513 315.547826 
L 114.584513 301.162122 
L 103.306216 301.162122 
z
" style="fill:#dc143c;stroke:#000000;stroke-linejoin:miter;"/>
   </g>
   <g id="patch_9">
    <path clip-path="url(#pc44642f017)" d="M 178.494862 315.547826 
L 189.773159 315.547826 
L 189.773159 210.246991 
L 178.494862 210.246991 
z
" style="fill:#dc143c;stroke:#000000;stroke-linejoin:miter;"/>
   </g>
   <g id="patch_10">
    <path clip-path="url(#pc44642f017)" d="M 253.683507 315.547826 
L 264.961804 315.547826 
L 264.961804 123.901252 
L 253.683507 123.901252 
z
" style="fill:#dc143c;stroke:#000000;stroke-linejoin:miter;"/>
   </g>
   <g id="patch_11">
    <path clip-path="url(#pc44642f017)" d="M 328.872153 315.547826 
L 340.150449 315.547826 
L 340.150449 269.50727 
L 328.872153 269.50727 
z
" style="fill:#dc143c;stroke:#000000;stroke-linejoin:miter;"/>
   </g>
   <g id="patch_12">
    <path clip-path="url(#pc44642f017)" d="M 404.060798 315.547826 
L 415.339095 315.547826 
L 415.339095 272.67433 
L 404.060798 272.67433 
z
" style="fill:#dc143c;stroke:#000000;stroke-linejoin:miter;"/>
   </g>
   <g id="patch_13">
    <path clip-path="url(#pc44642f017)" d="M 114.584513 315.547826 
L 125.86281 315.547826 
L 125.86281 312.877096 
L 114.584513 312.877096 
z
" style="fill:#adff2f;stroke:#000000;stroke-linejoin:miter;"/>
   </g>
   <g id="patch_14">
    <path clip-path="url(#pc44642f017)" d="M 189.773159 315.547826 
L 201.051455 315.547826 
L 201.051455 291.077948 
L 189.773159 291.077948 
z
" style="fill:#adff2f;stroke:#000000;stroke-linejoin:miter;"/>
   </g>
   <g id="patch_15">
    <path clip-path="url(#pc44642f017)" d="M 264.961804 315.547826 
L 276.240101 315.547826 
L 276.240101 224.758748 
L 264.961804 224.758748 
z
" style="fill:#adff2f;stroke:#000000;stroke-linejoin:miter;"/>
   </g>
   <g id="patch_16">
    <path clip-path="url(#pc44642f017)" d="M 340.150449 315.547826 
L 351.428746 315.547826 
L 351.428746 300.980922 
L 340.150449 300.980922 
z
" style="fill:#adff2f;stroke:#000000;stroke-linejoin:miter;"/>
   </g>
   <g id="patch_17">
    <path clip-path="url(#pc44642f017)" d="M 415.339095 315.547826 
L 426.617391 315.547826 
L 426.617391 299.736157 
L 415.339095 299.736157 
z
" style="fill:#adff2f;stroke:#000000;stroke-linejoin:miter;"/>
   </g>
   <g id="patch_18">
    <path clip-path="url(#pc44642f017)" d="M 125.86281 315.547826 
L 137.141107 315.547826 
L 137.141107 310.836626 
L 125.86281 310.836626 
z
" style="fill:#ff69b4;stroke:#000000;stroke-linejoin:miter;"/>
   </g>
   <g id="patch_19">
    <path clip-path="url(#pc44642f017)" d="M 201.051455 315.547826 
L 212.329752 315.547826 
L 212.329752 252.230243 
L 201.051455 252.230243 
z
" style="fill:#ff69b4;stroke:#000000;stroke-linejoin:miter;"/>
   </g>
   <g id="patch_20">
    <path clip-path="url(#pc44642f017)" d="M 276.240101 315.547826 
L 287.518398 315.547826 
L 287.518398 169.713339 
L 276.240101 169.713339 
z
" style="fill:#ff69b4;stroke:#000000;stroke-linejoin:miter;"/>
   </g>
   <g id="patch_21">
    <path clip-path="url(#pc44642f017)" d="M 351.428746 315.547826 
L 362.707043 315.547826 
L 362.707043 285.232278 
L 351.428746 285.232278 
z
" style="fill:#ff69b4;stroke:#000000;stroke-linejoin:miter;"/>
   </g>
   <g id="patch_22">
    <path clip-path="url(#pc44642f017)" d="M 426.617391 315.547826 
L 437.895688 315.547826 
L 437.895688 277.7952 
L 426.617391 277.7952 
z
" style="fill:#ff69b4;stroke:#000000;stroke-linejoin:miter;"/>
   </g>
   <g id="patch_23">
    <path d="M 74.734531 315.547826 
L 74.734531 79.2 
" style="fill:none;"/>
   </g>
   <g id="patch_24">
    <path d="M 455.189077 315.547826 
L 455.189077 79.2 
" style="fill:none;"/>
   </g>
   <g id="patch_25">
    <path d="M 74.734531 315.547826 
L 455.189077 315.547826 
" style="fill:none;"/>
   </g>
   <g id="patch_26">
    <path d="M 74.734531 79.2 
L 455.189077 79.2 
" style="fill:none;"/>
   </g>
   <g id="text_15">
    <!-- Pierwszy kwartał -->
    <defs>
     <path d="M 42.09375 16.703125 
L 51.171875 15.578125 
Q 49.03125 7.625 43.21875 3.21875 
Q 37.40625 -1.171875 28.375 -1.171875 
Q 17 -1.171875 10.328125 5.828125 
Q 3.65625 12.84375 3.65625 25.484375 
Q 3.65625 38.578125 10.390625 45.796875 
Q 17.140625 53.03125 27.875 53.03125 
Q 38.28125 53.03125 44.875 45.953125 
Q 51.46875 38.875 51.46875 26.03125 
Q 51.46875 25.25 51.421875 23.6875 
L 12.75 23.6875 
Q 13.234375 15.140625 17.578125 10.59375 
Q 21.921875 6.0625 28.421875 6.0625 
Q 33.25 6.0625 36.671875 8.59375 
Q 40.09375 11.140625 42.09375 16.703125 
z
M 13.234375 30.90625 
L 42.1875 30.90625 
Q 41.609375 37.453125 38.875 40.71875 
Q 34.671875 45.796875 27.984375 45.796875 
Q 21.921875 45.796875 17.796875 41.75 
Q 13.671875 37.703125 13.234375 30.90625 
z
" id="ArialMT-101"/>
     <path d="M 6.5 0 
L 6.5 51.859375 
L 14.40625 51.859375 
L 14.40625 44 
Q 17.4375 49.515625 20 51.265625 
Q 22.5625 53.03125 25.640625 53.03125 
Q 30.078125 53.03125 34.671875 50.203125 
L 31.640625 42.046875 
Q 28.421875 43.953125 25.203125 43.953125 
Q 22.3125 43.953125 20.015625 42.21875 
Q 17.71875 40.484375 16.75 37.40625 
Q 15.28125 32.71875 15.28125 27.15625 
L 15.28125 0 
z
" id="ArialMT-114"/>
     <path d="M 6.203125 -19.96875 
L 5.21875 -11.71875 
Q 8.109375 -12.5 10.25 -12.5 
Q 13.1875 -12.5 14.9375 -11.515625 
Q 16.703125 -10.546875 17.828125 -8.796875 
Q 18.65625 -7.46875 20.515625 -2.25 
Q 20.75 -1.515625 21.296875 -0.09375 
L 1.609375 51.859375 
L 11.078125 51.859375 
L 21.875 21.828125 
Q 23.96875 16.109375 25.640625 9.8125 
Q 27.15625 15.875 29.25 21.625 
L 40.328125 51.859375 
L 49.125 51.859375 
L 29.390625 -0.875 
Q 26.21875 -9.421875 24.46875 -12.640625 
Q 22.125 -17 19.09375 -19.015625 
Q 16.0625 -21.046875 11.859375 -21.046875 
Q 9.328125 -21.046875 6.203125 -19.96875 
z
" id="ArialMT-121"/>
     <path d="M 6.5 28.03125 
L 0.140625 22.65625 
L 0.140625 30.375 
L 6.5 35.75 
L 6.5 71.578125 
L 15.234375 71.578125 
L 15.234375 43.171875 
L 21.828125 48.78125 
L 21.828125 41.109375 
L 15.234375 35.5 
L 15.234375 0 
L 6.5 0 
z
" id="ArialMT-322"/>
    </defs>
    <g style="fill:#262626;" transform="translate(201.673991 73.2)scale(0.17 -0.17)">
     <use xlink:href="#ArialMT-80"/>
     <use x="66.699219" xlink:href="#ArialMT-105"/>
     <use x="88.916016" xlink:href="#ArialMT-101"/>
     <use x="144.53125" xlink:href="#ArialMT-114"/>
     <use x="177.832031" xlink:href="#ArialMT-119"/>
     <use x="250.048828" xlink:href="#ArialMT-115"/>
     <use x="300.048828" xlink:href="#ArialMT-122"/>
     <use x="350.048828" xlink:href="#ArialMT-121"/>
     <use x="400.048828" xlink:href="#ArialMT-32"/>
     <use x="427.832031" xlink:href="#ArialMT-107"/>
     <use x="477.832031" xlink:href="#ArialMT-119"/>
     <use x="550.048828" xlink:href="#ArialMT-97"/>
     <use x="605.664062" xlink:href="#ArialMT-114"/>
     <use x="638.964844" xlink:href="#ArialMT-116"/>
     <use x="666.748047" xlink:href="#ArialMT-97"/>
     <use x="722.363281" xlink:href="#ArialMT-322"/>
    </g>
   </g>
   <g id="legend_1">
    <g id="text_16">
     <!-- Rok -->
     <defs>
      <path d="M 7.859375 0 
L 7.859375 71.578125 
L 39.59375 71.578125 
Q 49.171875 71.578125 54.140625 69.640625 
Q 59.125 67.71875 62.109375 62.828125 
Q 65.09375 57.953125 65.09375 52.046875 
Q 65.09375 44.4375 60.15625 39.203125 
Q 55.21875 33.984375 44.921875 32.5625 
Q 48.6875 30.765625 50.640625 29 
Q 54.78125 25.203125 58.5 19.484375 
L 70.953125 0 
L 59.03125 0 
L 49.5625 14.890625 
Q 45.40625 21.34375 42.71875 24.75 
Q 40.046875 28.171875 37.921875 29.53125 
Q 35.796875 30.90625 33.59375 31.453125 
Q 31.984375 31.78125 28.328125 31.78125 
L 17.328125 31.78125 
L 17.328125 0 
z
M 17.328125 39.984375 
L 37.703125 39.984375 
Q 44.1875 39.984375 47.84375 41.328125 
Q 51.515625 42.671875 53.421875 45.625 
Q 55.328125 48.578125 55.328125 52.046875 
Q 55.328125 57.125 51.640625 60.390625 
Q 47.953125 63.671875 39.984375 63.671875 
L 17.328125 63.671875 
z
" id="ArialMT-82"/>
     </defs>
     <g style="fill:#262626;" transform="translate(462.900959 685.720455)scale(0.17 -0.17)">
      <use xlink:href="#ArialMT-82"/>
      <use x="72.216797" xlink:href="#ArialMT-111"/>
      <use x="127.832031" xlink:href="#ArialMT-107"/>
     </g>
    </g>
    <g id="patch_27">
     <path d="M 256.187599 709.767486 
L 290.187599 709.767486 
L 290.187599 697.867486 
L 256.187599 697.867486 
z
" style="fill:#00bfff;stroke:#000000;stroke-linejoin:miter;"/>
    </g>
    <g id="text_17">
     <!-- 2019 -->
     <defs>
      <path d="M 5.46875 16.546875 
L 13.921875 17.328125 
Q 14.984375 11.375 18.015625 8.6875 
Q 21.046875 6 25.78125 6 
Q 29.828125 6 32.875 7.859375 
Q 35.9375 9.71875 37.890625 12.8125 
Q 39.84375 15.921875 41.15625 21.1875 
Q 42.484375 26.46875 42.484375 31.9375 
Q 42.484375 32.515625 42.4375 33.6875 
Q 39.796875 29.5 35.234375 26.875 
Q 30.671875 24.265625 25.34375 24.265625 
Q 16.453125 24.265625 10.296875 30.703125 
Q 4.15625 37.15625 4.15625 47.703125 
Q 4.15625 58.59375 10.578125 65.234375 
Q 17 71.875 26.65625 71.875 
Q 33.640625 71.875 39.421875 68.109375 
Q 45.21875 64.359375 48.21875 57.390625 
Q 51.21875 50.4375 51.21875 37.25 
Q 51.21875 23.53125 48.234375 15.40625 
Q 45.265625 7.28125 39.375 3.03125 
Q 33.5 -1.21875 25.59375 -1.21875 
Q 17.1875 -1.21875 11.859375 3.4375 
Q 6.546875 8.109375 5.46875 16.546875 
z
M 41.453125 48.140625 
Q 41.453125 55.71875 37.421875 60.15625 
Q 33.40625 64.59375 27.734375 64.59375 
Q 21.875 64.59375 17.53125 59.8125 
Q 13.1875 55.03125 13.1875 47.40625 
Q 13.1875 40.578125 17.3125 36.296875 
Q 21.4375 32.03125 27.484375 32.03125 
Q 33.59375 32.03125 37.515625 36.296875 
Q 41.453125 40.578125 41.453125 48.140625 
z
" id="ArialMT-57"/>
     </defs>
     <g style="fill:#262626;" transform="translate(303.787599 709.767486)scale(0.17 -0.17)">
      <use xlink:href="#ArialMT-50"/>
      <use x="55.615234" xlink:href="#ArialMT-48"/>
      <use x="111.230469" xlink:href="#ArialMT-49"/>
      <use x="166.845703" xlink:href="#ArialMT-57"/>
     </g>
    </g>
    <g id="patch_28">
     <path d="M 375.601974 709.767486 
L 409.601974 709.767486 
L 409.601974 697.867486 
L 375.601974 697.867486 
z
" style="fill:#dc143c;stroke:#000000;stroke-linejoin:miter;"/>
    </g>
    <g id="text_18">
     <!-- 2020 -->
     <g style="fill:#262626;" transform="translate(423.201974 709.767486)scale(0.17 -0.17)">
      <use xlink:href="#ArialMT-50"/>
      <use x="55.615234" xlink:href="#ArialMT-48"/>
      <use x="111.230469" xlink:href="#ArialMT-50"/>
      <use x="166.845703" xlink:href="#ArialMT-48"/>
     </g>
    </g>
    <g id="patch_29">
     <path d="M 495.016349 709.767486 
L 529.016349 709.767486 
L 529.016349 697.867486 
L 495.016349 697.867486 
z
" style="fill:#adff2f;stroke:#000000;stroke-linejoin:miter;"/>
    </g>
    <g id="text_19">
     <!-- 2021 -->
     <g style="fill:#262626;" transform="translate(542.616349 709.767486)scale(0.17 -0.17)">
      <use xlink:href="#ArialMT-50"/>
      <use x="55.615234" xlink:href="#ArialMT-48"/>
      <use x="111.230469" xlink:href="#ArialMT-50"/>
      <use x="166.845703" xlink:href="#ArialMT-49"/>
     </g>
    </g>
    <g id="patch_30">
     <path d="M 614.430724 709.767486 
L 648.430724 709.767486 
L 648.430724 697.867486 
L 614.430724 697.867486 
z
" style="fill:#ff69b4;stroke:#000000;stroke-linejoin:miter;"/>
    </g>
    <g id="text_20">
     <!-- 2022 -->
     <g style="fill:#262626;" transform="translate(662.030724 709.767486)scale(0.17 -0.17)">
      <use xlink:href="#ArialMT-50"/>
      <use x="55.615234" xlink:href="#ArialMT-48"/>
      <use x="111.230469" xlink:href="#ArialMT-50"/>
      <use x="166.845703" xlink:href="#ArialMT-50"/>
     </g>
    </g>
   </g>
  </g>
  <g id="axes_2">
   <g id="patch_31">
    <path d="M 531.279986 315.547826 
L 911.734531 315.547826 
L 911.734531 79.2 
L 531.279986 79.2 
z
" style="fill:#eaeaf2;"/>
   </g>
   <g id="matplotlib.axis_3">
    <g id="xtick_6">
     <g id="line2d_25">
      <path clip-path="url(#p84e453ae1f)" d="M 576.769116 315.547826 
L 576.769116 79.2 
" style="fill:none;stroke:#ffffff;stroke-linecap:round;stroke-width:0.8;"/>
     </g>
     <g id="line2d_26"/>
     <g id="text_21">
      <!-- AT_LOWW -->
      <g style="fill:#262626;" transform="translate(541.895991 329.248139)scale(0.14 -0.14)">
       <use xlink:href="#ArialMT-65"/>
       <use x="59.324219" xlink:href="#ArialMT-84"/>
       <use x="120.408203" xlink:href="#ArialMT-95"/>
       <use x="176.023438" xlink:href="#ArialMT-76"/>
       <use x="231.638672" xlink:href="#ArialMT-79"/>
       <use x="309.421875" xlink:href="#ArialMT-87"/>
       <use x="403.806641" xlink:href="#ArialMT-87"/>
      </g>
     </g>
    </g>
    <g id="xtick_7">
     <g id="line2d_27">
      <path clip-path="url(#p84e453ae1f)" d="M 651.957762 315.547826 
L 651.957762 79.2 
" style="fill:none;stroke:#ffffff;stroke-linecap:round;stroke-width:0.8;"/>
     </g>
     <g id="line2d_28"/>
     <g id="text_22">
      <!-- DE_EDDF -->
      <g style="fill:#262626;" transform="translate(619.285262 329.068764)scale(0.14 -0.14)">
       <use xlink:href="#ArialMT-68"/>
       <use x="72.216797" xlink:href="#ArialMT-69"/>
       <use x="138.916016" xlink:href="#ArialMT-95"/>
       <use x="194.53125" xlink:href="#ArialMT-69"/>
       <use x="261.230469" xlink:href="#ArialMT-68"/>
       <use x="333.447266" xlink:href="#ArialMT-68"/>
       <use x="405.664062" xlink:href="#ArialMT-70"/>
      </g>
     </g>
    </g>
    <g id="xtick_8">
     <g id="line2d_29">
      <path clip-path="url(#p84e453ae1f)" d="M 727.146407 315.547826 
L 727.146407 79.2 
" style="fill:none;stroke:#ffffff;stroke-linecap:round;stroke-width:0.8;"/>
     </g>
     <g id="line2d_30"/>
     <g id="text_23">
      <!-- NO_ENGM -->
      <g style="fill:#262626;" transform="translate(691.753751 329.248139)scale(0.14 -0.14)">
       <use xlink:href="#ArialMT-78"/>
       <use x="72.216797" xlink:href="#ArialMT-79"/>
       <use x="150" xlink:href="#ArialMT-95"/>
       <use x="205.615234" xlink:href="#ArialMT-69"/>
       <use x="272.314453" xlink:href="#ArialMT-78"/>
       <use x="344.53125" xlink:href="#ArialMT-71"/>
       <use x="422.314453" xlink:href="#ArialMT-77"/>
      </g>
     </g>
    </g>
    <g id="xtick_9">
     <g id="line2d_31">
      <path clip-path="url(#p84e453ae1f)" d="M 802.335052 315.547826 
L 802.335052 79.2 
" style="fill:none;stroke:#ffffff;stroke-linecap:round;stroke-width:0.8;"/>
     </g>
     <g id="line2d_32"/>
     <g id="text_24">
      <!-- PL_EPWA -->
      <g style="fill:#262626;" transform="translate(769.528021 329.068764)scale(0.14 -0.14)">
       <use xlink:href="#ArialMT-80"/>
       <use x="66.699219" xlink:href="#ArialMT-76"/>
       <use x="122.314453" xlink:href="#ArialMT-95"/>
       <use x="177.929688" xlink:href="#ArialMT-69"/>
       <use x="244.628906" xlink:href="#ArialMT-80"/>
       <use x="311.328125" xlink:href="#ArialMT-87"/>
       <use x="401.962891" xlink:href="#ArialMT-65"/>
      </g>
     </g>
    </g>
    <g id="xtick_10">
     <g id="line2d_33">
      <path clip-path="url(#p84e453ae1f)" d="M 877.523698 315.547826 
L 877.523698 79.2 
" style="fill:none;stroke:#ffffff;stroke-linecap:round;stroke-width:0.8;"/>
     </g>
     <g id="line2d_34"/>
     <g id="text_25">
      <!-- PT_LPPT -->
      <g style="fill:#262626;" transform="translate(847.179791 329.068764)scale(0.14 -0.14)">
       <use xlink:href="#ArialMT-80"/>
       <use x="66.699219" xlink:href="#ArialMT-84"/>
       <use x="127.783203" xlink:href="#ArialMT-95"/>
       <use x="183.398438" xlink:href="#ArialMT-76"/>
       <use x="239.013672" xlink:href="#ArialMT-80"/>
       <use x="305.712891" xlink:href="#ArialMT-80"/>
       <use x="372.412109" xlink:href="#ArialMT-84"/>
      </g>
     </g>
    </g>
    <g id="text_26">
     <!-- Lotnisko -->
     <g style="fill:#262626;" transform="translate(689.850071 348.19892)scale(0.17 -0.17)">
      <use xlink:href="#ArialMT-76"/>
      <use x="55.615234" xlink:href="#ArialMT-111"/>
      <use x="111.230469" xlink:href="#ArialMT-116"/>
      <use x="139.013672" xlink:href="#ArialMT-110"/>
      <use x="194.628906" xlink:href="#ArialMT-105"/>
      <use x="216.845703" xlink:href="#ArialMT-115"/>
      <use x="266.845703" xlink:href="#ArialMT-107"/>
      <use x="316.845703" xlink:href="#ArialMT-111"/>
     </g>
    </g>
   </g>
   <g id="matplotlib.axis_4">
    <g id="ytick_8">
     <g id="line2d_35">
      <path clip-path="url(#p84e453ae1f)" d="M 531.279986 315.547826 
L 911.734531 315.547826 
" style="fill:none;stroke:#ffffff;stroke-linecap:round;stroke-width:0.8;"/>
     </g>
     <g id="line2d_36"/>
     <g id="text_27">
      <!-- 0 -->
      <g style="fill:#262626;" transform="translate(518.882486 321.274076)scale(0.16 -0.16)">
       <use xlink:href="#ArialMT-48"/>
      </g>
     </g>
    </g>
    <g id="ytick_9">
     <g id="line2d_37">
      <path clip-path="url(#p84e453ae1f)" d="M 531.279986 276.156522 
L 911.734531 276.156522 
" style="fill:none;stroke:#ffffff;stroke-linecap:round;stroke-width:0.8;"/>
     </g>
     <g id="line2d_38"/>
     <g id="text_28">
      <!-- 5000 -->
      <g style="fill:#262626;" transform="translate(492.189986 281.882772)scale(0.16 -0.16)">
       <use xlink:href="#ArialMT-53"/>
       <use x="55.615234" xlink:href="#ArialMT-48"/>
       <use x="111.230469" xlink:href="#ArialMT-48"/>
       <use x="166.845703" xlink:href="#ArialMT-48"/>
      </g>
     </g>
    </g>
    <g id="ytick_10">
     <g id="line2d_39">
      <path clip-path="url(#p84e453ae1f)" d="M 531.279986 236.765217 
L 911.734531 236.765217 
" style="fill:none;stroke:#ffffff;stroke-linecap:round;stroke-width:0.8;"/>
     </g>
     <g id="line2d_40"/>
     <g id="text_29">
      <!-- 10000 -->
      <g style="fill:#262626;" transform="translate(483.292486 242.491467)scale(0.16 -0.16)">
       <use xlink:href="#ArialMT-49"/>
       <use x="55.615234" xlink:href="#ArialMT-48"/>
       <use x="111.230469" xlink:href="#ArialMT-48"/>
       <use x="166.845703" xlink:href="#ArialMT-48"/>
       <use x="222.460938" xlink:href="#ArialMT-48"/>
      </g>
     </g>
    </g>
    <g id="ytick_11">
     <g id="line2d_41">
      <path clip-path="url(#p84e453ae1f)" d="M 531.279986 197.373913 
L 911.734531 197.373913 
" style="fill:none;stroke:#ffffff;stroke-linecap:round;stroke-width:0.8;"/>
     </g>
     <g id="line2d_42"/>
     <g id="text_30">
      <!-- 15000 -->
      <g style="fill:#262626;" transform="translate(483.292486 203.100163)scale(0.16 -0.16)">
       <use xlink:href="#ArialMT-49"/>
       <use x="55.615234" xlink:href="#ArialMT-53"/>
       <use x="111.230469" xlink:href="#ArialMT-48"/>
       <use x="166.845703" xlink:href="#ArialMT-48"/>
       <use x="222.460938" xlink:href="#ArialMT-48"/>
      </g>
     </g>
    </g>
    <g id="ytick_12">
     <g id="line2d_43">
      <path clip-path="url(#p84e453ae1f)" d="M 531.279986 157.982609 
L 911.734531 157.982609 
" style="fill:none;stroke:#ffffff;stroke-linecap:round;stroke-width:0.8;"/>
     </g>
     <g id="line2d_44"/>
     <g id="text_31">
      <!-- 20000 -->
      <g style="fill:#262626;" transform="translate(483.292486 163.708859)scale(0.16 -0.16)">
       <use xlink:href="#ArialMT-50"/>
       <use x="55.615234" xlink:href="#ArialMT-48"/>
       <use x="111.230469" xlink:href="#ArialMT-48"/>
       <use x="166.845703" xlink:href="#ArialMT-48"/>
       <use x="222.460938" xlink:href="#ArialMT-48"/>
      </g>
     </g>
    </g>
    <g id="ytick_13">
     <g id="line2d_45">
      <path clip-path="url(#p84e453ae1f)" d="M 531.279986 118.591304 
L 911.734531 118.591304 
" style="fill:none;stroke:#ffffff;stroke-linecap:round;stroke-width:0.8;"/>
     </g>
     <g id="line2d_46"/>
     <g id="text_32">
      <!-- 25000 -->
      <g style="fill:#262626;" transform="translate(483.292486 124.317554)scale(0.16 -0.16)">
       <use xlink:href="#ArialMT-50"/>
       <use x="55.615234" xlink:href="#ArialMT-53"/>
       <use x="111.230469" xlink:href="#ArialMT-48"/>
       <use x="166.845703" xlink:href="#ArialMT-48"/>
       <use x="222.460938" xlink:href="#ArialMT-48"/>
      </g>
     </g>
    </g>
    <g id="ytick_14">
     <g id="line2d_47">
      <path clip-path="url(#p84e453ae1f)" d="M 531.279986 79.2 
L 911.734531 79.2 
" style="fill:none;stroke:#ffffff;stroke-linecap:round;stroke-width:0.8;"/>
     </g>
     <g id="line2d_48"/>
     <g id="text_33">
      <!-- 30000 -->
      <g style="fill:#262626;" transform="translate(483.292486 84.92625)scale(0.16 -0.16)">
       <use xlink:href="#ArialMT-51"/>
       <use x="55.615234" xlink:href="#ArialMT-48"/>
       <use x="111.230469" xlink:href="#ArialMT-48"/>
       <use x="166.845703" xlink:href="#ArialMT-48"/>
       <use x="222.460938" xlink:href="#ArialMT-48"/>
      </g>
     </g>
    </g>
    <g id="text_34">
     <!-- Liczba lotów -->
     <g style="fill:#262626;" transform="translate(475.913736 244.146491)rotate(-90)scale(0.17 -0.17)">
      <use xlink:href="#ArialMT-76"/>
      <use x="55.615234" xlink:href="#ArialMT-105"/>
      <use x="77.832031" xlink:href="#ArialMT-99"/>
      <use x="127.832031" xlink:href="#ArialMT-122"/>
      <use x="177.832031" xlink:href="#ArialMT-98"/>
      <use x="233.447266" xlink:href="#ArialMT-97"/>
      <use x="289.0625" xlink:href="#ArialMT-32"/>
      <use x="316.845703" xlink:href="#ArialMT-108"/>
      <use x="339.0625" xlink:href="#ArialMT-111"/>
      <use x="394.677734" xlink:href="#ArialMT-116"/>
      <use x="422.460938" xlink:href="#ArialMT-243"/>
      <use x="478.076172" xlink:href="#ArialMT-119"/>
     </g>
    </g>
   </g>
   <g id="patch_32">
    <path clip-path="url(#p84e453ae1f)" d="M 548.573374 315.547826 
L 559.851671 315.547826 
L 559.851671 296.813322 
L 548.573374 296.813322 
z
" style="fill:#00bfff;stroke:#000000;stroke-linejoin:miter;"/>
   </g>
   <g id="patch_33">
    <path clip-path="url(#p84e453ae1f)" d="M 623.76202 315.547826 
L 635.040316 315.547826 
L 635.040316 172.864643 
L 623.76202 172.864643 
z
" style="fill:#00bfff;stroke:#000000;stroke-linejoin:miter;"/>
   </g>
   <g id="patch_34">
    <path clip-path="url(#p84e453ae1f)" d="M 698.950665 315.547826 
L 710.228962 315.547826 
L 710.228962 104.623148 
L 698.950665 104.623148 
z
" style="fill:#00bfff;stroke:#000000;stroke-linejoin:miter;"/>
   </g>
   <g id="patch_35">
    <path clip-path="url(#p84e453ae1f)" d="M 774.13931 315.547826 
L 785.417607 315.547826 
L 785.417607 263.8428 
L 774.13931 263.8428 
z
" style="fill:#00bfff;stroke:#000000;stroke-linejoin:miter;"/>
   </g>
   <g id="patch_36">
    <path clip-path="url(#p84e453ae1f)" d="M 849.327956 315.547826 
L 860.606252 315.547826 
L 860.606252 256.807513 
L 849.327956 256.807513 
z
" style="fill:#00bfff;stroke:#000000;stroke-linejoin:miter;"/>
   </g>
   <g id="patch_37">
    <path clip-path="url(#p84e453ae1f)" d="M 559.851671 315.547826 
L 571.129968 315.547826 
L 571.129968 315.264209 
L 559.851671 315.264209 
z
" style="fill:#dc143c;stroke:#000000;stroke-linejoin:miter;"/>
   </g>
   <g id="patch_38">
    <path clip-path="url(#p84e453ae1f)" d="M 635.040316 315.547826 
L 646.318613 315.547826 
L 646.318613 300.870626 
L 635.040316 300.870626 
z
" style="fill:#dc143c;stroke:#000000;stroke-linejoin:miter;"/>
   </g>
   <g id="patch_39">
    <path clip-path="url(#p84e453ae1f)" d="M 710.228962 315.547826 
L 721.507259 315.547826 
L 721.507259 237.868174 
L 710.228962 237.868174 
z
" style="fill:#dc143c;stroke:#000000;stroke-linejoin:miter;"/>
   </g>
   <g id="patch_40">
    <path clip-path="url(#p84e453ae1f)" d="M 785.417607 315.547826 
L 796.695904 315.547826 
L 796.695904 309.324 
L 785.417607 309.324 
z
" style="fill:#dc143c;stroke:#000000;stroke-linejoin:miter;"/>
   </g>
   <g id="patch_41">
    <path clip-path="url(#p84e453ae1f)" d="M 860.606252 315.547826 
L 871.884549 315.547826 
L 871.884549 312.112904 
L 860.606252 312.112904 
z
" style="fill:#dc143c;stroke:#000000;stroke-linejoin:miter;"/>
   </g>
   <g id="patch_42">
    <path clip-path="url(#p84e453ae1f)" d="M 571.129968 315.547826 
L 582.408265 315.547826 
L 582.408265 311.54567 
L 571.129968 311.54567 
z
" style="fill:#adff2f;stroke:#000000;stroke-linejoin:miter;"/>
   </g>
   <g id="patch_43">
    <path clip-path="url(#p84e453ae1f)" d="M 646.318613 315.547826 
L 657.59691 315.547826 
L 657.59691 282.049461 
L 646.318613 282.049461 
z
" style="fill:#adff2f;stroke:#000000;stroke-linejoin:miter;"/>
   </g>
   <g id="patch_44">
    <path clip-path="url(#p84e453ae1f)" d="M 721.507259 315.547826 
L 732.785555 315.547826 
L 732.785555 215.05273 
L 721.507259 215.05273 
z
" style="fill:#adff2f;stroke:#000000;stroke-linejoin:miter;"/>
   </g>
   <g id="patch_45">
    <path clip-path="url(#p84e453ae1f)" d="M 796.695904 315.547826 
L 807.974201 315.547826 
L 807.974201 298.491391 
L 796.695904 298.491391 
z
" style="fill:#adff2f;stroke:#000000;stroke-linejoin:miter;"/>
   </g>
   <g id="patch_46">
    <path clip-path="url(#p84e453ae1f)" d="M 871.884549 315.547826 
L 883.162846 315.547826 
L 883.162846 284.81473 
L 871.884549 284.81473 
z
" style="fill:#adff2f;stroke:#000000;stroke-linejoin:miter;"/>
   </g>
   <g id="patch_47">
    <path clip-path="url(#p84e453ae1f)" d="M 582.408265 315.547826 
L 593.686561 315.547826 
L 593.686561 307.047183 
L 582.408265 307.047183 
z
" style="fill:#ff69b4;stroke:#000000;stroke-linejoin:miter;"/>
   </g>
   <g id="patch_48">
    <path clip-path="url(#p84e453ae1f)" d="M 657.59691 315.547826 
L 668.875207 315.547826 
L 668.875207 222.103774 
L 657.59691 222.103774 
z
" style="fill:#ff69b4;stroke:#000000;stroke-linejoin:miter;"/>
   </g>
   <g id="patch_49">
    <path clip-path="url(#p84e453ae1f)" d="M 732.785555 315.547826 
L 744.063852 315.547826 
L 744.063852 112.595948 
L 732.785555 112.595948 
z
" style="fill:#ff69b4;stroke:#000000;stroke-linejoin:miter;"/>
   </g>
   <g id="patch_50">
    <path clip-path="url(#p84e453ae1f)" d="M 807.974201 315.547826 
L 819.252497 315.547826 
L 819.252497 269.14487 
L 807.974201 269.14487 
z
" style="fill:#ff69b4;stroke:#000000;stroke-linejoin:miter;"/>
   </g>
   <g id="patch_51">
    <path clip-path="url(#p84e453ae1f)" d="M 883.162846 315.547826 
L 894.441143 315.547826 
L 894.441143 259.880035 
L 883.162846 259.880035 
z
" style="fill:#ff69b4;stroke:#000000;stroke-linejoin:miter;"/>
   </g>
   <g id="patch_52">
    <path d="M 531.279986 315.547826 
L 531.279986 79.2 
" style="fill:none;"/>
   </g>
   <g id="patch_53">
    <path d="M 911.734531 315.547826 
L 911.734531 79.2 
" style="fill:none;"/>
   </g>
   <g id="patch_54">
    <path d="M 531.279986 315.547826 
L 911.734531 315.547826 
" style="fill:none;"/>
   </g>
   <g id="patch_55">
    <path d="M 531.279986 79.2 
L 911.734531 79.2 
" style="fill:none;"/>
   </g>
   <g id="text_35">
    <!-- Drugi kwartał -->
    <defs>
     <path d="M 40.578125 0 
L 40.578125 7.625 
Q 34.515625 -1.171875 24.125 -1.171875 
Q 19.53125 -1.171875 15.546875 0.578125 
Q 11.578125 2.34375 9.640625 5 
Q 7.71875 7.671875 6.9375 11.53125 
Q 6.390625 14.109375 6.390625 19.734375 
L 6.390625 51.859375 
L 15.1875 51.859375 
L 15.1875 23.09375 
Q 15.1875 16.21875 15.71875 13.8125 
Q 16.546875 10.359375 19.234375 8.375 
Q 21.921875 6.390625 25.875 6.390625 
Q 29.828125 6.390625 33.296875 8.421875 
Q 36.765625 10.453125 38.203125 13.9375 
Q 39.65625 17.4375 39.65625 24.078125 
L 39.65625 51.859375 
L 48.4375 51.859375 
L 48.4375 0 
z
" id="ArialMT-117"/>
     <path d="M 4.984375 -4.296875 
L 13.53125 -5.5625 
Q 14.0625 -9.515625 16.5 -11.328125 
Q 19.78125 -13.765625 25.4375 -13.765625 
Q 31.546875 -13.765625 34.859375 -11.328125 
Q 38.1875 -8.890625 39.359375 -4.5 
Q 40.046875 -1.8125 39.984375 6.78125 
Q 34.234375 0 25.640625 0 
Q 14.9375 0 9.078125 7.71875 
Q 3.21875 15.4375 3.21875 26.21875 
Q 3.21875 33.640625 5.90625 39.90625 
Q 8.59375 46.1875 13.6875 49.609375 
Q 18.796875 53.03125 25.6875 53.03125 
Q 34.859375 53.03125 40.828125 45.609375 
L 40.828125 51.859375 
L 48.921875 51.859375 
L 48.921875 7.03125 
Q 48.921875 -5.078125 46.453125 -10.125 
Q 44 -15.1875 38.640625 -18.109375 
Q 33.296875 -21.046875 25.484375 -21.046875 
Q 16.21875 -21.046875 10.5 -16.875 
Q 4.78125 -12.703125 4.984375 -4.296875 
z
M 12.25 26.859375 
Q 12.25 16.65625 16.296875 11.96875 
Q 20.359375 7.28125 26.46875 7.28125 
Q 32.515625 7.28125 36.609375 11.9375 
Q 40.71875 16.609375 40.71875 26.5625 
Q 40.71875 36.078125 36.5 40.90625 
Q 32.28125 45.75 26.3125 45.75 
Q 20.453125 45.75 16.34375 40.984375 
Q 12.25 36.234375 12.25 26.859375 
z
" id="ArialMT-103"/>
    </defs>
    <g style="fill:#262626;" transform="translate(671.912415 73.2)scale(0.17 -0.17)">
     <use xlink:href="#ArialMT-68"/>
     <use x="72.216797" xlink:href="#ArialMT-114"/>
     <use x="105.517578" xlink:href="#ArialMT-117"/>
     <use x="161.132812" xlink:href="#ArialMT-103"/>
     <use x="216.748047" xlink:href="#ArialMT-105"/>
     <use x="238.964844" xlink:href="#ArialMT-32"/>
     <use x="266.748047" xlink:href="#ArialMT-107"/>
     <use x="316.748047" xlink:href="#ArialMT-119"/>
     <use x="388.964844" xlink:href="#ArialMT-97"/>
     <use x="444.580078" xlink:href="#ArialMT-114"/>
     <use x="477.880859" xlink:href="#ArialMT-116"/>
     <use x="505.664062" xlink:href="#ArialMT-97"/>
     <use x="561.279297" xlink:href="#ArialMT-322"/>
    </g>
   </g>
  </g>
  <g id="axes_3">
   <g id="patch_56">
    <path d="M 74.734531 622.8 
L 455.189077 622.8 
L 455.189077 386.452174 
L 74.734531 386.452174 
z
" style="fill:#eaeaf2;"/>
   </g>
   <g id="matplotlib.axis_5">
    <g id="xtick_11">
     <g id="line2d_49">
      <path clip-path="url(#pc053222562)" d="M 120.223662 622.8 
L 120.223662 386.452174 
" style="fill:none;stroke:#ffffff;stroke-linecap:round;stroke-width:0.8;"/>
     </g>
     <g id="line2d_50"/>
     <g id="text_36">
      <!-- AT_LOWW -->
      <g style="fill:#262626;" transform="translate(85.350537 636.500313)scale(0.14 -0.14)">
       <use xlink:href="#ArialMT-65"/>
       <use x="59.324219" xlink:href="#ArialMT-84"/>
       <use x="120.408203" xlink:href="#ArialMT-95"/>
       <use x="176.023438" xlink:href="#ArialMT-76"/>
       <use x="231.638672" xlink:href="#ArialMT-79"/>
       <use x="309.421875" xlink:href="#ArialMT-87"/>
       <use x="403.806641" xlink:href="#ArialMT-87"/>
      </g>
     </g>
    </g>
    <g id="xtick_12">
     <g id="line2d_51">
      <path clip-path="url(#pc053222562)" d="M 195.412307 622.8 
L 195.412307 386.452174 
" style="fill:none;stroke:#ffffff;stroke-linecap:round;stroke-width:0.8;"/>
     </g>
     <g id="line2d_52"/>
     <g id="text_37">
      <!-- DE_EDDF -->
      <g style="fill:#262626;" transform="translate(162.739807 636.320938)scale(0.14 -0.14)">
       <use xlink:href="#ArialMT-68"/>
       <use x="72.216797" xlink:href="#ArialMT-69"/>
       <use x="138.916016" xlink:href="#ArialMT-95"/>
       <use x="194.53125" xlink:href="#ArialMT-69"/>
       <use x="261.230469" xlink:href="#ArialMT-68"/>
       <use x="333.447266" xlink:href="#ArialMT-68"/>
       <use x="405.664062" xlink:href="#ArialMT-70"/>
      </g>
     </g>
    </g>
    <g id="xtick_13">
     <g id="line2d_53">
      <path clip-path="url(#pc053222562)" d="M 270.600952 622.8 
L 270.600952 386.452174 
" style="fill:none;stroke:#ffffff;stroke-linecap:round;stroke-width:0.8;"/>
     </g>
     <g id="line2d_54"/>
     <g id="text_38">
      <!-- NO_ENGM -->
      <g style="fill:#262626;" transform="translate(235.208296 636.500313)scale(0.14 -0.14)">
       <use xlink:href="#ArialMT-78"/>
       <use x="72.216797" xlink:href="#ArialMT-79"/>
       <use x="150" xlink:href="#ArialMT-95"/>
       <use x="205.615234" xlink:href="#ArialMT-69"/>
       <use x="272.314453" xlink:href="#ArialMT-78"/>
       <use x="344.53125" xlink:href="#ArialMT-71"/>
       <use x="422.314453" xlink:href="#ArialMT-77"/>
      </g>
     </g>
    </g>
    <g id="xtick_14">
     <g id="line2d_55">
      <path clip-path="url(#pc053222562)" d="M 345.789598 622.8 
L 345.789598 386.452174 
" style="fill:none;stroke:#ffffff;stroke-linecap:round;stroke-width:0.8;"/>
     </g>
     <g id="line2d_56"/>
     <g id="text_39">
      <!-- PL_EPWA -->
      <g style="fill:#262626;" transform="translate(312.982566 636.320938)scale(0.14 -0.14)">
       <use xlink:href="#ArialMT-80"/>
       <use x="66.699219" xlink:href="#ArialMT-76"/>
       <use x="122.314453" xlink:href="#ArialMT-95"/>
       <use x="177.929688" xlink:href="#ArialMT-69"/>
       <use x="244.628906" xlink:href="#ArialMT-80"/>
       <use x="311.328125" xlink:href="#ArialMT-87"/>
       <use x="401.962891" xlink:href="#ArialMT-65"/>
      </g>
     </g>
    </g>
    <g id="xtick_15">
     <g id="line2d_57">
      <path clip-path="url(#pc053222562)" d="M 420.978243 622.8 
L 420.978243 386.452174 
" style="fill:none;stroke:#ffffff;stroke-linecap:round;stroke-width:0.8;"/>
     </g>
     <g id="line2d_58"/>
     <g id="text_40">
      <!-- PT_LPPT -->
      <g style="fill:#262626;" transform="translate(390.634337 636.320938)scale(0.14 -0.14)">
       <use xlink:href="#ArialMT-80"/>
       <use x="66.699219" xlink:href="#ArialMT-84"/>
       <use x="127.783203" xlink:href="#ArialMT-95"/>
       <use x="183.398438" xlink:href="#ArialMT-76"/>
       <use x="239.013672" xlink:href="#ArialMT-80"/>
       <use x="305.712891" xlink:href="#ArialMT-80"/>
       <use x="372.412109" xlink:href="#ArialMT-84"/>
      </g>
     </g>
    </g>
    <g id="text_41">
     <!-- Lotnisko -->
     <g style="fill:#262626;" transform="translate(233.304616 655.451094)scale(0.17 -0.17)">
      <use xlink:href="#ArialMT-76"/>
      <use x="55.615234" xlink:href="#ArialMT-111"/>
      <use x="111.230469" xlink:href="#ArialMT-116"/>
      <use x="139.013672" xlink:href="#ArialMT-110"/>
      <use x="194.628906" xlink:href="#ArialMT-105"/>
      <use x="216.845703" xlink:href="#ArialMT-115"/>
      <use x="266.845703" xlink:href="#ArialMT-107"/>
      <use x="316.845703" xlink:href="#ArialMT-111"/>
     </g>
    </g>
   </g>
   <g id="matplotlib.axis_6">
    <g id="ytick_15">
     <g id="line2d_59">
      <path clip-path="url(#pc053222562)" d="M 74.734531 622.8 
L 455.189077 622.8 
" style="fill:none;stroke:#ffffff;stroke-linecap:round;stroke-width:0.8;"/>
     </g>
     <g id="line2d_60"/>
     <g id="text_42">
      <!-- 0 -->
      <g style="fill:#262626;" transform="translate(62.337031 628.52625)scale(0.16 -0.16)">
       <use xlink:href="#ArialMT-48"/>
      </g>
     </g>
    </g>
    <g id="ytick_16">
     <g id="line2d_61">
      <path clip-path="url(#pc053222562)" d="M 74.734531 583.408696 
L 455.189077 583.408696 
" style="fill:none;stroke:#ffffff;stroke-linecap:round;stroke-width:0.8;"/>
     </g>
     <g id="line2d_62"/>
     <g id="text_43">
      <!-- 5000 -->
      <g style="fill:#262626;" transform="translate(35.644531 589.134946)scale(0.16 -0.16)">
       <use xlink:href="#ArialMT-53"/>
       <use x="55.615234" xlink:href="#ArialMT-48"/>
       <use x="111.230469" xlink:href="#ArialMT-48"/>
       <use x="166.845703" xlink:href="#ArialMT-48"/>
      </g>
     </g>
    </g>
    <g id="ytick_17">
     <g id="line2d_63">
      <path clip-path="url(#pc053222562)" d="M 74.734531 544.017391 
L 455.189077 544.017391 
" style="fill:none;stroke:#ffffff;stroke-linecap:round;stroke-width:0.8;"/>
     </g>
     <g id="line2d_64"/>
     <g id="text_44">
      <!-- 10000 -->
      <g style="fill:#262626;" transform="translate(26.747031 549.743641)scale(0.16 -0.16)">
       <use xlink:href="#ArialMT-49"/>
       <use x="55.615234" xlink:href="#ArialMT-48"/>
       <use x="111.230469" xlink:href="#ArialMT-48"/>
       <use x="166.845703" xlink:href="#ArialMT-48"/>
       <use x="222.460938" xlink:href="#ArialMT-48"/>
      </g>
     </g>
    </g>
    <g id="ytick_18">
     <g id="line2d_65">
      <path clip-path="url(#pc053222562)" d="M 74.734531 504.626087 
L 455.189077 504.626087 
" style="fill:none;stroke:#ffffff;stroke-linecap:round;stroke-width:0.8;"/>
     </g>
     <g id="line2d_66"/>
     <g id="text_45">
      <!-- 15000 -->
      <g style="fill:#262626;" transform="translate(26.747031 510.352337)scale(0.16 -0.16)">
       <use xlink:href="#ArialMT-49"/>
       <use x="55.615234" xlink:href="#ArialMT-53"/>
       <use x="111.230469" xlink:href="#ArialMT-48"/>
       <use x="166.845703" xlink:href="#ArialMT-48"/>
       <use x="222.460938" xlink:href="#ArialMT-48"/>
      </g>
     </g>
    </g>
    <g id="ytick_19">
     <g id="line2d_67">
      <path clip-path="url(#pc053222562)" d="M 74.734531 465.234783 
L 455.189077 465.234783 
" style="fill:none;stroke:#ffffff;stroke-linecap:round;stroke-width:0.8;"/>
     </g>
     <g id="line2d_68"/>
     <g id="text_46">
      <!-- 20000 -->
      <g style="fill:#262626;" transform="translate(26.747031 470.961033)scale(0.16 -0.16)">
       <use xlink:href="#ArialMT-50"/>
       <use x="55.615234" xlink:href="#ArialMT-48"/>
       <use x="111.230469" xlink:href="#ArialMT-48"/>
       <use x="166.845703" xlink:href="#ArialMT-48"/>
       <use x="222.460938" xlink:href="#ArialMT-48"/>
      </g>
     </g>
    </g>
    <g id="ytick_20">
     <g id="line2d_69">
      <path clip-path="url(#pc053222562)" d="M 74.734531 425.843478 
L 455.189077 425.843478 
" style="fill:none;stroke:#ffffff;stroke-linecap:round;stroke-width:0.8;"/>
     </g>
     <g id="line2d_70"/>
     <g id="text_47">
      <!-- 25000 -->
      <g style="fill:#262626;" transform="translate(26.747031 431.569728)scale(0.16 -0.16)">
       <use xlink:href="#ArialMT-50"/>
       <use x="55.615234" xlink:href="#ArialMT-53"/>
       <use x="111.230469" xlink:href="#ArialMT-48"/>
       <use x="166.845703" xlink:href="#ArialMT-48"/>
       <use x="222.460938" xlink:href="#ArialMT-48"/>
      </g>
     </g>
    </g>
    <g id="ytick_21">
     <g id="line2d_71">
      <path clip-path="url(#pc053222562)" d="M 74.734531 386.452174 
L 455.189077 386.452174 
" style="fill:none;stroke:#ffffff;stroke-linecap:round;stroke-width:0.8;"/>
     </g>
     <g id="line2d_72"/>
     <g id="text_48">
      <!-- 30000 -->
      <g style="fill:#262626;" transform="translate(26.747031 392.178424)scale(0.16 -0.16)">
       <use xlink:href="#ArialMT-51"/>
       <use x="55.615234" xlink:href="#ArialMT-48"/>
       <use x="111.230469" xlink:href="#ArialMT-48"/>
       <use x="166.845703" xlink:href="#ArialMT-48"/>
       <use x="222.460938" xlink:href="#ArialMT-48"/>
      </g>
     </g>
    </g>
    <g id="text_49">
     <!-- Liczba lotów -->
     <g style="fill:#262626;" transform="translate(19.368281 551.398665)rotate(-90)scale(0.17 -0.17)">
      <use xlink:href="#ArialMT-76"/>
      <use x="55.615234" xlink:href="#ArialMT-105"/>
      <use x="77.832031" xlink:href="#ArialMT-99"/>
      <use x="127.832031" xlink:href="#ArialMT-122"/>
      <use x="177.832031" xlink:href="#ArialMT-98"/>
      <use x="233.447266" xlink:href="#ArialMT-97"/>
      <use x="289.0625" xlink:href="#ArialMT-32"/>
      <use x="316.845703" xlink:href="#ArialMT-108"/>
      <use x="339.0625" xlink:href="#ArialMT-111"/>
      <use x="394.677734" xlink:href="#ArialMT-116"/>
      <use x="422.460938" xlink:href="#ArialMT-243"/>
      <use x="478.076172" xlink:href="#ArialMT-119"/>
     </g>
    </g>
   </g>
   <g id="patch_57">
    <path clip-path="url(#pc053222562)" d="M 92.02792 622.8 
L 103.306216 622.8 
L 103.306216 602.789217 
L 92.02792 602.789217 
z
" style="fill:#00bfff;stroke:#000000;stroke-linejoin:miter;"/>
   </g>
   <g id="patch_58">
    <path clip-path="url(#pc053222562)" d="M 167.216565 622.8 
L 178.494862 622.8 
L 178.494862 479.69927 
L 167.216565 479.69927 
z
" style="fill:#00bfff;stroke:#000000;stroke-linejoin:miter;"/>
   </g>
   <g id="patch_59">
    <path clip-path="url(#pc053222562)" d="M 242.40521 622.8 
L 253.683507 622.8 
L 253.683507 410.149983 
L 242.40521 410.149983 
z
" style="fill:#00bfff;stroke:#000000;stroke-linejoin:miter;"/>
   </g>
   <g id="patch_60">
    <path clip-path="url(#pc053222562)" d="M 317.593856 622.8 
L 328.872153 622.8 
L 328.872153 568.826035 
L 317.593856 568.826035 
z
" style="fill:#00bfff;stroke:#000000;stroke-linejoin:miter;"/>
   </g>
   <g id="patch_61">
    <path clip-path="url(#pc053222562)" d="M 392.782501 622.8 
L 404.060798 622.8 
L 404.060798 558.765496 
L 392.782501 558.765496 
z
" style="fill:#00bfff;stroke:#000000;stroke-linejoin:miter;"/>
   </g>
   <g id="patch_62">
    <path clip-path="url(#pc053222562)" d="M 103.306216 622.8 
L 114.584513 622.8 
L 114.584513 616.962209 
L 103.306216 616.962209 
z
" style="fill:#dc143c;stroke:#000000;stroke-linejoin:miter;"/>
   </g>
   <g id="patch_63">
    <path clip-path="url(#pc053222562)" d="M 178.494862 622.8 
L 189.773159 622.8 
L 189.773159 588.695009 
L 178.494862 588.695009 
z
" style="fill:#dc143c;stroke:#000000;stroke-linejoin:miter;"/>
   </g>
   <g id="patch_64">
    <path clip-path="url(#pc053222562)" d="M 253.683507 622.8 
L 264.961804 622.8 
L 264.961804 486.001878 
L 253.683507 486.001878 
z
" style="fill:#dc143c;stroke:#000000;stroke-linejoin:miter;"/>
   </g>
   <g id="patch_65">
    <path clip-path="url(#pc053222562)" d="M 328.872153 622.8 
L 340.150449 622.8 
L 340.150449 592.925635 
L 328.872153 592.925635 
z
" style="fill:#dc143c;stroke:#000000;stroke-linejoin:miter;"/>
   </g>
   <g id="patch_66">
    <path clip-path="url(#pc053222562)" d="M 404.060798 622.8 
L 415.339095 622.8 
L 415.339095 591.775409 
L 404.060798 591.775409 
z
" style="fill:#dc143c;stroke:#000000;stroke-linejoin:miter;"/>
   </g>
   <g id="patch_67">
    <path clip-path="url(#pc053222562)" d="M 114.584513 622.8 
L 125.86281 622.8 
L 125.86281 616.119235 
L 114.584513 616.119235 
z
" style="fill:#adff2f;stroke:#000000;stroke-linejoin:miter;"/>
   </g>
   <g id="patch_68">
    <path clip-path="url(#pc053222562)" d="M 189.773159 622.8 
L 201.051455 622.8 
L 201.051455 568.786643 
L 189.773159 568.786643 
z
" style="fill:#adff2f;stroke:#000000;stroke-linejoin:miter;"/>
   </g>
   <g id="patch_69">
    <path clip-path="url(#pc053222562)" d="M 264.961804 622.8 
L 276.240101 622.8 
L 276.240101 453.007722 
L 264.961804 453.007722 
z
" style="fill:#adff2f;stroke:#000000;stroke-linejoin:miter;"/>
   </g>
   <g id="patch_70">
    <path clip-path="url(#pc053222562)" d="M 340.150449 622.8 
L 351.428746 622.8 
L 351.428746 594.067983 
L 340.150449 594.067983 
z
" style="fill:#adff2f;stroke:#000000;stroke-linejoin:miter;"/>
   </g>
   <g id="patch_71">
    <path clip-path="url(#pc053222562)" d="M 415.339095 622.8 
L 426.617391 622.8 
L 426.617391 575.766783 
L 415.339095 575.766783 
z
" style="fill:#adff2f;stroke:#000000;stroke-linejoin:miter;"/>
   </g>
   <g id="patch_72">
    <path clip-path="url(#pc053222562)" d="M 125.86281 622.8 
L 137.141107 622.8 
L 137.141107 614.228452 
L 125.86281 614.228452 
z
" style="fill:#ff69b4;stroke:#000000;stroke-linejoin:miter;"/>
   </g>
   <g id="patch_73">
    <path clip-path="url(#pc053222562)" d="M 201.051455 622.8 
L 212.329752 622.8 
L 212.329752 545.640313 
L 201.051455 545.640313 
z
" style="fill:#ff69b4;stroke:#000000;stroke-linejoin:miter;"/>
   </g>
   <g id="patch_74">
    <path clip-path="url(#pc053222562)" d="M 276.240101 622.8 
L 287.518398 622.8 
L 287.518398 432.807861 
L 276.240101 432.807861 
z
" style="fill:#ff69b4;stroke:#000000;stroke-linejoin:miter;"/>
   </g>
   <g id="patch_75">
    <path clip-path="url(#pc053222562)" d="M 351.428746 622.8 
L 362.707043 622.8 
L 362.707043 574.19113 
L 351.428746 574.19113 
z
" style="fill:#ff69b4;stroke:#000000;stroke-linejoin:miter;"/>
   </g>
   <g id="patch_76">
    <path clip-path="url(#pc053222562)" d="M 426.617391 622.8 
L 437.895688 622.8 
L 437.895688 563.854852 
L 426.617391 563.854852 
z
" style="fill:#ff69b4;stroke:#000000;stroke-linejoin:miter;"/>
   </g>
   <g id="patch_77">
    <path d="M 74.734531 622.8 
L 74.734531 386.452174 
" style="fill:none;"/>
   </g>
   <g id="patch_78">
    <path d="M 455.189077 622.8 
L 455.189077 386.452174 
" style="fill:none;"/>
   </g>
   <g id="patch_79">
    <path d="M 74.734531 622.8 
L 455.189077 622.8 
" style="fill:none;"/>
   </g>
   <g id="patch_80">
    <path d="M 74.734531 386.452174 
L 455.189077 386.452174 
" style="fill:none;"/>
   </g>
   <g id="text_50">
    <!-- Trzeci kwartał -->
    <g style="fill:#262626;" transform="translate(212.85946 380.452174)scale(0.17 -0.17)">
     <use xlink:href="#ArialMT-84"/>
     <use x="57.333984" xlink:href="#ArialMT-114"/>
     <use x="90.634766" xlink:href="#ArialMT-122"/>
     <use x="140.634766" xlink:href="#ArialMT-101"/>
     <use x="196.25" xlink:href="#ArialMT-99"/>
     <use x="246.25" xlink:href="#ArialMT-105"/>
     <use x="268.466797" xlink:href="#ArialMT-32"/>
     <use x="296.25" xlink:href="#ArialMT-107"/>
     <use x="346.25" xlink:href="#ArialMT-119"/>
     <use x="418.466797" xlink:href="#ArialMT-97"/>
     <use x="474.082031" xlink:href="#ArialMT-114"/>
     <use x="507.382812" xlink:href="#ArialMT-116"/>
     <use x="535.166016" xlink:href="#ArialMT-97"/>
     <use x="590.78125" xlink:href="#ArialMT-322"/>
    </g>
   </g>
  </g>
  <g id="axes_4">
   <g id="patch_81">
    <path d="M 531.279986 622.8 
L 911.734531 622.8 
L 911.734531 386.452174 
L 531.279986 386.452174 
z
" style="fill:#eaeaf2;"/>
   </g>
   <g id="matplotlib.axis_7">
    <g id="xtick_16">
     <g id="line2d_73">
      <path clip-path="url(#pbff527c51f)" d="M 576.769116 622.8 
L 576.769116 386.452174 
" style="fill:none;stroke:#ffffff;stroke-linecap:round;stroke-width:0.8;"/>
     </g>
     <g id="line2d_74"/>
     <g id="text_51">
      <!-- AT_LOWW -->
      <g style="fill:#262626;" transform="translate(541.895991 636.500313)scale(0.14 -0.14)">
       <use xlink:href="#ArialMT-65"/>
       <use x="59.324219" xlink:href="#ArialMT-84"/>
       <use x="120.408203" xlink:href="#ArialMT-95"/>
       <use x="176.023438" xlink:href="#ArialMT-76"/>
       <use x="231.638672" xlink:href="#ArialMT-79"/>
       <use x="309.421875" xlink:href="#ArialMT-87"/>
       <use x="403.806641" xlink:href="#ArialMT-87"/>
      </g>
     </g>
    </g>
    <g id="xtick_17">
     <g id="line2d_75">
      <path clip-path="url(#pbff527c51f)" d="M 651.957762 622.8 
L 651.957762 386.452174 
" style="fill:none;stroke:#ffffff;stroke-linecap:round;stroke-width:0.8;"/>
     </g>
     <g id="line2d_76"/>
     <g id="text_52">
      <!-- DE_EDDF -->
      <g style="fill:#262626;" transform="translate(619.285262 636.320938)scale(0.14 -0.14)">
       <use xlink:href="#ArialMT-68"/>
       <use x="72.216797" xlink:href="#ArialMT-69"/>
       <use x="138.916016" xlink:href="#ArialMT-95"/>
       <use x="194.53125" xlink:href="#ArialMT-69"/>
       <use x="261.230469" xlink:href="#ArialMT-68"/>
       <use x="333.447266" xlink:href="#ArialMT-68"/>
       <use x="405.664062" xlink:href="#ArialMT-70"/>
      </g>
     </g>
    </g>
    <g id="xtick_18">
     <g id="line2d_77">
      <path clip-path="url(#pbff527c51f)" d="M 727.146407 622.8 
L 727.146407 386.452174 
" style="fill:none;stroke:#ffffff;stroke-linecap:round;stroke-width:0.8;"/>
     </g>
     <g id="line2d_78"/>
     <g id="text_53">
      <!-- NO_ENGM -->
      <g style="fill:#262626;" transform="translate(691.753751 636.500313)scale(0.14 -0.14)">
       <use xlink:href="#ArialMT-78"/>
       <use x="72.216797" xlink:href="#ArialMT-79"/>
       <use x="150" xlink:href="#ArialMT-95"/>
       <use x="205.615234" xlink:href="#ArialMT-69"/>
       <use x="272.314453" xlink:href="#ArialMT-78"/>
       <use x="344.53125" xlink:href="#ArialMT-71"/>
       <use x="422.314453" xlink:href="#ArialMT-77"/>
      </g>
     </g>
    </g>
    <g id="xtick_19">
     <g id="line2d_79">
      <path clip-path="url(#pbff527c51f)" d="M 802.335052 622.8 
L 802.335052 386.452174 
" style="fill:none;stroke:#ffffff;stroke-linecap:round;stroke-width:0.8;"/>
     </g>
     <g id="line2d_80"/>
     <g id="text_54">
      <!-- PL_EPWA -->
      <g style="fill:#262626;" transform="translate(769.528021 636.320938)scale(0.14 -0.14)">
       <use xlink:href="#ArialMT-80"/>
       <use x="66.699219" xlink:href="#ArialMT-76"/>
       <use x="122.314453" xlink:href="#ArialMT-95"/>
       <use x="177.929688" xlink:href="#ArialMT-69"/>
       <use x="244.628906" xlink:href="#ArialMT-80"/>
       <use x="311.328125" xlink:href="#ArialMT-87"/>
       <use x="401.962891" xlink:href="#ArialMT-65"/>
      </g>
     </g>
    </g>
    <g id="xtick_20">
     <g id="line2d_81">
      <path clip-path="url(#pbff527c51f)" d="M 877.523698 622.8 
L 877.523698 386.452174 
" style="fill:none;stroke:#ffffff;stroke-linecap:round;stroke-width:0.8;"/>
     </g>
     <g id="line2d_82"/>
     <g id="text_55">
      <!-- PT_LPPT -->
      <g style="fill:#262626;" transform="translate(847.179791 636.320938)scale(0.14 -0.14)">
       <use xlink:href="#ArialMT-80"/>
       <use x="66.699219" xlink:href="#ArialMT-84"/>
       <use x="127.783203" xlink:href="#ArialMT-95"/>
       <use x="183.398438" xlink:href="#ArialMT-76"/>
       <use x="239.013672" xlink:href="#ArialMT-80"/>
       <use x="305.712891" xlink:href="#ArialMT-80"/>
       <use x="372.412109" xlink:href="#ArialMT-84"/>
      </g>
     </g>
    </g>
    <g id="text_56">
     <!-- Lotnisko -->
     <g style="fill:#262626;" transform="translate(689.850071 655.451094)scale(0.17 -0.17)">
      <use xlink:href="#ArialMT-76"/>
      <use x="55.615234" xlink:href="#ArialMT-111"/>
      <use x="111.230469" xlink:href="#ArialMT-116"/>
      <use x="139.013672" xlink:href="#ArialMT-110"/>
      <use x="194.628906" xlink:href="#ArialMT-105"/>
      <use x="216.845703" xlink:href="#ArialMT-115"/>
      <use x="266.845703" xlink:href="#ArialMT-107"/>
      <use x="316.845703" xlink:href="#ArialMT-111"/>
     </g>
    </g>
   </g>
   <g id="matplotlib.axis_8">
    <g id="ytick_22">
     <g id="line2d_83">
      <path clip-path="url(#pbff527c51f)" d="M 531.279986 622.8 
L 911.734531 622.8 
" style="fill:none;stroke:#ffffff;stroke-linecap:round;stroke-width:0.8;"/>
     </g>
     <g id="line2d_84"/>
     <g id="text_57">
      <!-- 0 -->
      <g style="fill:#262626;" transform="translate(518.882486 628.52625)scale(0.16 -0.16)">
       <use xlink:href="#ArialMT-48"/>
      </g>
     </g>
    </g>
    <g id="ytick_23">
     <g id="line2d_85">
      <path clip-path="url(#pbff527c51f)" d="M 531.279986 583.408696 
L 911.734531 583.408696 
" style="fill:none;stroke:#ffffff;stroke-linecap:round;stroke-width:0.8;"/>
     </g>
     <g id="line2d_86"/>
     <g id="text_58">
      <!-- 5000 -->
      <g style="fill:#262626;" transform="translate(492.189986 589.134946)scale(0.16 -0.16)">
       <use xlink:href="#ArialMT-53"/>
       <use x="55.615234" xlink:href="#ArialMT-48"/>
       <use x="111.230469" xlink:href="#ArialMT-48"/>
       <use x="166.845703" xlink:href="#ArialMT-48"/>
      </g>
     </g>
    </g>
    <g id="ytick_24">
     <g id="line2d_87">
      <path clip-path="url(#pbff527c51f)" d="M 531.279986 544.017391 
L 911.734531 544.017391 
" style="fill:none;stroke:#ffffff;stroke-linecap:round;stroke-width:0.8;"/>
     </g>
     <g id="line2d_88"/>
     <g id="text_59">
      <!-- 10000 -->
      <g style="fill:#262626;" transform="translate(483.292486 549.743641)scale(0.16 -0.16)">
       <use xlink:href="#ArialMT-49"/>
       <use x="55.615234" xlink:href="#ArialMT-48"/>
       <use x="111.230469" xlink:href="#ArialMT-48"/>
       <use x="166.845703" xlink:href="#ArialMT-48"/>
       <use x="222.460938" xlink:href="#ArialMT-48"/>
      </g>
     </g>
    </g>
    <g id="ytick_25">
     <g id="line2d_89">
      <path clip-path="url(#pbff527c51f)" d="M 531.279986 504.626087 
L 911.734531 504.626087 
" style="fill:none;stroke:#ffffff;stroke-linecap:round;stroke-width:0.8;"/>
     </g>
     <g id="line2d_90"/>
     <g id="text_60">
      <!-- 15000 -->
      <g style="fill:#262626;" transform="translate(483.292486 510.352337)scale(0.16 -0.16)">
       <use xlink:href="#ArialMT-49"/>
       <use x="55.615234" xlink:href="#ArialMT-53"/>
       <use x="111.230469" xlink:href="#ArialMT-48"/>
       <use x="166.845703" xlink:href="#ArialMT-48"/>
       <use x="222.460938" xlink:href="#ArialMT-48"/>
      </g>
     </g>
    </g>
    <g id="ytick_26">
     <g id="line2d_91">
      <path clip-path="url(#pbff527c51f)" d="M 531.279986 465.234783 
L 911.734531 465.234783 
" style="fill:none;stroke:#ffffff;stroke-linecap:round;stroke-width:0.8;"/>
     </g>
     <g id="line2d_92"/>
     <g id="text_61">
      <!-- 20000 -->
      <g style="fill:#262626;" transform="translate(483.292486 470.961033)scale(0.16 -0.16)">
       <use xlink:href="#ArialMT-50"/>
       <use x="55.615234" xlink:href="#ArialMT-48"/>
       <use x="111.230469" xlink:href="#ArialMT-48"/>
       <use x="166.845703" xlink:href="#ArialMT-48"/>
       <use x="222.460938" xlink:href="#ArialMT-48"/>
      </g>
     </g>
    </g>
    <g id="ytick_27">
     <g id="line2d_93">
      <path clip-path="url(#pbff527c51f)" d="M 531.279986 425.843478 
L 911.734531 425.843478 
" style="fill:none;stroke:#ffffff;stroke-linecap:round;stroke-width:0.8;"/>
     </g>
     <g id="line2d_94"/>
     <g id="text_62">
      <!-- 25000 -->
      <g style="fill:#262626;" transform="translate(483.292486 431.569728)scale(0.16 -0.16)">
       <use xlink:href="#ArialMT-50"/>
       <use x="55.615234" xlink:href="#ArialMT-53"/>
       <use x="111.230469" xlink:href="#ArialMT-48"/>
       <use x="166.845703" xlink:href="#ArialMT-48"/>
       <use x="222.460938" xlink:href="#ArialMT-48"/>
      </g>
     </g>
    </g>
    <g id="ytick_28">
     <g id="line2d_95">
      <path clip-path="url(#pbff527c51f)" d="M 531.279986 386.452174 
L 911.734531 386.452174 
" style="fill:none;stroke:#ffffff;stroke-linecap:round;stroke-width:0.8;"/>
     </g>
     <g id="line2d_96"/>
     <g id="text_63">
      <!-- 30000 -->
      <g style="fill:#262626;" transform="translate(483.292486 392.178424)scale(0.16 -0.16)">
       <use xlink:href="#ArialMT-51"/>
       <use x="55.615234" xlink:href="#ArialMT-48"/>
       <use x="111.230469" xlink:href="#ArialMT-48"/>
       <use x="166.845703" xlink:href="#ArialMT-48"/>
       <use x="222.460938" xlink:href="#ArialMT-48"/>
      </g>
     </g>
    </g>
    <g id="text_64">
     <!-- Liczba lotów -->
     <g style="fill:#262626;" transform="translate(475.913736 551.398665)rotate(-90)scale(0.17 -0.17)">
      <use xlink:href="#ArialMT-76"/>
      <use x="55.615234" xlink:href="#ArialMT-105"/>
      <use x="77.832031" xlink:href="#ArialMT-99"/>
      <use x="127.832031" xlink:href="#ArialMT-122"/>
      <use x="177.832031" xlink:href="#ArialMT-98"/>
      <use x="233.447266" xlink:href="#ArialMT-97"/>
      <use x="289.0625" xlink:href="#ArialMT-32"/>
      <use x="316.845703" xlink:href="#ArialMT-108"/>
      <use x="339.0625" xlink:href="#ArialMT-111"/>
      <use x="394.677734" xlink:href="#ArialMT-116"/>
      <use x="422.460938" xlink:href="#ArialMT-243"/>
      <use x="478.076172" xlink:href="#ArialMT-119"/>
     </g>
    </g>
   </g>
   <g id="patch_82">
    <path clip-path="url(#pbff527c51f)" d="M 548.573374 622.8 
L 559.851671 622.8 
L 559.851671 602.883757 
L 548.573374 602.883757 
z
" style="fill:#00bfff;stroke:#000000;stroke-linejoin:miter;"/>
   </g>
   <g id="patch_83">
    <path clip-path="url(#pbff527c51f)" d="M 623.76202 622.8 
L 635.040316 622.8 
L 635.040316 488.743513 
L 623.76202 488.743513 
z
" style="fill:#00bfff;stroke:#000000;stroke-linejoin:miter;"/>
   </g>
   <g id="patch_84">
    <path clip-path="url(#pbff527c51f)" d="M 698.950665 622.8 
L 710.228962 622.8 
L 710.228962 403.059548 
L 698.950665 403.059548 
z
" style="fill:#00bfff;stroke:#000000;stroke-linejoin:miter;"/>
   </g>
   <g id="patch_85">
    <path clip-path="url(#pbff527c51f)" d="M 774.13931 622.8 
L 785.417607 622.8 
L 785.417607 567.092817 
L 774.13931 567.092817 
z
" style="fill:#00bfff;stroke:#000000;stroke-linejoin:miter;"/>
   </g>
   <g id="patch_86">
    <path clip-path="url(#pbff527c51f)" d="M 849.327956 622.8 
L 860.606252 622.8 
L 860.606252 569.038748 
L 849.327956 569.038748 
z
" style="fill:#00bfff;stroke:#000000;stroke-linejoin:miter;"/>
   </g>
   <g id="patch_87">
    <path clip-path="url(#pbff527c51f)" d="M 559.851671 622.8 
L 571.129968 622.8 
L 571.129968 617.978504 
L 559.851671 617.978504 
z
" style="fill:#dc143c;stroke:#000000;stroke-linejoin:miter;"/>
   </g>
   <g id="patch_88">
    <path clip-path="url(#pbff527c51f)" d="M 635.040316 622.8 
L 646.318613 622.8 
L 646.318613 592.421426 
L 635.040316 592.421426 
z
" style="fill:#dc143c;stroke:#000000;stroke-linejoin:miter;"/>
   </g>
   <g id="patch_89">
    <path clip-path="url(#pbff527c51f)" d="M 710.228962 622.8 
L 721.507259 622.8 
L 721.507259 488.522922 
L 710.228962 488.522922 
z
" style="fill:#dc143c;stroke:#000000;stroke-linejoin:miter;"/>
   </g>
   <g id="patch_90">
    <path clip-path="url(#pbff527c51f)" d="M 785.417607 622.8 
L 796.695904 622.8 
L 796.695904 599.496104 
L 785.417607 599.496104 
z
" style="fill:#dc143c;stroke:#000000;stroke-linejoin:miter;"/>
   </g>
   <g id="patch_91">
    <path clip-path="url(#pbff527c51f)" d="M 860.606252 622.8 
L 871.884549 622.8 
L 871.884549 597.0696 
L 860.606252 597.0696 
z
" style="fill:#dc143c;stroke:#000000;stroke-linejoin:miter;"/>
   </g>
   <g id="patch_92">
    <path clip-path="url(#pbff527c51f)" d="M 571.129968 622.8 
L 582.408265 622.8 
L 582.408265 616.662835 
L 571.129968 616.662835 
z
" style="fill:#adff2f;stroke:#000000;stroke-linejoin:miter;"/>
   </g>
   <g id="patch_93">
    <path clip-path="url(#pbff527c51f)" d="M 646.318613 622.8 
L 657.59691 622.8 
L 657.59691 549.532174 
L 646.318613 549.532174 
z
" style="fill:#adff2f;stroke:#000000;stroke-linejoin:miter;"/>
   </g>
   <g id="patch_94">
    <path clip-path="url(#pbff527c51f)" d="M 721.507259 622.8 
L 732.785555 622.8 
L 732.785555 430.058348 
L 721.507259 430.058348 
z
" style="fill:#adff2f;stroke:#000000;stroke-linejoin:miter;"/>
   </g>
   <g id="patch_95">
    <path clip-path="url(#pbff527c51f)" d="M 796.695904 622.8 
L 807.974201 622.8 
L 807.974201 588.584713 
L 796.695904 588.584713 
z
" style="fill:#adff2f;stroke:#000000;stroke-linejoin:miter;"/>
   </g>
   <g id="patch_96">
    <path clip-path="url(#pbff527c51f)" d="M 871.884549 622.8 
L 883.162846 622.8 
L 883.162846 579.72167 
L 871.884549 579.72167 
z
" style="fill:#adff2f;stroke:#000000;stroke-linejoin:miter;"/>
   </g>
   <g id="patch_97">
    <path clip-path="url(#pbff527c51f)" d="M 582.408265 622.8 
L 593.686561 622.8 
L 593.686561 614.504191 
L 582.408265 614.504191 
z
" style="fill:#ff69b4;stroke:#000000;stroke-linejoin:miter;"/>
   </g>
   <g id="patch_98">
    <path clip-path="url(#pbff527c51f)" d="M 657.59691 622.8 
L 668.875207 622.8 
L 668.875207 529.379583 
L 657.59691 529.379583 
z
" style="fill:#ff69b4;stroke:#000000;stroke-linejoin:miter;"/>
   </g>
   <g id="patch_99">
    <path clip-path="url(#pbff527c51f)" d="M 732.785555 622.8 
L 744.063852 622.8 
L 744.063852 425.307757 
L 732.785555 425.307757 
z
" style="fill:#ff69b4;stroke:#000000;stroke-linejoin:miter;"/>
   </g>
   <g id="patch_100">
    <path clip-path="url(#pbff527c51f)" d="M 807.974201 622.8 
L 819.252497 622.8 
L 819.252497 576.696417 
L 807.974201 576.696417 
z
" style="fill:#ff69b4;stroke:#000000;stroke-linejoin:miter;"/>
   </g>
   <g id="patch_101">
    <path clip-path="url(#pbff527c51f)" d="M 883.162846 622.8 
L 894.441143 622.8 
L 894.441143 571.433739 
L 883.162846 571.433739 
z
" style="fill:#ff69b4;stroke:#000000;stroke-linejoin:miter;"/>
   </g>
   <g id="patch_102">
    <path d="M 531.279986 622.8 
L 531.279986 386.452174 
" style="fill:none;"/>
   </g>
   <g id="patch_103">
    <path d="M 911.734531 622.8 
L 911.734531 386.452174 
" style="fill:none;"/>
   </g>
   <g id="patch_104">
    <path d="M 531.279986 622.8 
L 911.734531 622.8 
" style="fill:none;"/>
   </g>
   <g id="patch_105">
    <path d="M 531.279986 386.452174 
L 911.734531 386.452174 
" style="fill:none;"/>
   </g>
   <g id="text_65">
    <!-- Czwarty kwartał -->
    <defs>
     <path d="M 58.796875 25.09375 
L 68.265625 22.703125 
Q 65.28125 11.03125 57.546875 4.90625 
Q 49.8125 -1.21875 38.625 -1.21875 
Q 27.046875 -1.21875 19.796875 3.484375 
Q 12.546875 8.203125 8.765625 17.140625 
Q 4.984375 26.078125 4.984375 36.328125 
Q 4.984375 47.515625 9.25 55.828125 
Q 13.53125 64.15625 21.40625 68.46875 
Q 29.296875 72.796875 38.765625 72.796875 
Q 49.515625 72.796875 56.828125 67.328125 
Q 64.15625 61.859375 67.046875 51.953125 
L 57.71875 49.75 
Q 55.21875 57.5625 50.484375 61.125 
Q 45.75 64.703125 38.578125 64.703125 
Q 30.328125 64.703125 24.78125 60.734375 
Q 19.234375 56.78125 16.984375 50.109375 
Q 14.75 43.453125 14.75 36.375 
Q 14.75 27.25 17.40625 20.4375 
Q 20.0625 13.625 25.671875 10.25 
Q 31.296875 6.890625 37.84375 6.890625 
Q 45.796875 6.890625 51.3125 11.46875 
Q 56.84375 16.0625 58.796875 25.09375 
z
" id="ArialMT-67"/>
    </defs>
    <g style="fill:#262626;" transform="translate(661.527805 380.452174)scale(0.17 -0.17)">
     <use xlink:href="#ArialMT-67"/>
     <use x="72.216797" xlink:href="#ArialMT-122"/>
     <use x="122.216797" xlink:href="#ArialMT-119"/>
     <use x="194.433594" xlink:href="#ArialMT-97"/>
     <use x="250.048828" xlink:href="#ArialMT-114"/>
     <use x="283.349609" xlink:href="#ArialMT-116"/>
     <use x="311.132812" xlink:href="#ArialMT-121"/>
     <use x="361.132812" xlink:href="#ArialMT-32"/>
     <use x="388.916016" xlink:href="#ArialMT-107"/>
     <use x="438.916016" xlink:href="#ArialMT-119"/>
     <use x="511.132812" xlink:href="#ArialMT-97"/>
     <use x="566.748047" xlink:href="#ArialMT-114"/>
     <use x="600.048828" xlink:href="#ArialMT-116"/>
     <use x="627.832031" xlink:href="#ArialMT-97"/>
     <use x="683.447266" xlink:href="#ArialMT-322"/>
    </g>
   </g>
  </g>
  <g id="text_66">
   <!-- Liczba lotów krajowych w latach 2019-2022 -->
   <defs>
    <path d="M 6.546875 61.375 
L 6.546875 71.578125 
L 15.328125 71.578125 
L 15.328125 61.375 
z
M -4.59375 -20.125 
L -2.9375 -12.640625 
Q -0.296875 -13.328125 1.21875 -13.328125 
Q 3.90625 -13.328125 5.21875 -11.546875 
Q 6.546875 -9.765625 6.546875 -2.640625 
L 6.546875 51.859375 
L 15.328125 51.859375 
L 15.328125 -2.828125 
Q 15.328125 -12.40625 12.84375 -16.15625 
Q 9.671875 -21.046875 2.296875 -21.046875 
Q -1.265625 -21.046875 -4.59375 -20.125 
z
" id="ArialMT-106"/>
    <path d="M 6.59375 0 
L 6.59375 71.578125 
L 15.375 71.578125 
L 15.375 45.90625 
Q 21.53125 53.03125 30.90625 53.03125 
Q 36.671875 53.03125 40.921875 50.75 
Q 45.171875 48.484375 47 44.484375 
Q 48.828125 40.484375 48.828125 32.859375 
L 48.828125 0 
L 40.046875 0 
L 40.046875 32.859375 
Q 40.046875 39.453125 37.1875 42.453125 
Q 34.328125 45.453125 29.109375 45.453125 
Q 25.203125 45.453125 21.75 43.421875 
Q 18.3125 41.40625 16.84375 37.9375 
Q 15.375 34.46875 15.375 28.375 
L 15.375 0 
z
" id="ArialMT-104"/>
    <path d="M 3.171875 21.484375 
L 3.171875 30.328125 
L 30.171875 30.328125 
L 30.171875 21.484375 
z
" id="ArialMT-45"/>
   </defs>
   <g style="fill:#262626;" transform="translate(268.185625 23.033125)scale(0.22 -0.22)">
    <use xlink:href="#ArialMT-76"/>
    <use x="55.615234" xlink:href="#ArialMT-105"/>
    <use x="77.832031" xlink:href="#ArialMT-99"/>
    <use x="127.832031" xlink:href="#ArialMT-122"/>
    <use x="177.832031" xlink:href="#ArialMT-98"/>
    <use x="233.447266" xlink:href="#ArialMT-97"/>
    <use x="289.0625" xlink:href="#ArialMT-32"/>
    <use x="316.845703" xlink:href="#ArialMT-108"/>
    <use x="339.0625" xlink:href="#ArialMT-111"/>
    <use x="394.677734" xlink:href="#ArialMT-116"/>
    <use x="422.460938" xlink:href="#ArialMT-243"/>
    <use x="478.076172" xlink:href="#ArialMT-119"/>
    <use x="550.292969" xlink:href="#ArialMT-32"/>
    <use x="578.076172" xlink:href="#ArialMT-107"/>
    <use x="628.076172" xlink:href="#ArialMT-114"/>
    <use x="661.376953" xlink:href="#ArialMT-97"/>
    <use x="716.992188" xlink:href="#ArialMT-106"/>
    <use x="739.208984" xlink:href="#ArialMT-111"/>
    <use x="794.824219" xlink:href="#ArialMT-119"/>
    <use x="867.041016" xlink:href="#ArialMT-121"/>
    <use x="917.041016" xlink:href="#ArialMT-99"/>
    <use x="967.041016" xlink:href="#ArialMT-104"/>
    <use x="1022.65625" xlink:href="#ArialMT-32"/>
    <use x="1050.439453" xlink:href="#ArialMT-119"/>
    <use x="1122.65625" xlink:href="#ArialMT-32"/>
    <use x="1150.439453" xlink:href="#ArialMT-108"/>
    <use x="1172.65625" xlink:href="#ArialMT-97"/>
    <use x="1228.271484" xlink:href="#ArialMT-116"/>
    <use x="1256.054688" xlink:href="#ArialMT-97"/>
    <use x="1311.669922" xlink:href="#ArialMT-99"/>
    <use x="1361.669922" xlink:href="#ArialMT-104"/>
    <use x="1417.285156" xlink:href="#ArialMT-32"/>
    <use x="1445.068359" xlink:href="#ArialMT-50"/>
    <use x="1500.683594" xlink:href="#ArialMT-48"/>
    <use x="1556.298828" xlink:href="#ArialMT-49"/>
    <use x="1611.914062" xlink:href="#ArialMT-57"/>
    <use x="1667.529297" xlink:href="#ArialMT-45"/>
    <use x="1700.830078" xlink:href="#ArialMT-50"/>
    <use x="1756.445312" xlink:href="#ArialMT-48"/>
    <use x="1812.060547" xlink:href="#ArialMT-50"/>
    <use x="1867.675781" xlink:href="#ArialMT-50"/>
   </g>
  </g>
 </g>
 <defs>
  <clipPath id="pc44642f017">
   <rect height="236.347826" width="380.454545" x="74.734531" y="79.2"/>
  </clipPath>
  <clipPath id="p84e453ae1f">
   <rect height="236.347826" width="380.454545" x="531.279986" y="79.2"/>
  </clipPath>
  <clipPath id="pc053222562">
   <rect height="236.347826" width="380.454545" x="74.734531" y="386.452174"/>
  </clipPath>
  <clipPath id="pbff527c51f">
   <rect height="236.347826" width="380.454545" x="531.279986" y="386.452174"/>
  </clipPath>
 </defs>
</svg>
